{"glyphs":{"0":{"ha":690,"x_min":61,"x_max":629,"o":"m 346 -17 q 136 104 211 -17 q 61 446 61 225 q 136 785 61 667 q 346 903 211 903 q 554 785 479 903 q 629 446 629 667 q 554 104 629 225 q 346 -17 479 -17 m 346 75 q 472 167 426 75 q 518 446 518 258 q 346 811 518 811 q 172 446 172 811 q 218 167 172 258 q 346 75 264 75 z "},"1":{"ha":690,"x_min":110,"x_max":610,"o":"m 110 0 l 110 94 l 313 94 l 313 747 l 151 747 l 151 821 q 339 886 263 840 l 426 886 l 426 94 l 610 94 l 610 0 l 110 0 z "},"2":{"ha":690,"x_min":50,"x_max":628,"o":"m 56 0 l 56 68 q 235 251 171 183 q 361 395 300 319 q 447 527 422 471 q 472 636 472 583 q 429 763 472 715 q 304 810 386 810 q 115 703 207 810 l 50 768 q 318 903 174 903 q 512 831 440 903 q 583 642 583 760 q 498 408 583 528 q 222 90 413 289 q 371 99 319 99 l 628 99 l 628 0 l 56 0 z "},"3":{"ha":690,"x_min":36,"x_max":619,"o":"m 328 -17 q 36 108 150 -17 l 94 183 q 321 78 194 78 q 453 122 401 78 q 504 240 504 167 q 221 417 504 417 l 221 504 q 472 669 472 504 q 431 772 472 735 q 319 810 390 810 q 131 719 221 810 l 69 792 q 324 903 188 903 q 515 843 442 903 q 589 678 589 783 q 428 467 589 528 l 428 461 q 566 383 513 442 q 619 236 619 324 q 536 52 619 121 q 328 -17 453 -17 z "},"4":{"ha":690,"x_min":24,"x_max":651,"o":"m 144 336 l 422 336 l 422 593 q 429 764 422 646 l 424 764 q 351 639 421 758 l 144 336 m 651 336 l 651 244 l 531 244 l 531 0 l 422 0 l 422 244 l 24 244 l 24 319 l 403 886 l 531 886 l 531 336 l 651 336 z "},"5":{"ha":690,"x_min":35,"x_max":624,"o":"m 325 -17 q 35 104 156 -17 l 90 179 q 314 78 192 78 q 453 134 397 78 q 508 281 508 190 q 457 423 508 371 q 319 475 406 475 q 168 421 250 475 l 107 460 l 136 886 l 579 886 l 579 788 l 236 788 l 213 525 q 349 561 281 561 q 547 491 469 561 q 624 283 624 421 q 535 65 624 146 q 325 -17 447 -17 z "},"6":{"ha":690,"x_min":67,"x_max":635,"o":"m 372 74 q 483 128 439 74 q 526 268 526 182 q 485 406 526 357 q 363 456 443 456 q 178 339 261 456 q 238 142 189 210 q 372 74 288 74 m 618 808 l 554 738 q 408 807 496 807 q 243 717 307 807 q 175 431 179 628 q 272 512 217 482 q 382 542 328 542 q 567 472 500 542 q 635 268 635 401 q 558 63 635 143 q 372 -17 482 -17 q 151 94 236 -17 q 67 410 67 204 q 163 781 67 660 q 404 903 258 903 q 618 808 531 903 z "},"7":{"ha":690,"x_min":61,"x_max":632,"o":"m 246 0 q 315 429 257 251 q 503 788 372 607 l 61 788 l 61 886 l 632 886 l 632 815 q 429 451 482 624 q 364 0 376 278 l 246 0 z "},"8":{"ha":690,"x_min":57,"x_max":633,"o":"m 347 -17 q 140 52 222 -17 q 57 226 57 121 q 224 465 57 376 l 224 471 q 100 675 100 557 q 172 840 100 776 q 351 903 243 903 q 533 837 465 903 q 601 667 601 771 q 565 547 601 603 q 479 453 528 490 l 479 447 q 592 353 550 406 q 633 219 633 301 q 553 51 633 118 q 347 -17 474 -17 m 410 483 q 503 661 503 565 q 461 774 503 729 q 349 818 419 818 q 246 778 286 818 q 206 675 206 739 q 258 563 206 604 q 410 483 310 522 m 350 68 q 475 111 426 68 q 524 224 524 154 q 509 285 524 257 q 478 330 494 313 q 422 369 463 347 q 360 399 381 390 q 283 431 339 408 q 160 238 160 349 q 214 116 160 164 q 350 68 268 68 z "},"9":{"ha":690,"x_min":56,"x_max":622,"o":"m 326 431 q 513 549 429 431 q 317 813 489 813 q 207 758 251 813 q 163 618 163 704 q 204 480 163 529 q 326 431 246 431 m 71 76 l 135 149 q 281 78 194 78 q 448 168 383 78 q 515 458 513 258 q 418 375 474 406 q 307 344 363 344 q 123 415 190 344 q 56 618 56 485 q 132 823 56 743 q 317 903 208 903 q 538 793 453 903 q 622 476 622 683 q 526 105 622 226 q 285 -17 431 -17 q 71 76 157 -17 z "}," ":{"ha":278,"x_min":0,"x_max":0,"o":""},"!":{"ha":401,"x_min":118,"x_max":283,"o":"m 161 275 l 146 800 l 143 931 l 258 931 l 256 800 l 240 275 l 161 275 m 201 -17 q 142 8 167 -17 q 118 69 118 32 q 142 133 118 108 q 201 158 167 158 q 260 133 236 158 q 283 69 283 108 q 259 8 283 32 q 201 -17 235 -17 z "},"\"":{"ha":592,"x_min":111,"x_max":479,"o":"m 138 599 l 115 831 l 111 958 l 233 958 l 229 831 l 207 599 l 138 599 m 383 599 l 361 831 l 357 958 l 479 958 l 475 831 l 453 599 l 383 599 z "},"#":{"ha":690,"x_min":49,"x_max":649,"o":"m 125 0 l 160 283 l 49 283 l 49 363 l 169 363 l 194 568 l 76 568 l 76 649 l 204 649 l 236 903 l 310 903 l 278 649 l 463 649 l 496 903 l 569 903 l 536 649 l 649 649 l 649 568 l 528 568 l 503 363 l 621 363 l 621 283 l 493 283 l 458 0 l 385 0 l 418 283 l 235 283 l 200 0 l 125 0 m 244 363 l 428 363 l 453 568 l 269 568 l 244 363 z "},"$":{"ha":690,"x_min":72,"x_max":607,"o":"m 589 796 l 528 728 q 448 788 485 769 q 358 807 411 807 q 257 771 294 807 q 219 674 219 735 q 241 602 219 633 q 297 549 263 571 q 372 508 331 528 q 455 465 414 489 q 530 413 496 442 q 585 337 564 383 q 607 229 607 290 q 549 66 607 131 q 392 -12 490 1 l 392 -153 l 308 -153 l 308 -15 q 72 92 174 -3 l 125 171 q 340 78 233 78 q 455 116 415 78 q 494 221 494 154 q 466 313 494 274 q 394 376 438 353 q 301 428 351 400 q 207 482 250 456 q 135 556 164 508 q 107 668 107 604 q 162 822 107 760 q 308 900 217 885 l 308 1039 l 392 1039 l 392 901 q 589 796 500 889 z "},"%":{"ha":1144,"x_min":49,"x_max":1097,"o":"m 406 429 q 378 391 406 429 q 256 353 350 353 q 105 429 161 353 q 49 642 49 506 q 105 852 49 776 q 256 928 161 928 q 406 852 350 928 q 463 642 463 776 q 406 429 463 506 m 256 424 q 342 480 310 424 q 375 642 375 536 q 343 802 375 747 q 256 857 311 857 q 167 802 200 857 q 135 642 135 747 q 167 480 135 536 q 256 424 200 424 m 1041 60 q 1013 22 1041 60 q 890 -17 985 -17 q 740 60 796 -17 q 683 272 683 136 q 740 483 683 407 q 890 558 796 558 q 1041 483 985 558 q 1097 272 1097 407 q 1041 60 1097 136 m 890 54 q 977 110 944 54 q 1010 272 1010 167 q 978 433 1010 378 q 890 488 946 488 q 802 433 835 488 q 769 272 769 378 q 802 110 769 167 q 890 54 835 54 m 282 -17 l 785 928 l 863 928 l 360 -17 l 282 -17 z "},"&":{"ha":846,"x_min":44,"x_max":825,"o":"m 156 243 q 207 122 156 168 q 335 75 258 75 q 508 149 424 75 q 269 419 365 274 q 156 243 156 328 m 263 714 q 306 554 263 644 q 422 649 382 606 q 461 746 461 692 q 440 817 461 789 q 375 846 418 846 q 294 808 325 846 q 263 714 263 771 m 825 78 l 794 -17 q 585 88 693 13 q 322 -17 469 -17 q 122 54 199 -17 q 44 236 44 125 q 92 380 44 319 q 224 499 140 440 q 164 713 164 618 q 223 866 164 804 q 375 928 282 928 q 506 878 458 928 q 554 747 554 829 q 538 667 554 704 q 488 594 522 629 q 426 536 453 558 q 349 478 399 514 q 579 222 435 343 q 707 492 667 340 l 814 492 q 654 165 756 300 q 825 78 751 99 z "},"'":{"ha":346,"x_min":111,"x_max":233,"o":"m 138 599 l 115 831 l 111 958 l 233 958 l 229 831 l 207 599 l 138 599 z "},"(":{"ha":421,"x_min":114,"x_max":368,"o":"m 297 -244 q 114 386 114 51 q 297 1017 114 721 l 368 983 q 208 386 208 719 q 368 -211 208 53 l 297 -244 z "},")":{"ha":421,"x_min":53,"x_max":307,"o":"m 124 -244 l 53 -211 q 213 386 213 53 q 53 983 213 719 l 124 1017 q 307 386 307 721 q 124 -244 307 51 z "},"*":{"ha":581,"x_min":81,"x_max":500,"o":"m 192 583 l 136 624 l 215 754 l 81 810 l 101 874 l 243 839 l 256 989 l 324 989 l 336 840 l 479 874 l 500 810 l 365 754 l 443 624 l 389 583 l 290 703 l 192 583 z "},"+":{"ha":690,"x_min":47,"x_max":643,"o":"m 300 144 l 300 415 l 47 415 l 47 501 l 300 501 l 300 772 l 390 772 l 390 501 l 643 501 l 643 415 l 390 415 l 390 144 l 300 144 z "},",":{"ha":346,"x_min":65,"x_max":275,"o":"m 93 -236 l 65 -169 q 190 0 190 -114 q 176 -1 186 -1 q 118 19 142 -1 q 94 78 94 40 q 119 136 94 114 q 179 158 143 158 q 249 122 224 158 q 275 24 275 86 q 227 -133 275 -65 q 93 -236 179 -200 z "},"-":{"ha":432,"x_min":57,"x_max":376,"o":"m 57 304 l 57 392 l 376 392 l 376 304 l 57 304 z "},".":{"ha":346,"x_min":90,"x_max":256,"o":"m 174 -17 q 115 8 139 -17 q 90 69 90 32 q 115 133 90 108 q 174 158 139 158 q 232 133 208 158 q 256 69 256 108 q 231 8 256 32 q 174 -17 207 -17 z "},"/":{"ha":486,"x_min":14,"x_max":468,"o":"m 14 -222 l 385 986 l 468 986 l 97 -222 l 14 -222 z "},":":{"ha":346,"x_min":90,"x_max":256,"o":"m 174 485 q 115 509 139 485 q 90 571 90 533 q 115 635 90 610 q 174 660 139 660 q 232 635 208 660 q 256 571 256 610 q 231 509 256 533 q 174 485 207 485 m 174 -17 q 115 8 139 -17 q 90 69 90 32 q 115 133 90 108 q 174 158 139 158 q 232 133 208 158 q 256 69 256 108 q 231 8 256 32 q 174 -17 207 -17 z "},";":{"ha":346,"x_min":65,"x_max":275,"o":"m 174 485 q 115 509 139 485 q 90 571 90 533 q 115 635 90 610 q 174 660 139 660 q 232 635 208 660 q 256 571 256 610 q 231 509 256 533 q 174 485 207 485 m 93 -236 l 65 -169 q 190 0 190 -114 q 176 -1 186 -1 q 118 19 142 -1 q 94 78 94 40 q 119 136 94 114 q 179 158 143 158 q 249 122 224 158 q 275 24 275 86 q 227 -133 275 -65 q 93 -236 179 -200 z "},"<":{"ha":690,"x_min":47,"x_max":643,"o":"m 643 182 l 47 415 l 47 507 l 643 740 l 643 642 l 350 533 l 164 464 l 164 458 l 350 389 l 643 281 l 643 182 z "},"=":{"ha":690,"x_min":47,"x_max":643,"o":"m 47 564 l 47 650 l 643 650 l 643 564 l 47 564 m 47 267 l 47 353 l 643 353 l 643 267 l 47 267 z "},">":{"ha":690,"x_min":47,"x_max":643,"o":"m 47 182 l 47 281 l 340 389 l 526 458 l 526 464 l 340 533 l 47 642 l 47 740 l 643 507 l 643 415 l 47 182 z "},"?":{"ha":590,"x_min":53,"x_max":524,"o":"m 222 275 q 230 389 214 335 q 276 483 246 443 q 336 560 306 524 q 390 637 367 596 q 413 718 413 678 q 377 815 413 776 q 278 853 342 853 q 118 772 188 853 l 53 832 q 292 947 154 947 q 460 888 397 947 q 524 725 524 828 q 501 628 524 675 q 446 543 478 581 q 383 467 414 506 q 335 378 353 428 q 322 275 317 329 l 222 275 m 334 8 q 322 -5 334 8 q 275 -17 310 -17 q 217 8 240 -17 q 193 69 193 32 q 217 133 193 108 q 275 158 240 158 q 334 133 310 158 q 358 69 358 108 q 334 8 358 32 z "},"@":{"ha":1176,"x_min":71,"x_max":1106,"o":"m 560 -215 q 209 -84 347 -215 q 71 282 71 47 q 240 726 71 554 q 650 897 410 897 q 982 771 858 897 q 1106 438 1106 644 q 1019 167 1106 267 q 828 68 933 68 q 731 95 769 68 q 685 174 692 122 l 682 174 q 513 79 601 79 q 392 131 439 79 q 346 275 346 183 q 422 496 346 394 q 613 597 497 597 q 724 531 688 597 l 726 531 l 742 586 l 818 586 l 764 308 q 839 146 722 146 q 967 226 910 146 q 1025 433 1025 306 q 925 714 1025 607 q 640 821 825 821 q 300 671 446 821 q 154 286 154 521 q 270 -26 154 88 q 568 -139 386 -139 q 793 -76 685 -139 l 824 -144 q 560 -215 706 -215 m 535 157 q 663 239 594 157 l 703 460 q 614 518 667 518 q 487 443 536 518 q 438 282 438 368 q 464 188 438 218 q 535 157 490 157 z "},"A":{"ha":756,"x_min":4,"x_max":751,"o":"m 239 371 l 513 371 l 469 510 q 378 817 426 640 l 372 817 q 282 510 329 654 l 239 371 m 628 0 l 542 278 l 210 278 l 122 0 l 4 0 l 313 911 l 443 911 l 751 0 l 628 0 z "},"B":{"ha":817,"x_min":125,"x_max":761,"o":"m 125 0 l 125 911 l 396 911 q 708 689 708 911 q 673 565 708 619 q 575 490 638 511 l 575 485 q 711 413 661 468 q 761 267 761 357 q 667 68 761 136 q 415 0 574 0 l 125 0 m 240 524 l 375 524 q 594 674 594 524 q 542 785 594 751 q 381 819 489 819 l 240 819 l 240 524 m 240 92 l 399 92 q 647 271 647 92 q 399 435 647 435 l 240 435 l 240 92 z "},"C":{"ha":793,"x_min":72,"x_max":749,"o":"m 469 -17 q 183 110 294 -17 q 72 456 72 238 q 185 799 72 671 q 476 928 299 928 q 726 815 626 928 l 664 740 q 478 826 582 826 q 270 727 349 826 q 192 458 192 628 q 268 185 192 286 q 474 85 344 85 q 685 188 590 85 l 749 115 q 469 -17 635 -17 z "},"D":{"ha":854,"x_min":125,"x_max":783,"o":"m 125 0 l 125 911 l 353 911 q 673 794 563 911 q 783 460 783 678 q 674 120 783 240 q 358 0 564 0 l 125 0 m 240 94 l 344 94 q 583 190 501 94 q 664 460 664 285 q 583 725 664 633 q 344 817 503 817 l 240 817 l 240 94 z "},"E":{"ha":732,"x_min":125,"x_max":664,"o":"m 125 0 l 125 911 l 650 911 l 650 814 l 240 814 l 240 528 l 586 528 l 586 429 l 240 429 l 240 99 l 664 99 l 664 0 l 125 0 z "},"F":{"ha":686,"x_min":125,"x_max":650,"o":"m 125 0 l 125 911 l 650 911 l 650 814 l 240 814 l 240 506 l 588 506 l 588 408 l 240 408 l 240 0 l 125 0 z "},"G":{"ha":857,"x_min":72,"x_max":764,"o":"m 483 -17 q 186 110 300 -17 q 72 456 72 236 q 189 800 72 672 q 490 928 306 928 q 753 815 646 928 l 689 740 q 493 826 606 826 q 274 727 356 826 q 192 458 192 628 q 271 185 192 285 q 494 85 350 85 q 658 139 600 85 l 658 376 l 465 376 l 465 472 l 764 472 l 764 89 q 483 -17 663 -17 z "},"H":{"ha":906,"x_min":125,"x_max":781,"o":"m 125 0 l 125 911 l 240 911 l 240 529 l 664 529 l 664 911 l 781 911 l 781 0 l 664 0 l 664 429 l 240 429 l 240 0 l 125 0 z "},"I":{"ha":365,"x_min":125,"x_max":240,"o":"m 125 0 l 125 911 l 240 911 l 240 0 l 125 0 z "},"J":{"ha":667,"x_min":43,"x_max":546,"o":"m 294 -17 q 43 129 124 -17 l 126 188 q 283 85 183 85 q 393 131 357 85 q 429 279 429 176 l 429 911 l 546 911 l 546 268 q 483 63 546 142 q 294 -17 421 -17 z "},"K":{"ha":804,"x_min":125,"x_max":799,"o":"m 125 0 l 125 911 l 240 911 l 240 454 l 244 454 l 624 911 l 754 911 l 469 564 l 799 0 l 669 0 l 397 474 l 240 289 l 240 0 l 125 0 z "},"L":{"ha":675,"x_min":125,"x_max":639,"o":"m 125 0 l 125 911 l 240 911 l 240 99 l 639 99 l 639 0 l 125 0 z "},"M":{"ha":1010,"x_min":125,"x_max":885,"o":"m 125 0 l 125 911 l 264 911 l 439 425 q 472 330 450 393 q 504 235 493 267 l 510 235 q 541 330 521 267 q 572 425 561 393 l 744 911 l 885 911 l 885 0 l 776 0 l 776 501 q 792 771 776 550 l 786 771 l 714 564 l 542 92 l 465 92 l 293 564 l 221 771 l 215 771 q 229 501 229 569 l 229 0 l 125 0 z "},"N":{"ha":899,"x_min":125,"x_max":774,"o":"m 125 0 l 125 911 l 244 911 l 574 339 l 672 150 l 678 150 q 664 440 664 379 l 664 911 l 774 911 l 774 0 l 654 0 l 324 574 l 225 761 l 219 761 q 235 476 235 560 l 235 0 l 125 0 z "},"O":{"ha":922,"x_min":72,"x_max":851,"o":"m 743 113 q 689 48 743 113 q 461 -17 635 -17 q 180 113 288 -17 q 72 460 72 242 q 180 801 72 675 q 461 928 288 928 q 743 801 635 928 q 851 460 851 675 q 743 113 851 242 m 265 187 q 302 136 265 187 q 461 85 339 85 q 657 187 583 85 q 731 460 731 289 q 657 728 731 629 q 461 826 583 826 q 265 728 339 826 q 192 460 192 629 q 265 187 192 289 z "},"P":{"ha":786,"x_min":125,"x_max":726,"o":"m 125 0 l 125 911 l 385 911 q 726 643 726 911 q 636 433 726 504 q 390 361 546 361 l 240 361 l 240 0 l 125 0 m 240 456 l 376 456 q 553 501 496 456 q 611 643 611 547 q 553 778 611 739 q 371 818 494 818 l 240 818 l 240 456 z "},"Q":{"ha":922,"x_min":72,"x_max":871,"o":"m 192 460 q 265 182 192 285 q 461 79 339 79 q 657 182 583 79 q 731 460 731 285 q 657 728 731 629 q 461 826 583 826 q 265 728 339 826 q 192 460 192 629 m 849 -119 l 871 -208 q 740 -229 818 -229 q 533 -170 619 -229 q 404 -12 446 -111 q 163 135 253 8 q 72 460 72 261 q 180 801 72 675 q 461 928 288 928 q 743 801 635 928 q 851 460 851 675 q 764 140 851 265 q 529 -11 676 14 q 753 -132 592 -132 q 849 -119 804 -132 z "},"R":{"ha":790,"x_min":125,"x_max":756,"o":"m 240 818 l 240 479 l 393 479 q 614 656 614 479 q 558 780 614 742 q 393 818 503 818 l 240 818 m 756 0 l 625 0 l 406 385 l 240 385 l 240 0 l 125 0 l 125 911 l 410 911 q 729 656 729 911 q 675 487 729 553 q 525 397 621 421 l 756 0 z "},"S":{"ha":742,"x_min":58,"x_max":688,"o":"m 378 -17 q 58 118 189 -17 l 128 199 q 379 85 238 85 q 519 125 468 85 q 569 233 569 165 q 560 291 569 267 q 524 335 550 315 q 479 365 499 354 q 418 394 460 375 l 288 451 q 103 686 103 529 q 184 859 103 790 q 389 928 265 928 q 658 815 549 928 l 596 740 q 389 826 506 826 q 266 790 313 826 q 219 693 219 754 q 231 638 219 663 q 269 595 243 614 q 315 567 296 576 q 371 542 335 557 l 500 486 q 639 392 590 447 q 688 243 688 336 q 603 58 688 132 q 378 -17 518 -17 z "},"T":{"ha":744,"x_min":39,"x_max":706,"o":"m 314 0 l 314 814 l 39 814 l 39 911 l 706 911 l 706 814 l 431 814 l 431 0 l 314 0 z "},"U":{"ha":896,"x_min":121,"x_max":775,"o":"m 449 -17 q 209 76 297 -17 q 121 376 121 169 l 121 911 l 236 911 l 236 374 q 449 85 236 85 q 664 374 664 85 l 664 911 l 775 911 l 775 376 q 449 -17 775 -17 z "},"V":{"ha":715,"x_min":0,"x_max":715,"o":"m 292 0 l 0 911 l 124 911 l 269 419 q 311 276 283 375 q 358 118 339 176 l 364 118 q 413 282 383 179 q 451 419 442 385 l 597 911 l 715 911 l 426 0 l 292 0 z "},"W":{"ha":1092,"x_min":32,"x_max":1058,"o":"m 225 0 l 32 911 l 151 911 l 247 415 q 274 268 256 365 q 300 121 292 171 l 306 121 q 339 275 317 175 q 369 415 361 375 l 496 911 l 601 911 l 728 415 q 794 121 739 367 l 800 121 q 851 415 833 318 l 947 911 l 1058 911 l 869 0 l 731 0 l 593 549 q 549 756 569 647 l 543 756 q 519 644 535 715 q 497 549 503 572 l 363 0 l 225 0 z "},"X":{"ha":713,"x_min":21,"x_max":692,"o":"m 21 0 l 286 471 l 39 911 l 167 911 l 290 678 q 361 546 310 643 l 367 546 q 432 678 407 631 l 553 911 l 675 911 l 426 465 l 692 0 l 564 0 l 431 246 q 397 309 424 258 q 353 392 369 360 l 347 392 q 275 246 333 364 l 143 0 l 21 0 z "},"Y":{"ha":661,"x_min":-1,"x_max":663,"o":"m 272 0 l 272 353 l -1 911 l 122 911 l 240 654 q 328 456 304 508 l 333 456 q 425 654 413 625 l 542 911 l 663 911 l 389 353 l 389 0 l 272 0 z "},"Z":{"ha":749,"x_min":63,"x_max":690,"o":"m 63 0 l 63 69 l 542 814 l 106 814 l 106 911 l 686 911 l 686 843 l 206 99 l 690 99 l 690 0 l 63 0 z "},"[":{"ha":421,"x_min":131,"x_max":379,"o":"m 131 -211 l 131 983 l 379 983 l 379 918 l 217 918 l 217 -146 l 379 -146 l 379 -211 l 131 -211 z "},"\\":{"ha":486,"x_min":19,"x_max":472,"o":"m 390 -222 l 19 986 l 101 986 l 472 -222 l 390 -222 z "},"]":{"ha":421,"x_min":43,"x_max":290,"o":"m 43 -211 l 43 -146 l 204 -146 l 204 918 l 43 918 l 43 983 l 290 983 l 290 -211 l 43 -211 z "},"^":{"ha":690,"x_min":83,"x_max":607,"o":"m 83 394 l 294 931 l 396 931 l 607 394 l 507 394 l 417 639 l 349 824 l 343 824 l 274 639 l 183 394 l 83 394 z "},"_":{"ha":694,"x_min":17,"x_max":678,"o":"m 17 -175 l 17 -99 l 678 -99 l 678 -175 l 17 -175 z "},"`":{"ha":753,"x_min":197,"x_max":463,"o":"m 361 796 l 197 1019 l 332 1019 l 463 796 l 361 796 z "},"a":{"ha":700,"x_min":72,"x_max":601,"o":"m 269 -17 q 128 35 183 -17 q 72 175 72 86 q 171 344 72 285 q 486 428 269 404 q 347 597 486 597 q 146 525 251 597 l 101 604 q 367 692 238 692 q 544 619 486 692 q 601 414 601 546 l 601 0 l 507 0 l 497 81 l 493 81 q 269 -17 375 -17 m 303 75 q 486 165 385 75 l 486 353 q 253 291 322 332 q 183 183 183 250 q 217 102 183 129 q 303 75 250 75 z "},"b":{"ha":768,"x_min":114,"x_max":704,"o":"m 413 -17 q 219 69 314 -17 l 215 69 l 206 0 l 114 0 l 114 989 l 228 989 l 228 719 l 225 597 q 436 692 332 692 q 635 600 565 692 q 704 349 704 508 q 619 83 704 182 q 413 -17 533 -17 m 393 79 q 532 152 478 79 q 586 347 586 225 q 408 596 586 596 q 228 504 326 596 l 228 150 q 393 79 310 79 z "},"c":{"ha":633,"x_min":64,"x_max":599,"o":"m 381 -17 q 153 78 242 -17 q 64 336 64 172 q 158 596 64 500 q 389 692 253 692 q 586 613 499 692 l 528 538 q 393 597 461 597 q 242 524 301 597 q 182 336 182 451 q 240 149 182 221 q 390 78 297 78 q 549 146 474 78 l 599 69 q 381 -17 501 -17 z "},"d":{"ha":771,"x_min":65,"x_max":657,"o":"m 344 -17 q 140 76 215 -17 q 65 336 65 169 q 151 594 65 496 q 358 692 238 692 q 547 614 451 692 l 542 729 l 542 989 l 657 989 l 657 0 l 563 0 l 553 79 l 549 79 q 344 -17 450 -17 m 369 79 q 542 172 458 79 l 542 525 q 378 596 463 596 q 240 524 296 596 q 183 338 183 451 q 233 148 183 217 q 369 79 282 79 z "},"e":{"ha":689,"x_min":64,"x_max":636,"o":"m 388 -17 q 156 79 249 -17 q 64 336 64 175 q 154 593 64 494 q 367 692 244 692 q 565 606 494 692 q 636 375 636 521 q 632 310 636 335 l 176 310 q 244 139 183 203 q 401 75 304 75 q 569 128 488 75 l 610 53 q 388 -17 501 -17 m 175 392 l 536 392 q 492 547 536 493 q 369 601 449 601 q 240 545 296 601 q 175 392 185 489 z "},"f":{"ha":406,"x_min":42,"x_max":443,"o":"m 443 983 l 418 896 q 342 913 381 913 q 247 782 247 913 l 247 675 l 390 675 l 390 582 l 247 582 l 247 0 l 133 0 l 133 582 l 42 582 l 42 668 l 133 675 l 133 782 q 183 947 133 888 q 331 1006 232 1006 q 443 983 389 1006 z "},"g":{"ha":700,"x_min":63,"x_max":683,"o":"m 342 -311 q 139 -263 215 -311 q 63 -129 63 -215 q 161 24 63 -43 l 161 29 q 101 139 101 67 q 175 264 101 214 l 175 269 q 88 451 88 340 q 161 625 88 558 q 342 692 235 692 q 438 675 394 692 l 672 675 l 672 588 l 533 588 q 589 449 589 535 q 518 278 589 343 q 342 214 447 214 q 240 238 288 214 q 197 157 197 200 q 317 83 197 83 l 447 83 q 625 44 567 83 q 683 -78 683 6 q 589 -243 683 -175 q 342 -311 494 -311 m 240 335 q 261 313 240 335 q 342 290 282 290 q 443 335 401 290 q 485 451 485 379 q 444 566 485 524 q 342 608 403 608 q 240 566 281 608 q 199 451 199 524 q 240 335 199 379 m 358 -232 q 512 -191 451 -232 q 572 -94 572 -150 q 538 -30 572 -49 q 436 -11 504 -11 l 319 -11 q 232 0 271 -11 q 163 -114 163 -50 q 215 -200 163 -168 q 358 -232 267 -232 z "},"h":{"ha":756,"x_min":114,"x_max":654,"o":"m 114 0 l 114 989 l 228 989 l 228 719 l 224 581 q 449 692 340 692 q 654 428 654 692 l 654 0 l 540 0 l 540 413 q 510 550 540 507 q 413 593 479 593 q 324 569 364 593 q 228 489 283 544 l 228 0 l 114 0 z "},"i":{"ha":342,"x_min":93,"x_max":251,"o":"m 114 0 l 114 675 l 228 675 l 228 0 l 114 0 m 228 835 q 217 824 228 835 q 172 814 206 814 q 116 835 139 814 q 93 888 93 856 q 116 941 93 921 q 172 961 139 961 q 228 941 206 961 q 251 888 251 921 q 228 835 251 856 z "},"j":{"ha":343,"x_min":-56,"x_max":251,"o":"m 44 -301 q -56 -283 -11 -301 l -32 -197 q 32 -208 1 -208 q 97 -176 79 -208 q 115 -76 115 -143 l 115 675 l 229 675 l 229 -76 q 44 -301 229 -301 m 229 835 q 218 824 229 835 q 174 814 207 814 q 117 835 140 814 q 94 888 94 856 q 117 941 94 921 q 174 961 140 961 q 229 941 207 961 q 251 888 251 921 q 229 835 251 856 z "},"k":{"ha":688,"x_min":114,"x_max":675,"o":"m 114 0 l 114 989 l 226 989 l 226 319 l 231 319 l 518 675 l 644 675 l 418 404 l 675 0 l 550 0 l 353 325 l 226 178 l 226 0 l 114 0 z "},"l":{"ha":354,"x_min":114,"x_max":300,"o":"m 235 -17 q 114 136 114 -17 l 114 989 l 228 989 l 228 128 q 260 78 228 78 q 285 81 272 78 l 300 -6 q 235 -17 275 -17 z "},"m":{"ha":1151,"x_min":114,"x_max":1046,"o":"m 114 0 l 114 675 l 208 675 l 218 578 l 222 578 q 432 692 326 692 q 618 563 574 692 q 840 692 738 692 q 1046 428 1046 692 l 1046 0 l 932 0 l 932 413 q 901 550 932 507 q 807 593 871 593 q 638 489 731 593 l 638 0 l 524 0 l 524 413 q 493 550 524 507 q 397 593 463 593 q 228 489 322 593 l 228 0 l 114 0 z "},"n":{"ha":760,"x_min":114,"x_max":654,"o":"m 114 0 l 114 675 l 208 675 l 218 578 l 222 578 q 449 692 336 692 q 654 428 654 692 l 654 0 l 540 0 l 540 413 q 510 550 540 507 q 413 593 479 593 q 324 569 364 593 q 228 489 283 544 l 228 0 l 114 0 z "},"o":{"ha":753,"x_min":64,"x_max":689,"o":"m 598 79 q 552 31 598 79 q 376 -17 507 -17 q 155 79 246 -17 q 64 336 64 175 q 155 596 64 500 q 376 692 246 692 q 598 596 507 692 q 689 336 689 500 q 598 79 689 175 m 376 78 q 517 149 464 78 q 571 336 571 221 q 517 525 571 453 q 376 597 464 597 q 236 525 290 597 q 182 336 182 453 q 236 149 182 221 q 376 78 290 78 z "},"p":{"ha":771,"x_min":114,"x_max":704,"o":"m 114 -285 l 114 675 l 208 675 l 218 597 l 222 597 q 438 692 335 692 q 635 599 565 692 q 704 347 704 507 q 619 83 704 182 q 413 -17 533 -17 q 225 61 325 -17 l 228 -57 l 228 -285 l 114 -285 m 393 79 q 532 152 478 79 q 586 347 586 225 q 408 596 586 596 q 228 504 331 596 l 228 150 q 393 79 313 79 z "},"q":{"ha":771,"x_min":65,"x_max":657,"o":"m 542 -285 l 542 -44 l 547 78 q 344 -17 450 -17 q 140 76 215 -17 q 65 336 65 169 q 151 594 65 496 q 358 692 238 692 q 551 611 458 692 l 554 611 l 565 675 l 657 675 l 657 -285 l 542 -285 m 369 79 q 542 172 458 79 l 542 525 q 378 596 463 596 q 240 524 296 596 q 183 338 183 451 q 233 148 183 217 q 369 79 282 79 z "},"r":{"ha":482,"x_min":114,"x_max":486,"o":"m 114 0 l 114 675 l 208 675 l 218 553 l 222 553 q 307 655 257 618 q 414 692 357 692 q 486 678 454 692 l 464 578 q 399 589 428 589 q 306 551 351 589 q 228 433 260 514 l 228 0 l 114 0 z "},"s":{"ha":582,"x_min":39,"x_max":538,"o":"m 290 -17 q 39 76 151 -17 l 96 153 q 294 72 196 72 q 393 102 358 72 q 428 178 428 132 q 415 222 428 203 q 376 258 403 242 q 331 283 350 274 q 274 306 311 292 q 200 335 229 321 q 138 372 171 349 q 89 428 106 396 q 72 500 72 460 q 135 638 72 583 q 304 692 197 692 q 514 615 419 692 l 460 543 q 306 603 381 603 q 214 575 246 603 q 182 506 182 547 q 205 455 182 478 q 248 422 228 432 q 318 394 268 413 q 332 389 328 390 q 392 365 371 374 q 445 338 413 357 q 494 301 478 319 q 524 252 511 282 q 538 185 538 222 q 472 41 538 99 q 290 -17 406 -17 z "},"t":{"ha":469,"x_min":33,"x_max":451,"o":"m 326 -17 q 133 208 133 -17 l 133 582 l 33 582 l 33 668 l 139 675 l 153 864 l 249 864 l 249 675 l 431 675 l 431 582 l 249 582 l 249 207 q 272 109 249 142 q 353 76 296 76 q 429 94 381 76 l 451 8 q 326 -17 376 -17 z "},"u":{"ha":756,"x_min":104,"x_max":642,"o":"m 311 -17 q 104 247 104 -17 l 104 675 l 219 675 l 219 263 q 249 125 219 168 q 346 82 279 82 q 438 108 397 82 q 528 196 478 135 l 528 675 l 642 675 l 642 0 l 547 0 l 538 106 l 533 106 q 311 -17 429 -17 z "},"v":{"ha":649,"x_min":17,"x_max":632,"o":"m 260 0 l 17 675 l 135 675 l 263 292 q 325 93 282 226 l 331 93 q 358 182 336 111 q 392 292 381 253 l 519 675 l 632 675 l 393 0 l 260 0 z "},"w":{"ha":997,"x_min":33,"x_max":964,"o":"m 221 0 l 33 675 l 150 675 l 250 285 q 290 97 267 214 l 296 97 q 310 156 301 118 q 327 226 319 194 q 342 285 335 257 l 446 675 l 557 675 l 663 285 q 710 97 685 200 l 715 97 q 757 285 724 131 l 856 675 l 964 675 l 783 0 l 644 0 l 547 363 q 523 464 538 399 q 501 557 508 529 l 496 557 q 449 361 464 417 l 354 0 l 221 0 z "},"x":{"ha":619,"x_min":19,"x_max":600,"o":"m 19 0 l 240 353 l 36 675 l 160 675 l 250 526 q 317 414 296 447 l 322 414 q 383 526 356 479 l 465 675 l 585 675 l 381 340 l 600 0 l 476 0 l 378 157 q 304 278 336 229 l 299 278 q 231 157 269 229 l 139 0 l 19 0 z "},"y":{"ha":649,"x_min":17,"x_max":632,"o":"m 125 -290 q 46 -276 83 -290 l 68 -186 q 119 -196 100 -196 q 272 -51 224 -196 l 288 -1 l 17 675 l 135 675 l 272 301 q 338 111 300 224 l 343 111 q 375 217 354 147 q 400 301 396 286 l 521 675 l 632 675 l 378 -56 q 280 -228 339 -167 q 125 -290 221 -290 z "},"z":{"ha":590,"x_min":43,"x_max":554,"o":"m 43 0 l 43 61 l 399 582 l 82 582 l 82 675 l 543 675 l 543 614 l 188 93 l 554 93 l 554 0 l 43 0 z "},"{":{"ha":421,"x_min":47,"x_max":379,"o":"m 317 -211 q 192 -171 231 -211 q 154 -26 154 -131 q 160 110 154 25 q 167 242 167 196 q 47 350 167 349 l 47 422 q 167 529 167 424 q 160 661 167 575 q 154 799 154 747 q 192 943 154 903 q 317 983 231 983 l 379 983 l 379 918 l 342 918 q 267 890 288 918 q 247 792 247 861 q 251 669 247 750 q 256 540 256 589 q 236 437 256 472 q 172 389 217 401 l 172 383 q 236 335 217 371 q 256 232 256 299 q 251 103 256 183 q 247 -19 247 22 q 267 -117 247 -89 q 342 -146 288 -146 l 379 -146 l 379 -211 l 317 -211 z "},"|":{"ha":335,"x_min":128,"x_max":208,"o":"m 128 -347 l 128 1042 l 208 1042 l 208 -347 l 128 -347 z "},"}":{"ha":421,"x_min":43,"x_max":374,"o":"m 43 -211 l 43 -146 l 79 -146 q 153 -117 133 -146 q 174 -19 174 -89 q 170 103 174 22 q 167 232 167 183 q 185 335 167 300 q 249 383 204 371 l 249 389 q 185 437 204 401 q 167 540 167 472 q 170 669 167 589 q 174 792 174 750 q 153 890 174 861 q 79 918 133 918 l 43 918 l 43 983 l 104 983 q 228 943 190 983 q 267 799 267 903 q 260 661 267 747 q 254 529 254 575 q 282 453 254 483 q 374 422 310 424 l 374 350 q 254 242 254 349 q 260 110 254 196 q 267 -26 267 25 q 228 -171 267 -131 q 104 -211 190 -211 l 43 -211 z "},"~":{"ha":690,"x_min":50,"x_max":640,"o":"m 467 357 q 375 386 419 357 q 292 444 331 415 q 221 474 253 474 q 114 389 160 474 l 50 435 q 224 560 121 560 q 315 531 271 560 q 399 472 360 501 q 469 443 438 443 q 576 528 531 443 l 640 481 q 467 357 569 357 z "}," ":{"ha":281,"x_min":0,"x_max":0,"o":""},"¡":{"ha":401,"x_min":118,"x_max":283,"o":"m 143 -256 l 146 -125 l 161 400 l 240 400 l 256 -125 l 258 -256 l 143 -256 m 260 542 q 248 529 260 542 q 201 517 236 517 q 142 542 167 517 q 118 606 118 567 q 142 667 118 643 q 201 692 167 692 q 259 667 235 692 q 283 606 283 643 q 260 542 283 567 z "},"¢":{"ha":690,"x_min":85,"x_max":631,"o":"m 364 197 l 364 663 q 243 583 288 644 q 199 431 199 522 q 242 276 199 338 q 364 197 286 215 m 581 257 l 631 185 q 436 97 542 106 l 436 -46 l 364 -46 l 364 99 q 160 201 236 114 q 85 431 85 288 q 163 656 85 569 q 364 760 242 742 l 364 907 l 436 907 l 436 764 q 618 683 538 758 l 563 611 q 436 669 501 665 l 436 192 q 581 257 514 197 z "},"£":{"ha":690,"x_min":74,"x_max":629,"o":"m 239 99 l 629 99 l 629 0 l 75 0 l 75 69 q 183 174 144 107 q 222 319 222 240 q 213 396 222 353 l 74 396 l 74 468 l 167 474 l 192 474 q 154 647 154 594 q 225 833 154 764 q 413 903 296 903 q 628 799 543 903 l 561 733 q 421 807 501 807 q 307 763 347 807 q 267 644 267 718 q 300 474 267 590 l 521 474 l 521 396 l 318 396 q 325 318 325 354 q 239 104 325 193 l 239 99 z "},"¤":{"ha":690,"x_min":36,"x_max":654,"o":"m 97 143 l 36 206 l 125 296 q 75 457 75 364 q 125 619 75 551 l 36 711 l 97 774 l 192 676 q 346 728 258 728 q 499 676 432 728 l 593 774 l 654 711 l 564 619 q 615 457 615 550 q 564 296 615 365 l 654 206 l 593 143 l 499 239 q 346 186 433 186 q 192 239 257 186 l 97 143 m 346 271 q 462 323 414 271 q 510 457 510 375 q 462 591 510 539 q 346 643 414 643 q 228 591 276 643 q 181 457 181 539 q 228 323 181 375 q 346 271 276 271 z "},"¥":{"ha":690,"x_min":32,"x_max":658,"o":"m 288 0 l 288 219 l 63 219 l 63 286 l 288 286 l 288 376 l 63 376 l 63 442 l 258 442 l 32 886 l 151 886 l 260 649 q 304 549 275 614 q 343 461 333 483 l 349 461 q 397 566 367 499 q 433 649 426 633 l 542 886 l 658 886 l 431 442 l 628 442 l 628 376 l 401 376 l 401 286 l 628 286 l 628 219 l 401 219 l 401 0 l 288 0 z "},"¦":{"ha":335,"x_min":128,"x_max":208,"o":"m 128 404 l 128 1042 l 208 1042 l 208 404 l 128 404 m 128 -347 l 128 297 l 208 297 l 208 -347 l 128 -347 z "},"§":{"ha":690,"x_min":63,"x_max":628,"o":"m 444 268 q 528 386 528 307 q 510 450 528 422 q 461 499 493 478 q 397 534 429 519 q 319 568 364 549 q 247 604 275 588 q 163 483 163 557 q 192 407 163 440 q 258 356 222 374 q 353 313 294 339 q 444 268 413 286 m 563 871 l 507 797 q 353 861 428 861 q 270 837 297 861 q 243 774 243 813 q 272 711 243 739 q 343 665 300 683 q 435 623 386 647 q 528 573 485 599 q 599 501 571 547 q 628 394 628 454 q 510 215 628 282 q 551 101 551 167 q 488 -35 551 19 q 328 -89 425 -89 q 88 10 179 -89 l 157 72 q 328 0 232 0 q 414 28 382 0 q 446 96 446 56 q 406 171 446 139 q 310 226 367 203 q 198 276 254 249 q 102 355 142 304 q 63 476 63 406 q 182 656 63 589 q 138 769 138 703 q 193 898 138 846 q 349 950 249 950 q 563 871 465 950 z "},"¨":{"ha":753,"x_min":189,"x_max":564,"o":"m 257 817 q 208 836 226 817 q 189 885 189 856 q 208 933 189 914 q 257 953 226 953 q 306 933 286 953 q 325 885 325 914 q 306 836 325 856 q 257 817 286 817 m 496 817 q 447 836 467 817 q 428 885 428 856 q 447 933 428 914 q 496 953 467 953 q 545 933 526 953 q 564 885 564 914 q 545 836 564 856 q 496 817 526 817 z "},"©":{"ha":1033,"x_min":68,"x_max":965,"o":"m 835 113 q 769 49 835 113 q 517 -15 704 -15 q 199 113 329 -15 q 68 449 68 242 q 199 781 68 654 q 517 907 329 907 q 835 781 704 907 q 965 449 965 654 q 835 113 965 242 m 244 156 q 300 100 244 156 q 517 43 356 43 q 789 156 678 43 q 900 449 900 269 q 789 738 900 626 q 517 850 678 850 q 244 738 356 850 q 133 449 133 626 q 244 156 133 269 m 528 174 q 347 248 419 174 q 275 449 275 322 q 351 638 275 565 q 532 711 426 711 q 706 632 626 711 l 657 578 q 536 635 597 635 q 414 583 461 635 q 367 449 367 531 q 412 303 367 357 q 532 250 457 250 q 674 311 603 250 l 715 253 q 528 174 624 174 z "},"ª":{"ha":479,"x_min":51,"x_max":414,"o":"m 189 358 q 90 394 128 358 q 51 490 51 431 q 117 601 51 563 q 328 654 183 640 q 242 757 325 757 q 101 710 176 757 l 69 768 q 254 828 164 828 q 414 642 414 828 l 414 369 l 344 369 l 335 421 l 329 421 q 189 358 258 358 m 214 428 q 328 483 268 428 l 328 601 q 136 497 136 579 q 214 428 136 428 z "},"«":{"ha":596,"x_min":63,"x_max":521,"o":"m 251 92 l 63 307 l 63 393 l 251 608 l 301 567 l 138 350 l 301 131 l 251 92 m 471 92 l 282 307 l 282 393 l 471 608 l 521 567 l 357 350 l 521 131 l 471 92 z "},"¬":{"ha":690,"x_min":47,"x_max":643,"o":"m 551 144 l 551 415 l 47 415 l 47 501 l 643 501 l 643 144 l 551 144 z "},"­":{"ha":432,"x_min":57,"x_max":376,"o":"m 57 304 l 57 392 l 376 392 l 376 304 l 57 304 z "},"®":{"ha":588,"x_min":32,"x_max":556,"o":"m 479 520 q 441 482 479 520 q 293 443 403 443 q 108 520 183 443 q 32 717 32 597 q 108 913 32 836 q 293 990 183 990 q 479 913 403 990 q 556 717 556 836 q 479 520 556 597 m 146 556 q 175 525 146 556 q 293 494 204 494 q 441 557 382 494 q 500 717 500 619 q 441 877 500 814 q 293 940 382 940 q 147 877 206 940 q 88 717 88 814 q 146 556 88 618 m 193 579 l 193 861 l 299 861 q 407 771 407 861 q 392 724 407 746 q 356 694 378 703 l 419 579 l 356 579 l 307 676 l 250 676 l 250 579 l 193 579 m 250 721 l 286 721 q 346 768 346 721 q 289 814 346 814 l 250 814 l 250 721 z "},"¯":{"ha":753,"x_min":201,"x_max":551,"o":"m 201 835 l 201 914 l 551 914 l 551 835 l 201 835 z "},"°":{"ha":460,"x_min":57,"x_max":404,"o":"m 353 645 q 328 620 353 645 q 231 596 303 596 q 108 645 158 596 q 57 772 57 694 q 108 902 57 853 q 231 951 158 951 q 353 902 303 951 q 404 772 404 853 q 353 645 404 694 m 156 692 q 170 676 156 692 q 231 660 185 660 q 306 692 276 660 q 335 772 335 724 q 306 856 335 824 q 231 888 276 888 q 156 856 185 888 q 126 772 126 824 q 156 692 126 724 z "},"±":{"ha":690,"x_min":47,"x_max":643,"o":"m 300 176 l 300 422 l 47 422 l 47 508 l 300 508 l 300 772 l 390 772 l 390 508 l 643 508 l 643 422 l 390 422 l 390 176 l 300 176 m 47 0 l 47 86 l 643 86 l 643 0 l 47 0 z "},"²":{"ha":510,"x_min":56,"x_max":444,"o":"m 72 611 l 72 663 q 273 858 217 792 q 329 981 329 924 q 301 1064 329 1033 q 225 1094 274 1094 q 108 1015 163 1094 l 56 1064 q 236 1169 126 1169 q 368 1124 319 1169 q 417 994 417 1078 q 404 922 417 957 q 356 843 392 888 q 298 774 321 799 q 215 688 275 749 l 444 688 l 444 611 l 72 611 z "},"³":{"ha":510,"x_min":49,"x_max":443,"o":"m 250 594 q 49 700 121 594 l 108 746 q 246 665 163 665 q 323 691 292 665 q 354 763 354 717 q 310 833 354 808 q 186 858 267 858 l 186 915 q 294 942 254 915 q 333 1013 333 969 q 306 1075 333 1051 q 235 1099 279 1099 q 125 1033 178 1099 l 71 1081 q 249 1169 149 1169 q 371 1130 321 1169 q 421 1024 421 1090 q 326 890 421 935 q 410 843 376 878 q 443 757 443 808 q 388 639 443 683 q 250 594 332 594 z "},"´":{"ha":753,"x_min":290,"x_max":556,"o":"m 290 796 l 421 1019 l 556 1019 l 392 796 l 290 796 z "},"µ":{"ha":781,"x_min":114,"x_max":743,"o":"m 114 -249 l 114 675 l 228 675 l 228 263 q 351 82 228 82 q 445 109 403 82 q 531 214 488 136 l 531 675 l 646 675 q 642 499 644 614 q 639 294 640 385 q 638 132 638 204 q 688 78 638 78 q 728 86 706 78 l 743 0 q 663 -17 710 -17 q 576 15 606 -17 q 540 114 547 46 l 538 114 q 350 -14 465 -14 q 219 51 258 -14 q 229 -249 221 -128 l 114 -249 z "},"¶":{"ha":778,"x_min":57,"x_max":644,"o":"m 528 -111 l 528 911 l 644 911 l 644 -111 l 528 -111 m 407 314 q 152 389 247 314 q 57 615 57 464 q 147 841 57 771 q 392 911 238 911 l 453 911 l 453 314 l 407 314 z "},"·":{"ha":346,"x_min":90,"x_max":256,"o":"m 174 360 q 115 384 139 360 q 90 446 90 408 q 115 510 90 485 q 174 535 139 535 q 232 510 208 535 q 256 446 256 485 q 231 384 256 408 q 174 360 207 360 z "},"¸":{"ha":753,"x_min":253,"x_max":493,"o":"m 264 -296 l 253 -239 q 371 -217 338 -233 q 404 -169 404 -201 q 380 -128 404 -143 q 297 -104 356 -112 l 358 4 l 432 4 l 392 -69 q 493 -168 493 -93 q 264 -296 493 -283 z "},"¹":{"ha":510,"x_min":121,"x_max":328,"o":"m 239 611 l 239 1039 l 121 1039 l 121 1097 q 256 1153 200 1111 l 328 1153 l 328 611 l 239 611 z "},"º":{"ha":507,"x_min":42,"x_max":464,"o":"m 403 422 q 372 390 403 422 q 253 358 342 358 q 103 422 164 358 q 42 593 42 486 q 102 765 42 701 q 253 828 163 828 q 403 765 342 828 q 464 593 464 701 q 403 422 464 486 m 163 474 q 179 452 163 474 q 253 429 196 429 q 342 474 310 429 q 375 593 375 519 q 342 713 375 668 q 253 757 310 757 q 163 713 196 757 q 129 593 129 668 q 163 474 129 519 z "},"»":{"ha":596,"x_min":75,"x_max":533,"o":"m 124 92 l 75 131 l 239 350 l 75 567 l 124 608 l 314 393 l 314 307 l 124 92 m 343 92 l 294 131 l 458 350 l 294 567 l 343 608 l 533 393 l 533 307 l 343 92 z "},"¼":{"ha":1085,"x_min":88,"x_max":1040,"o":"m 294 369 l 206 369 l 206 797 l 88 797 l 88 856 q 222 911 167 869 l 294 911 l 294 369 m 753 928 l 831 928 l 328 -17 l 250 -17 l 753 928 m 725 208 l 879 208 l 879 306 l 885 457 l 879 457 l 810 344 l 725 208 m 1040 208 l 1040 144 l 960 144 l 960 0 l 879 0 l 879 144 l 632 144 l 632 190 l 860 542 l 960 542 l 960 208 l 1040 208 z "},"½":{"ha":1122,"x_min":88,"x_max":1057,"o":"m 206 369 l 206 797 l 88 797 l 88 856 q 222 911 167 869 l 294 911 l 294 369 l 206 369 m 685 0 l 685 51 q 885 247 829 181 q 942 369 942 313 q 914 453 942 422 q 838 483 886 483 q 721 404 775 483 l 668 453 q 849 558 739 558 q 981 513 932 558 q 1029 383 1029 467 q 1017 311 1029 346 q 969 232 1004 276 q 910 163 933 188 q 828 76 888 138 l 1057 76 l 1057 0 l 685 0 m 222 -17 l 725 928 l 803 928 l 300 -17 l 222 -17 z "},"¾":{"ha":1106,"x_min":47,"x_max":1061,"o":"m 124 792 l 69 839 q 247 928 147 928 q 369 888 319 928 q 419 782 419 849 q 325 649 419 693 q 408 601 375 636 q 442 515 442 567 q 386 397 442 442 q 249 353 331 353 q 47 458 119 353 l 107 504 q 244 424 161 424 q 322 449 290 424 q 353 521 353 475 q 309 592 353 567 q 185 617 265 617 l 185 674 q 292 701 253 674 q 332 771 332 728 q 305 833 332 810 q 233 857 278 857 q 124 792 176 857 m 806 928 l 883 928 l 381 -17 l 303 -17 l 806 928 m 746 208 l 900 208 l 900 306 l 906 457 l 900 457 l 831 344 l 746 208 m 1061 208 l 1061 144 l 981 144 l 981 0 l 900 0 l 900 144 l 653 144 l 653 190 l 881 542 l 981 542 l 981 208 l 1061 208 z "},"¿":{"ha":590,"x_min":67,"x_max":538,"o":"m 299 -272 q 130 -212 193 -272 q 67 -50 67 -153 q 90 47 67 0 q 144 132 113 94 q 206 208 175 169 q 256 297 238 247 q 267 400 274 346 l 368 400 q 360 286 376 340 q 315 192 344 232 q 254 115 285 151 q 201 38 224 79 q 178 -43 178 -3 q 213 -139 178 -101 q 313 -176 247 -176 q 471 -97 403 -176 l 538 -157 q 299 -272 432 -272 m 374 542 q 362 529 374 542 q 315 517 350 517 q 256 542 281 517 q 232 606 232 567 q 256 667 232 643 q 315 692 281 692 q 373 667 349 692 q 397 606 397 643 q 374 542 397 567 z "},"À":{"ha":756,"x_min":4,"x_max":751,"o":"m 451 981 l 344 981 l 185 1144 l 326 1144 l 451 981 m 239 371 l 513 371 l 469 510 q 378 817 426 640 l 372 817 q 282 510 329 654 l 239 371 m 628 0 l 542 278 l 210 278 l 122 0 l 4 0 l 313 911 l 443 911 l 751 0 l 628 0 z "},"Á":{"ha":756,"x_min":4,"x_max":751,"o":"m 565 1144 l 406 981 l 299 981 l 424 1144 l 565 1144 m 239 371 l 513 371 l 469 510 q 378 817 426 640 l 372 817 q 282 510 329 654 l 239 371 m 628 0 l 542 278 l 210 278 l 122 0 l 4 0 l 313 911 l 443 911 l 751 0 l 628 0 z "},"Â":{"ha":756,"x_min":4,"x_max":751,"o":"m 372 1081 l 278 981 l 179 981 l 315 1144 l 435 1144 l 571 981 l 472 981 l 378 1081 l 372 1081 m 239 371 l 513 371 l 469 510 q 378 817 426 640 l 372 817 q 282 510 329 654 l 239 371 m 628 0 l 542 278 l 210 278 l 122 0 l 4 0 l 313 911 l 443 911 l 751 0 l 628 0 z "},"Ã":{"ha":756,"x_min":4,"x_max":751,"o":"m 517 1136 l 594 1136 q 553 1026 589 1068 q 464 985 518 985 q 365 1022 419 985 q 288 1058 310 1058 q 233 988 242 1058 l 156 988 q 197 1097 161 1056 q 286 1139 232 1139 q 385 1102 331 1139 q 463 1065 440 1065 q 517 1136 508 1065 m 239 371 l 513 371 l 469 510 q 378 817 426 640 l 372 817 q 282 510 329 654 l 239 371 m 628 0 l 542 278 l 210 278 l 122 0 l 4 0 l 313 911 l 443 911 l 751 0 l 628 0 z "},"Ä":{"ha":756,"x_min":4,"x_max":751,"o":"m 494 993 q 446 1013 465 993 q 426 1061 426 1032 q 446 1110 426 1092 q 494 1129 465 1129 q 544 1110 525 1129 q 563 1061 563 1092 q 544 1013 563 1032 q 494 993 525 993 m 256 993 q 206 1013 225 993 q 188 1061 188 1032 q 206 1110 188 1092 q 256 1129 225 1129 q 304 1110 285 1129 q 324 1061 324 1092 q 304 1013 324 1032 q 256 993 285 993 m 239 371 l 513 371 l 469 510 q 378 817 426 640 l 372 817 q 282 510 329 654 l 239 371 m 628 0 l 542 278 l 210 278 l 122 0 l 4 0 l 313 911 l 443 911 l 751 0 l 628 0 z "},"Å":{"ha":756,"x_min":4,"x_max":751,"o":"m 375 1164 q 327 1144 346 1164 q 308 1093 308 1125 q 327 1040 308 1060 q 375 1021 346 1021 q 422 1040 403 1021 q 440 1093 440 1060 q 421 1144 440 1125 q 375 1164 401 1164 m 375 971 q 282 1004 318 971 q 246 1093 246 1038 q 282 1181 246 1147 q 375 1215 318 1215 q 467 1181 431 1215 q 504 1093 504 1147 q 467 1004 504 1038 q 375 971 431 971 m 239 371 l 513 371 l 469 510 q 378 817 426 640 l 372 817 q 282 510 329 654 l 239 371 m 628 0 l 542 278 l 210 278 l 122 0 l 4 0 l 313 911 l 443 911 l 751 0 l 628 0 z "},"Æ":{"ha":1142,"x_min":11,"x_max":1074,"o":"m 318 358 l 557 358 l 557 819 l 551 819 q 403 522 478 671 l 318 358 m 674 99 l 1074 99 l 1074 0 l 557 0 l 557 265 l 271 265 l 133 0 l 11 0 l 489 911 l 1060 911 l 1060 814 l 674 814 l 674 528 l 996 528 l 996 429 l 674 429 l 674 99 z "},"Ç":{"ha":793,"x_min":72,"x_max":749,"o":"m 685 188 l 749 115 q 514 -14 649 0 l 483 -69 q 585 -168 585 -93 q 356 -296 585 -283 l 344 -239 q 463 -217 429 -233 q 496 -169 496 -201 q 472 -128 496 -143 q 389 -104 447 -112 l 439 -15 q 174 122 275 -4 q 72 456 72 247 q 185 799 72 671 q 476 928 299 928 q 726 815 626 928 l 664 740 q 478 826 582 826 q 270 727 349 826 q 192 458 192 628 q 268 185 192 286 q 474 85 344 85 q 685 188 590 85 z "},"È":{"ha":732,"x_min":125,"x_max":664,"o":"m 125 0 l 125 911 l 650 911 l 650 814 l 240 814 l 240 528 l 586 528 l 586 429 l 240 429 l 240 99 l 664 99 l 664 0 l 125 0 m 364 981 l 204 1144 l 346 1144 l 471 981 l 364 981 z "},"É":{"ha":732,"x_min":125,"x_max":664,"o":"m 125 0 l 125 911 l 650 911 l 650 814 l 240 814 l 240 528 l 586 528 l 586 429 l 240 429 l 240 99 l 664 99 l 664 0 l 125 0 m 318 981 l 443 1144 l 585 1144 l 425 981 l 318 981 z "},"Ê":{"ha":732,"x_min":125,"x_max":664,"o":"m 199 981 l 335 1144 l 454 1144 l 590 981 l 492 981 l 397 1081 l 392 1081 l 297 981 l 199 981 m 125 0 l 125 911 l 650 911 l 650 814 l 240 814 l 240 528 l 586 528 l 586 429 l 240 429 l 240 99 l 664 99 l 664 0 l 125 0 z "},"Ë":{"ha":732,"x_min":125,"x_max":664,"o":"m 275 993 q 226 1013 244 993 q 207 1061 207 1032 q 226 1110 207 1092 q 275 1129 244 1129 q 324 1110 304 1129 q 343 1061 343 1092 q 324 1013 343 1032 q 275 993 304 993 m 514 993 q 465 1013 485 993 q 446 1061 446 1032 q 465 1110 446 1092 q 514 1129 485 1129 q 563 1110 544 1129 q 582 1061 582 1092 q 563 1013 582 1032 q 514 993 544 993 m 125 0 l 125 911 l 650 911 l 650 814 l 240 814 l 240 528 l 586 528 l 586 429 l 240 429 l 240 99 l 664 99 l 664 0 l 125 0 z "},"Ì":{"ha":365,"x_min":-8,"x_max":258,"o":"m 125 0 l 125 911 l 240 911 l 240 0 l 125 0 m 151 981 l -8 1144 l 133 1144 l 258 981 l 151 981 z "},"Í":{"ha":365,"x_min":106,"x_max":372,"o":"m 125 0 l 125 911 l 240 911 l 240 0 l 125 0 m 106 981 l 231 1144 l 372 1144 l 213 981 l 106 981 z "},"Î":{"ha":365,"x_min":-14,"x_max":378,"o":"m 125 0 l 125 911 l 240 911 l 240 0 l 125 0 m -14 981 l 122 1144 l 242 1144 l 378 981 l 279 981 l 185 1081 l 179 1081 l 85 981 l -14 981 z "},"Ï":{"ha":365,"x_min":-6,"x_max":369,"o":"m 125 0 l 125 911 l 240 911 l 240 0 l 125 0 m 63 993 q 13 1013 32 993 q -6 1061 -6 1032 q 13 1110 -6 1092 q 63 1129 32 1129 q 111 1110 92 1129 q 131 1061 131 1092 q 111 1013 131 1032 q 63 993 92 993 m 301 993 q 253 1013 272 993 q 233 1061 233 1032 q 253 1110 233 1092 q 301 1129 272 1129 q 351 1110 332 1129 q 369 1061 369 1092 q 351 1013 369 1032 q 301 993 332 993 z "},"Ð":{"ha":886,"x_min":46,"x_max":814,"o":"m 271 94 l 375 94 q 613 190 532 94 q 694 460 694 285 q 614 725 694 633 q 375 817 533 817 l 271 817 l 271 511 l 478 511 l 478 446 l 271 446 l 271 94 m 156 911 l 383 911 q 703 794 593 911 q 814 460 814 678 q 704 120 814 240 q 389 0 594 0 l 156 0 l 156 446 l 46 446 l 46 506 l 156 511 l 156 911 z "},"Ñ":{"ha":899,"x_min":125,"x_max":774,"o":"m 543 985 q 444 1022 499 985 q 367 1058 389 1058 q 313 988 321 1058 l 235 988 q 276 1097 240 1056 q 365 1139 311 1139 q 465 1102 410 1139 q 542 1065 519 1065 q 596 1136 588 1065 l 674 1136 q 633 1026 668 1068 q 543 985 597 985 m 125 0 l 125 911 l 244 911 l 574 339 l 672 150 l 678 150 q 664 440 664 379 l 664 911 l 774 911 l 774 0 l 654 0 l 324 574 l 225 761 l 219 761 q 235 476 235 560 l 235 0 l 125 0 z "},"Ò":{"ha":922,"x_min":72,"x_max":851,"o":"m 431 981 l 271 1144 l 413 1144 l 538 981 l 431 981 m 743 113 q 689 48 743 113 q 461 -17 635 -17 q 180 113 288 -17 q 72 460 72 242 q 180 801 72 675 q 461 928 288 928 q 743 801 635 928 q 851 460 851 675 q 743 113 851 242 m 265 187 q 302 136 265 187 q 461 85 339 85 q 657 187 583 85 q 731 460 731 289 q 657 728 731 629 q 461 826 583 826 q 265 728 339 826 q 192 460 192 629 q 265 187 192 289 z "},"Ó":{"ha":922,"x_min":72,"x_max":851,"o":"m 385 981 l 510 1144 l 651 1144 l 492 981 l 385 981 m 743 113 q 689 48 743 113 q 461 -17 635 -17 q 180 113 288 -17 q 72 460 72 242 q 180 801 72 675 q 461 928 288 928 q 743 801 635 928 q 851 460 851 675 q 743 113 851 242 m 265 187 q 302 136 265 187 q 461 85 339 85 q 657 187 583 85 q 731 460 731 289 q 657 728 731 629 q 461 826 583 826 q 265 728 339 826 q 192 460 192 629 q 265 187 192 289 z "},"Ô":{"ha":922,"x_min":72,"x_max":851,"o":"m 265 981 l 401 1144 l 521 1144 l 657 981 l 558 981 l 464 1081 l 458 1081 l 364 981 l 265 981 m 743 113 q 689 48 743 113 q 461 -17 635 -17 q 180 113 288 -17 q 72 460 72 242 q 180 801 72 675 q 461 928 288 928 q 743 801 635 928 q 851 460 851 675 q 743 113 851 242 m 265 187 q 302 136 265 187 q 461 85 339 85 q 657 187 583 85 q 731 460 731 289 q 657 728 731 629 q 461 826 583 826 q 265 728 339 826 q 192 460 192 629 q 265 187 192 289 z "},"Õ":{"ha":922,"x_min":72,"x_max":851,"o":"m 743 113 q 689 48 743 113 q 461 -17 635 -17 q 180 113 288 -17 q 72 460 72 242 q 180 801 72 675 q 461 928 288 928 q 743 801 635 928 q 851 460 851 675 q 743 113 851 242 m 265 187 q 302 136 265 187 q 461 85 339 85 q 657 187 583 85 q 731 460 731 289 q 657 728 731 629 q 461 826 583 826 q 265 728 339 826 q 192 460 192 629 q 265 187 192 289 m 550 985 q 451 1022 506 985 q 374 1058 396 1058 q 319 988 328 1058 l 242 988 q 283 1097 247 1056 q 372 1139 318 1139 q 472 1102 417 1139 q 549 1065 526 1065 q 603 1136 594 1065 l 681 1136 q 640 1026 675 1068 q 550 985 604 985 z "},"Ö":{"ha":922,"x_min":72,"x_max":851,"o":"m 342 993 q 292 1013 311 993 q 274 1061 274 1032 q 292 1110 274 1092 q 342 1129 311 1129 q 390 1110 371 1129 q 410 1061 410 1092 q 390 1013 410 1032 q 342 993 371 993 m 581 993 q 532 1013 551 993 q 513 1061 513 1032 q 532 1110 513 1092 q 581 1129 551 1129 q 630 1110 611 1129 q 649 1061 649 1092 q 630 1013 649 1032 q 581 993 611 993 m 743 113 q 689 48 743 113 q 461 -17 635 -17 q 180 113 288 -17 q 72 460 72 242 q 180 801 72 675 q 461 928 288 928 q 743 801 635 928 q 851 460 851 675 q 743 113 851 242 m 265 187 q 302 136 265 187 q 461 85 339 85 q 657 187 583 85 q 731 460 731 289 q 657 728 731 629 q 461 826 583 826 q 265 728 339 826 q 192 460 192 629 q 265 187 192 289 z "},"×":{"ha":690,"x_min":69,"x_max":621,"o":"m 131 175 l 69 238 l 285 458 l 69 678 l 131 740 l 346 519 l 560 740 l 621 678 l 406 458 l 621 238 l 560 175 l 346 397 l 131 175 z "},"Ø":{"ha":922,"x_min":69,"x_max":860,"o":"m 689 682 l 290 163 q 465 85 360 85 q 661 187 588 85 q 735 460 735 289 q 689 682 735 590 m 242 233 l 642 751 q 465 826 571 826 q 269 728 343 826 q 196 460 196 629 q 242 233 196 328 m 860 904 l 764 781 q 856 460 856 654 q 747 113 856 242 q 465 -17 639 -17 q 222 74 321 -17 l 133 -42 l 69 8 l 167 135 q 76 460 76 265 q 184 801 76 675 q 465 928 292 928 q 710 840 610 928 l 796 953 l 860 904 z "},"Ù":{"ha":896,"x_min":121,"x_max":775,"o":"m 449 -17 q 209 76 297 -17 q 121 376 121 169 l 121 911 l 236 911 l 236 374 q 449 85 236 85 q 664 374 664 85 l 664 911 l 775 911 l 775 376 q 449 -17 775 -17 m 418 981 l 258 1144 l 400 1144 l 525 981 l 418 981 z "},"Ú":{"ha":896,"x_min":121,"x_max":775,"o":"m 449 -17 q 209 76 297 -17 q 121 376 121 169 l 121 911 l 236 911 l 236 374 q 449 85 236 85 q 664 374 664 85 l 664 911 l 775 911 l 775 376 q 449 -17 775 -17 m 372 981 l 497 1144 l 639 1144 l 479 981 l 372 981 z "},"Û":{"ha":896,"x_min":121,"x_max":775,"o":"m 253 981 l 389 1144 l 508 1144 l 644 981 l 546 981 l 451 1081 l 446 1081 l 351 981 l 253 981 m 449 -17 q 209 76 297 -17 q 121 376 121 169 l 121 911 l 236 911 l 236 374 q 449 85 236 85 q 664 374 664 85 l 664 911 l 775 911 l 775 376 q 449 -17 775 -17 z "},"Ü":{"ha":896,"x_min":121,"x_max":775,"o":"m 329 993 q 280 1013 299 993 q 261 1061 261 1032 q 280 1110 261 1092 q 329 1129 299 1129 q 378 1110 358 1129 q 397 1061 397 1092 q 378 1013 397 1032 q 329 993 358 993 m 568 993 q 519 1013 539 993 q 500 1061 500 1032 q 519 1110 500 1092 q 568 1129 539 1129 q 617 1110 599 1129 q 636 1061 636 1092 q 617 1013 636 1032 q 568 993 599 993 m 449 -17 q 209 76 297 -17 q 121 376 121 169 l 121 911 l 236 911 l 236 374 q 449 85 236 85 q 664 374 664 85 l 664 911 l 775 911 l 775 376 q 449 -17 775 -17 z "},"Ý":{"ha":661,"x_min":-1,"x_max":663,"o":"m 272 0 l 272 353 l -1 911 l 122 911 l 240 654 q 328 456 304 508 l 333 456 q 425 654 413 625 l 542 911 l 663 911 l 389 353 l 389 0 l 272 0 m 254 981 l 379 1144 l 521 1144 l 361 981 l 254 981 z "},"Þ":{"ha":810,"x_min":125,"x_max":740,"o":"m 125 0 l 125 911 l 240 911 l 240 758 l 404 758 q 740 490 740 758 q 650 279 740 350 q 404 208 560 208 l 240 208 l 240 0 l 125 0 m 240 303 l 390 303 q 567 348 510 303 q 625 490 625 393 q 569 625 625 586 q 390 664 513 664 l 240 664 l 240 303 z "},"ß":{"ha":800,"x_min":114,"x_max":760,"o":"m 538 -17 q 342 51 435 -17 l 388 132 q 535 72 460 72 q 620 105 589 72 q 651 183 651 138 q 623 260 651 228 q 554 312 594 292 q 474 354 514 332 q 406 415 435 376 q 378 506 378 453 q 397 586 378 547 q 439 651 417 625 q 481 713 461 676 q 500 789 500 750 q 470 876 500 843 q 385 910 440 910 q 269 855 310 910 q 228 694 228 800 l 228 0 l 114 0 l 114 715 q 185 925 114 847 q 386 1003 257 1003 q 552 944 492 1003 q 613 800 613 886 q 593 711 613 753 q 549 644 574 669 q 506 585 525 618 q 486 519 486 551 q 515 456 486 483 q 583 409 543 429 q 663 365 622 389 q 731 297 703 342 q 760 190 760 253 q 699 42 760 101 q 538 -17 639 -17 z "},"à":{"ha":700,"x_min":72,"x_max":601,"o":"m 269 -17 q 128 35 183 -17 q 72 175 72 86 q 171 344 72 285 q 486 428 269 404 q 347 597 486 597 q 146 525 251 597 l 101 604 q 367 692 238 692 q 544 619 486 692 q 601 414 601 546 l 601 0 l 507 0 l 497 81 l 493 81 q 269 -17 375 -17 m 303 75 q 486 165 385 75 l 486 353 q 253 291 322 332 q 183 183 183 250 q 217 102 183 129 q 303 75 250 75 m 350 796 l 186 1019 l 321 1019 l 451 796 l 350 796 z "},"á":{"ha":700,"x_min":72,"x_max":601,"o":"m 269 -17 q 128 35 183 -17 q 72 175 72 86 q 171 344 72 285 q 486 428 269 404 q 347 597 486 597 q 146 525 251 597 l 101 604 q 367 692 238 692 q 544 619 486 692 q 601 414 601 546 l 601 0 l 507 0 l 497 81 l 493 81 q 269 -17 375 -17 m 303 75 q 486 165 385 75 l 486 353 q 253 291 322 332 q 183 183 183 250 q 217 102 183 129 q 303 75 250 75 m 279 796 l 410 1019 l 544 1019 l 381 796 l 279 796 z "},"â":{"ha":700,"x_min":72,"x_max":601,"o":"m 269 -17 q 128 35 183 -17 q 72 175 72 86 q 171 344 72 285 q 486 428 269 404 q 347 597 486 597 q 146 525 251 597 l 101 604 q 367 692 238 692 q 544 619 486 692 q 601 414 601 546 l 601 0 l 507 0 l 497 81 l 493 81 q 269 -17 375 -17 m 303 75 q 486 165 385 75 l 486 353 q 253 291 322 332 q 183 183 183 250 q 217 102 183 129 q 303 75 250 75 m 163 796 l 308 1019 l 422 1019 l 568 796 l 475 796 l 368 946 l 363 946 l 256 796 l 163 796 z "},"ã":{"ha":700,"x_min":72,"x_max":601,"o":"m 269 -17 q 128 35 183 -17 q 72 175 72 86 q 171 344 72 285 q 486 428 269 404 q 347 597 486 597 q 146 525 251 597 l 101 604 q 367 692 238 692 q 544 619 486 692 q 601 414 601 546 l 601 0 l 507 0 l 497 81 l 493 81 q 269 -17 375 -17 m 303 75 q 486 165 385 75 l 486 353 q 253 291 322 332 q 183 183 183 250 q 217 102 183 129 q 303 75 250 75 m 447 793 q 356 835 408 793 q 285 876 303 876 q 228 796 238 876 l 151 796 q 191 916 157 871 q 283 961 225 961 q 376 919 324 961 q 446 878 428 878 q 503 958 493 878 l 579 958 q 540 838 574 883 q 447 793 506 793 z "},"ä":{"ha":700,"x_min":72,"x_max":601,"o":"m 269 -17 q 128 35 183 -17 q 72 175 72 86 q 171 344 72 285 q 486 428 269 404 q 347 597 486 597 q 146 525 251 597 l 101 604 q 367 692 238 692 q 544 619 486 692 q 601 414 601 546 l 601 0 l 507 0 l 497 81 l 493 81 q 269 -17 375 -17 m 303 75 q 486 165 385 75 l 486 353 q 253 291 322 332 q 183 183 183 250 q 217 102 183 129 q 303 75 250 75 m 246 817 q 197 836 215 817 q 178 885 178 856 q 197 933 178 914 q 246 953 215 953 q 294 933 275 953 q 314 885 314 914 q 294 836 314 856 q 246 817 275 817 m 485 817 q 436 836 456 817 q 417 885 417 856 q 436 933 417 914 q 485 953 456 953 q 534 933 515 953 q 553 885 553 914 q 534 836 553 856 q 485 817 515 817 z "},"å":{"ha":700,"x_min":72,"x_max":601,"o":"m 269 -17 q 128 35 183 -17 q 72 175 72 86 q 171 344 72 285 q 486 428 269 404 q 347 597 486 597 q 146 525 251 597 l 101 604 q 367 692 238 692 q 544 619 486 692 q 601 414 601 546 l 601 0 l 507 0 l 497 81 l 493 81 q 269 -17 375 -17 m 303 75 q 486 165 385 75 l 486 353 q 253 291 322 332 q 183 183 183 250 q 217 102 183 129 q 303 75 250 75 m 458 788 q 440 770 458 788 q 365 753 422 753 q 272 788 308 753 q 236 882 236 824 q 272 974 236 939 q 365 1010 308 1010 q 458 974 422 1010 q 494 882 494 939 q 458 788 494 824 m 317 826 q 327 815 317 826 q 365 804 336 804 q 413 826 394 804 q 432 882 432 847 q 413 937 432 915 q 365 958 394 958 q 317 937 336 958 q 299 882 299 915 q 317 826 299 847 z "},"æ":{"ha":1090,"x_min":81,"x_max":1038,"o":"m 279 -17 q 136 35 192 -17 q 81 175 81 86 q 178 344 81 285 q 489 428 276 404 q 351 597 489 597 q 156 525 261 597 l 110 604 q 365 692 246 692 q 558 549 513 692 q 781 692 644 692 q 970 606 903 692 q 1038 374 1038 521 q 1033 310 1038 335 l 596 310 q 659 141 600 206 q 806 76 718 76 q 969 132 882 76 l 1011 53 q 792 -17 903 -17 q 554 110 651 -17 q 279 -17 413 -17 m 311 75 q 415 103 360 75 q 515 179 471 131 q 489 318 492 233 l 489 353 q 263 291 332 332 q 193 183 193 250 q 226 102 193 129 q 311 75 258 75 m 596 386 l 938 386 q 897 546 938 490 q 778 601 856 601 q 656 542 707 601 q 596 386 606 483 z "},"ç":{"ha":633,"x_min":64,"x_max":599,"o":"m 415 -15 l 385 -69 q 486 -168 486 -93 q 257 -296 486 -283 l 246 -239 q 364 -217 331 -233 q 397 -169 397 -201 q 373 -128 397 -143 q 290 -104 349 -112 l 340 -14 q 141 92 218 -1 q 64 336 64 185 q 158 596 64 500 q 389 692 253 692 q 586 613 499 692 l 528 538 q 393 597 461 597 q 242 524 301 597 q 182 336 182 451 q 240 149 182 221 q 390 78 297 78 q 549 146 474 78 l 599 69 q 415 -15 515 -3 z "},"è":{"ha":689,"x_min":64,"x_max":636,"o":"m 351 796 l 188 1019 l 322 1019 l 453 796 l 351 796 m 388 -17 q 156 79 249 -17 q 64 336 64 175 q 154 593 64 494 q 367 692 244 692 q 565 606 494 692 q 636 375 636 521 q 632 310 636 335 l 176 310 q 244 139 183 203 q 401 75 304 75 q 569 128 488 75 l 610 53 q 388 -17 501 -17 m 175 392 l 536 392 q 492 547 536 493 q 369 601 449 601 q 240 545 296 601 q 175 392 185 489 z "},"é":{"ha":689,"x_min":64,"x_max":636,"o":"m 281 796 l 411 1019 l 546 1019 l 382 796 l 281 796 m 388 -17 q 156 79 249 -17 q 64 336 64 175 q 154 593 64 494 q 367 692 244 692 q 565 606 494 692 q 636 375 636 521 q 632 310 636 335 l 176 310 q 244 139 183 203 q 401 75 304 75 q 569 128 488 75 l 610 53 q 388 -17 501 -17 m 175 392 l 536 392 q 492 547 536 493 q 369 601 449 601 q 240 545 296 601 q 175 392 185 489 z "},"ê":{"ha":689,"x_min":64,"x_max":636,"o":"m 164 796 l 310 1019 l 424 1019 l 569 796 l 476 796 l 369 946 l 364 946 l 257 796 l 164 796 m 388 -17 q 156 79 249 -17 q 64 336 64 175 q 154 593 64 494 q 367 692 244 692 q 565 606 494 692 q 636 375 636 521 q 632 310 636 335 l 176 310 q 244 139 183 203 q 401 75 304 75 q 569 128 488 75 l 610 53 q 388 -17 501 -17 m 175 392 l 536 392 q 492 547 536 493 q 369 601 449 601 q 240 545 296 601 q 175 392 185 489 z "},"ë":{"ha":689,"x_min":64,"x_max":636,"o":"m 388 -17 q 156 79 249 -17 q 64 336 64 175 q 154 593 64 494 q 367 692 244 692 q 565 606 494 692 q 636 375 636 521 q 632 310 636 335 l 176 310 q 244 139 183 203 q 401 75 304 75 q 569 128 488 75 l 610 53 q 388 -17 501 -17 m 175 392 l 536 392 q 492 547 536 493 q 369 601 449 601 q 240 545 296 601 q 175 392 185 489 m 247 817 q 198 836 217 817 q 179 885 179 856 q 198 933 179 914 q 247 953 217 953 q 296 933 276 953 q 315 885 315 914 q 296 836 315 856 q 247 817 276 817 m 486 817 q 438 836 457 817 q 418 885 418 856 q 438 933 418 914 q 486 953 457 953 q 535 933 517 953 q 554 885 554 914 q 535 836 554 856 q 486 817 517 817 z "},"ì":{"ha":342,"x_min":-8,"x_max":257,"o":"m 156 796 l -8 1019 l 126 1019 l 257 796 l 156 796 m 114 0 l 114 675 l 228 675 l 228 0 l 114 0 z "},"í":{"ha":342,"x_min":85,"x_max":350,"o":"m 85 796 l 215 1019 l 350 1019 l 186 796 l 85 796 m 114 0 l 114 675 l 228 675 l 228 0 l 114 0 z "},"î":{"ha":342,"x_min":-32,"x_max":374,"o":"m -32 796 l 114 1019 l 228 1019 l 374 796 l 281 796 l 174 946 l 168 946 l 61 796 l -32 796 m 114 0 l 114 675 l 228 675 l 228 0 l 114 0 z "},"ï":{"ha":342,"x_min":-17,"x_max":358,"o":"m 114 0 l 114 675 l 228 675 l 228 0 l 114 0 m 51 817 q 2 836 21 817 q -17 885 -17 856 q 2 933 -17 914 q 51 953 21 953 q 100 933 81 953 q 119 885 119 914 q 100 836 119 856 q 51 817 81 817 m 290 817 q 242 836 261 817 q 222 885 222 856 q 242 933 222 914 q 290 953 261 953 q 340 933 321 953 q 358 885 358 914 q 340 836 358 856 q 290 817 321 817 z "},"ð":{"ha":757,"x_min":74,"x_max":674,"o":"m 376 78 q 516 152 468 78 q 564 353 564 226 q 561 429 564 382 q 376 532 485 532 q 234 469 286 532 q 182 308 182 407 q 239 142 182 207 q 376 78 296 78 m 664 932 l 485 840 q 674 357 674 649 q 591 87 674 190 q 374 -17 508 -17 q 162 73 250 -17 q 74 308 74 163 q 155 534 74 447 q 360 621 236 621 q 546 529 476 621 q 397 796 513 683 l 201 694 l 168 751 l 344 842 q 189 942 272 897 l 242 1014 q 433 888 357 951 l 631 989 l 664 932 z "},"ñ":{"ha":760,"x_min":114,"x_max":654,"o":"m 488 793 q 396 835 447 793 q 325 876 344 876 q 268 796 278 876 l 192 796 q 231 916 197 871 q 324 961 265 961 q 416 919 364 961 q 486 878 468 878 q 543 958 533 878 l 619 958 q 580 838 614 883 q 488 793 546 793 m 114 0 l 114 675 l 208 675 l 218 578 l 222 578 q 449 692 336 692 q 654 428 654 692 l 654 0 l 540 0 l 540 413 q 510 550 540 507 q 413 593 479 593 q 324 569 364 593 q 228 489 283 544 l 228 0 l 114 0 z "},"ò":{"ha":753,"x_min":63,"x_max":688,"o":"m 361 796 l 197 1019 l 332 1019 l 463 796 l 361 796 m 597 79 q 551 31 597 79 q 375 -17 506 -17 q 153 79 244 -17 q 63 336 63 175 q 153 596 63 500 q 375 692 244 692 q 597 596 506 692 q 688 336 688 500 q 597 79 688 175 m 375 78 q 516 149 463 78 q 569 336 569 221 q 516 525 569 453 q 375 597 463 597 q 235 525 289 597 q 181 336 181 453 q 235 149 181 221 q 375 78 289 78 z "},"ó":{"ha":753,"x_min":63,"x_max":688,"o":"m 290 796 l 421 1019 l 556 1019 l 392 796 l 290 796 m 597 79 q 551 31 597 79 q 375 -17 506 -17 q 153 79 244 -17 q 63 336 63 175 q 153 596 63 500 q 375 692 244 692 q 597 596 506 692 q 688 336 688 500 q 597 79 688 175 m 375 78 q 516 149 463 78 q 569 336 569 221 q 516 525 569 453 q 375 597 463 597 q 235 525 289 597 q 181 336 181 453 q 235 149 181 221 q 375 78 289 78 z "},"ô":{"ha":753,"x_min":63,"x_max":688,"o":"m 174 796 l 319 1019 l 433 1019 l 579 796 l 486 796 l 379 946 l 374 946 l 267 796 l 174 796 m 597 79 q 551 31 597 79 q 375 -17 506 -17 q 153 79 244 -17 q 63 336 63 175 q 153 596 63 500 q 375 692 244 692 q 597 596 506 692 q 688 336 688 500 q 597 79 688 175 m 375 78 q 516 149 463 78 q 569 336 569 221 q 516 525 569 453 q 375 597 463 597 q 235 525 289 597 q 181 336 181 453 q 235 149 181 221 q 375 78 289 78 z "},"õ":{"ha":753,"x_min":63,"x_max":688,"o":"m 458 793 q 367 835 419 793 q 296 876 314 876 q 239 796 249 876 l 163 796 q 202 916 168 871 q 294 961 236 961 q 387 919 335 961 q 457 878 439 878 q 514 958 504 878 l 590 958 q 551 838 585 883 q 458 793 517 793 m 597 79 q 551 31 597 79 q 375 -17 506 -17 q 153 79 244 -17 q 63 336 63 175 q 153 596 63 500 q 375 692 244 692 q 597 596 506 692 q 688 336 688 500 q 597 79 688 175 m 375 78 q 516 149 463 78 q 569 336 569 221 q 516 525 569 453 q 375 597 463 597 q 235 525 289 597 q 181 336 181 453 q 235 149 181 221 q 375 78 289 78 z "},"ö":{"ha":753,"x_min":63,"x_max":688,"o":"m 257 817 q 208 836 226 817 q 189 885 189 856 q 208 933 189 914 q 257 953 226 953 q 306 933 286 953 q 325 885 325 914 q 306 836 325 856 q 257 817 286 817 m 496 817 q 447 836 467 817 q 428 885 428 856 q 447 933 428 914 q 496 953 467 953 q 545 933 526 953 q 564 885 564 914 q 545 836 564 856 q 496 817 526 817 m 597 79 q 551 31 597 79 q 375 -17 506 -17 q 153 79 244 -17 q 63 336 63 175 q 153 596 63 500 q 375 692 244 692 q 597 596 506 692 q 688 336 688 500 q 597 79 688 175 m 375 78 q 516 149 463 78 q 569 336 569 221 q 516 525 569 453 q 375 597 463 597 q 235 525 289 597 q 181 336 181 453 q 235 149 181 221 q 375 78 289 78 z "},"÷":{"ha":690,"x_min":47,"x_max":643,"o":"m 47 415 l 47 501 l 643 501 l 643 415 l 47 415 m 346 133 q 291 154 313 133 q 269 208 269 175 q 292 261 269 240 q 346 282 314 282 q 399 261 378 282 q 421 208 421 240 q 399 154 421 175 q 346 133 378 133 m 346 633 q 291 654 313 633 q 269 708 269 675 q 292 761 269 740 q 346 782 314 782 q 399 761 378 782 q 421 708 421 740 q 399 654 421 675 q 346 633 378 633 z "},"ø":{"ha":753,"x_min":64,"x_max":689,"o":"m 543 490 l 247 129 q 376 75 301 75 q 520 147 464 75 q 576 332 576 218 q 543 490 576 425 m 208 185 l 506 544 q 376 600 454 600 q 233 528 289 600 q 176 342 176 456 q 208 185 176 249 m 689 667 l 614 576 q 689 336 689 479 q 598 79 689 175 q 376 -17 507 -17 q 183 51 267 -17 l 115 -32 l 64 8 l 139 99 q 64 336 64 196 q 155 596 64 500 q 376 692 246 692 q 569 622 488 692 l 639 707 l 689 667 z "},"ù":{"ha":756,"x_min":104,"x_max":642,"o":"m 363 796 l 199 1019 l 333 1019 l 464 796 l 363 796 m 311 -17 q 104 247 104 -17 l 104 675 l 219 675 l 219 263 q 249 125 219 168 q 346 82 279 82 q 438 108 397 82 q 528 196 478 135 l 528 675 l 642 675 l 642 0 l 547 0 l 538 106 l 533 106 q 311 -17 429 -17 z "},"ú":{"ha":756,"x_min":104,"x_max":642,"o":"m 292 796 l 422 1019 l 557 1019 l 393 796 l 292 796 m 311 -17 q 104 247 104 -17 l 104 675 l 219 675 l 219 263 q 249 125 219 168 q 346 82 279 82 q 438 108 397 82 q 528 196 478 135 l 528 675 l 642 675 l 642 0 l 547 0 l 538 106 l 533 106 q 311 -17 429 -17 z "},"û":{"ha":756,"x_min":104,"x_max":642,"o":"m 175 796 l 321 1019 l 435 1019 l 581 796 l 488 796 l 381 946 l 375 946 l 268 796 l 175 796 m 311 -17 q 104 247 104 -17 l 104 675 l 219 675 l 219 263 q 249 125 219 168 q 346 82 279 82 q 438 108 397 82 q 528 196 478 135 l 528 675 l 642 675 l 642 0 l 547 0 l 538 106 l 533 106 q 311 -17 429 -17 z "},"ü":{"ha":756,"x_min":104,"x_max":642,"o":"m 311 -17 q 104 247 104 -17 l 104 675 l 219 675 l 219 263 q 249 125 219 168 q 346 82 279 82 q 438 108 397 82 q 528 196 478 135 l 528 675 l 642 675 l 642 0 l 547 0 l 538 106 l 533 106 q 311 -17 429 -17 m 258 817 q 209 836 228 817 q 190 885 190 856 q 209 933 190 914 q 258 953 228 953 q 307 933 288 953 q 326 885 326 914 q 307 836 326 856 q 258 817 288 817 m 497 817 q 449 836 468 817 q 429 885 429 856 q 449 933 429 914 q 497 953 468 953 q 547 933 528 953 q 565 885 565 914 q 547 836 565 856 q 497 817 528 817 z "},"ý":{"ha":649,"x_min":17,"x_max":632,"o":"m 125 -290 q 46 -276 83 -290 l 68 -186 q 119 -196 100 -196 q 272 -51 224 -196 l 288 -1 l 17 675 l 135 675 l 272 301 q 338 111 300 224 l 343 111 q 375 217 354 147 q 400 301 396 286 l 521 675 l 632 675 l 378 -56 q 280 -228 339 -167 q 125 -290 221 -290 m 251 796 l 382 1019 l 517 1019 l 353 796 l 251 796 z "},"þ":{"ha":771,"x_min":114,"x_max":704,"o":"m 114 -285 l 114 989 l 228 989 l 228 719 l 226 604 q 432 692 338 692 q 633 599 563 692 q 704 347 704 507 q 619 83 704 182 q 413 -17 533 -17 q 226 58 324 -17 l 228 -57 l 228 -285 l 114 -285 m 393 79 q 532 152 478 79 q 586 347 586 225 q 408 596 586 596 q 228 504 331 596 l 228 150 q 393 79 313 79 z "},"ÿ":{"ha":649,"x_min":17,"x_max":632,"o":"m 125 -290 q 46 -276 83 -290 l 68 -186 q 119 -196 100 -196 q 272 -51 224 -196 l 288 -1 l 17 675 l 135 675 l 272 301 q 338 111 300 224 l 343 111 q 375 217 354 147 q 400 301 396 286 l 521 675 l 632 675 l 378 -56 q 280 -228 339 -167 q 125 -290 221 -290 m 218 817 q 169 836 188 817 q 150 885 150 856 q 169 933 150 914 q 218 953 188 953 q 267 933 247 953 q 286 885 286 914 q 267 836 286 856 q 218 817 247 817 m 457 817 q 408 836 428 817 q 389 885 389 856 q 408 933 389 914 q 457 953 428 953 q 506 933 488 953 q 525 885 525 914 q 506 836 525 856 q 457 817 488 817 z "},"Ā":{"ha":756,"x_min":4,"x_max":751,"o":"m 547 1100 l 547 1021 l 203 1021 l 203 1100 l 547 1100 m 239 371 l 513 371 l 469 510 q 378 817 426 640 l 372 817 q 282 510 329 654 l 239 371 m 628 0 l 542 278 l 210 278 l 122 0 l 4 0 l 313 911 l 443 911 l 751 0 l 628 0 z "},"ā":{"ha":700,"x_min":72,"x_max":601,"o":"m 269 -17 q 128 35 183 -17 q 72 175 72 86 q 171 344 72 285 q 486 428 269 404 q 347 597 486 597 q 146 525 251 597 l 101 604 q 367 692 238 692 q 544 619 486 692 q 601 414 601 546 l 601 0 l 507 0 l 497 81 l 493 81 q 269 -17 375 -17 m 303 75 q 486 165 385 75 l 486 353 q 253 291 322 332 q 183 183 183 250 q 217 102 183 129 q 303 75 250 75 m 190 835 l 190 914 l 540 914 l 540 835 l 190 835 z "},"Ă":{"ha":756,"x_min":4,"x_max":751,"o":"m 481 1144 l 560 1144 q 506 1026 553 1074 q 375 979 458 979 q 244 1026 292 979 q 190 1144 197 1074 l 269 1144 q 303 1073 276 1100 q 375 1046 331 1046 q 447 1073 419 1046 q 481 1144 474 1100 m 239 371 l 513 371 l 469 510 q 378 817 426 640 l 372 817 q 282 510 329 654 l 239 371 m 628 0 l 542 278 l 210 278 l 122 0 l 4 0 l 313 911 l 443 911 l 751 0 l 628 0 z "},"ă":{"ha":700,"x_min":72,"x_max":601,"o":"m 269 -17 q 128 35 183 -17 q 72 175 72 86 q 171 344 72 285 q 486 428 269 404 q 347 597 486 597 q 146 525 251 597 l 101 604 q 367 692 238 692 q 544 619 486 692 q 601 414 601 546 l 601 0 l 507 0 l 497 81 l 493 81 q 269 -17 375 -17 m 303 75 q 486 165 385 75 l 486 353 q 253 291 322 332 q 183 183 183 250 q 217 102 183 129 q 303 75 250 75 m 365 793 q 231 853 278 793 q 179 988 185 913 l 256 988 q 290 903 261 939 q 365 868 318 868 q 440 903 413 868 q 475 988 468 939 l 551 988 q 499 852 546 911 q 365 793 451 793 z "},"Ą":{"ha":756,"x_min":4,"x_max":794,"o":"m 239 371 l 513 371 l 469 510 q 378 817 426 640 l 372 817 q 282 510 329 654 l 239 371 m 763 -193 l 794 -256 q 683 -294 743 -294 q 588 -262 625 -294 q 550 -174 550 -231 q 581 -75 550 -122 q 654 0 613 -28 l 628 0 l 542 278 l 210 278 l 122 0 l 4 0 l 313 911 l 443 911 l 751 0 q 672 -62 703 -19 q 640 -149 640 -104 q 659 -196 640 -179 q 704 -212 678 -212 q 763 -193 736 -212 z "},"ą":{"ha":700,"x_min":72,"x_max":631,"o":"m 522 -286 q 431 -256 467 -286 q 396 -168 396 -225 q 428 -71 396 -117 q 507 6 461 -25 l 497 81 l 493 81 q 269 -17 375 -17 q 128 35 183 -17 q 72 175 72 86 q 171 344 72 285 q 486 428 269 404 q 347 597 486 597 q 146 525 251 597 l 101 604 q 367 692 238 692 q 544 619 486 692 q 601 414 601 546 l 601 0 q 513 -63 544 -22 q 481 -146 481 -104 q 499 -193 481 -176 q 544 -210 518 -210 q 601 -192 575 -210 l 631 -249 q 522 -286 583 -286 m 303 75 q 486 165 385 75 l 486 353 q 253 291 322 332 q 183 183 183 250 q 217 102 183 129 q 303 75 250 75 z "},"Ć":{"ha":793,"x_min":72,"x_max":749,"o":"m 469 -17 q 183 110 294 -17 q 72 456 72 238 q 185 799 72 671 q 476 928 299 928 q 726 815 626 928 l 664 740 q 478 826 582 826 q 270 727 349 826 q 192 458 192 628 q 268 185 192 286 q 474 85 344 85 q 685 188 590 85 l 749 115 q 469 -17 635 -17 m 382 981 l 507 1144 l 649 1144 l 489 981 l 382 981 z "},"ć":{"ha":633,"x_min":64,"x_max":599,"o":"m 381 -17 q 153 78 242 -17 q 64 336 64 172 q 158 596 64 500 q 389 692 253 692 q 586 613 499 692 l 528 538 q 393 597 461 597 q 242 524 301 597 q 182 336 182 451 q 240 149 182 221 q 390 78 297 78 q 549 146 474 78 l 599 69 q 381 -17 501 -17 m 301 796 l 432 1019 l 567 1019 l 403 796 l 301 796 z "},"Ĉ":{"ha":793,"x_min":72,"x_max":749,"o":"m 469 -17 q 183 110 294 -17 q 72 456 72 238 q 185 799 72 671 q 476 928 299 928 q 726 815 626 928 l 664 740 q 478 826 582 826 q 270 727 349 826 q 192 458 192 628 q 268 185 192 286 q 474 85 344 85 q 685 188 590 85 l 749 115 q 469 -17 635 -17 m 263 981 l 399 1144 l 518 1144 l 654 981 l 556 981 l 461 1081 l 456 1081 l 361 981 l 263 981 z "},"ĉ":{"ha":633,"x_min":64,"x_max":599,"o":"m 185 796 l 331 1019 l 444 1019 l 590 796 l 497 796 l 390 946 l 385 946 l 278 796 l 185 796 m 381 -17 q 153 78 242 -17 q 64 336 64 172 q 158 596 64 500 q 389 692 253 692 q 586 613 499 692 l 528 538 q 393 597 461 597 q 242 524 301 597 q 182 336 182 451 q 240 149 182 221 q 390 78 297 78 q 549 146 474 78 l 599 69 q 381 -17 501 -17 z "},"Ċ":{"ha":793,"x_min":72,"x_max":749,"o":"m 469 -17 q 183 110 294 -17 q 72 456 72 238 q 185 799 72 671 q 476 928 299 928 q 726 815 626 928 l 664 740 q 478 826 582 826 q 270 727 349 826 q 192 458 192 628 q 268 185 192 286 q 474 85 344 85 q 685 188 590 85 l 749 115 q 469 -17 635 -17 m 515 1013 q 503 1002 515 1013 q 458 992 492 992 q 402 1013 425 992 q 379 1067 379 1033 q 402 1119 379 1099 q 458 1140 425 1140 q 515 1119 492 1140 q 538 1067 538 1099 q 515 1013 538 1033 z "},"ċ":{"ha":633,"x_min":64,"x_max":599,"o":"m 381 -17 q 153 78 242 -17 q 64 336 64 172 q 158 596 64 500 q 389 692 253 692 q 586 613 499 692 l 528 538 q 393 597 461 597 q 242 524 301 597 q 182 336 182 451 q 240 149 182 221 q 390 78 297 78 q 549 146 474 78 l 599 69 q 381 -17 501 -17 m 441 835 q 430 824 441 835 q 388 814 419 814 q 334 835 356 814 q 313 889 313 856 q 334 942 313 921 q 388 964 356 964 q 441 942 419 964 q 463 889 463 921 q 441 835 463 856 z "},"Č":{"ha":793,"x_min":72,"x_max":749,"o":"m 469 -17 q 183 110 294 -17 q 72 456 72 238 q 185 799 72 671 q 476 928 299 928 q 726 815 626 928 l 664 740 q 478 826 582 826 q 270 727 349 826 q 192 458 192 628 q 268 185 192 286 q 474 85 344 85 q 685 188 590 85 l 749 115 q 469 -17 635 -17 m 399 981 l 263 1144 l 361 1144 l 456 1046 l 461 1046 l 556 1144 l 654 1144 l 518 981 l 399 981 z "},"č":{"ha":633,"x_min":64,"x_max":599,"o":"m 331 796 l 185 1019 l 278 1019 l 385 869 l 390 869 l 497 1019 l 590 1019 l 444 796 l 331 796 m 381 -17 q 153 78 242 -17 q 64 336 64 172 q 158 596 64 500 q 389 692 253 692 q 586 613 499 692 l 528 538 q 393 597 461 597 q 242 524 301 597 q 182 336 182 451 q 240 149 182 221 q 390 78 297 78 q 549 146 474 78 l 599 69 q 381 -17 501 -17 z "},"Ď":{"ha":854,"x_min":125,"x_max":783,"o":"m 368 981 l 232 1144 l 331 1144 l 425 1046 l 431 1046 l 525 1144 l 624 1144 l 488 981 l 368 981 m 125 0 l 125 911 l 353 911 q 673 794 563 911 q 783 460 783 678 q 674 120 783 240 q 358 0 564 0 l 125 0 m 240 94 l 344 94 q 583 190 501 94 q 664 460 664 285 q 583 725 664 633 q 344 817 503 817 l 240 817 l 240 94 z "},"ď":{"ha":796,"x_min":65,"x_max":813,"o":"m 736 761 l 731 1056 l 813 1056 l 811 976 l 792 761 l 736 761 m 344 -17 q 140 76 215 -17 q 65 336 65 169 q 151 594 65 496 q 358 692 238 692 q 547 614 451 692 l 542 729 l 542 989 l 657 989 l 657 0 l 563 0 l 553 79 l 549 79 q 344 -17 450 -17 m 369 79 q 542 172 458 79 l 542 525 q 378 596 463 596 q 240 524 296 596 q 183 338 183 451 q 233 148 183 217 q 369 79 282 79 z "},"Đ":{"ha":886,"x_min":46,"x_max":814,"o":"m 271 94 l 375 94 q 613 190 532 94 q 694 460 694 285 q 614 725 694 633 q 375 817 533 817 l 271 817 l 271 511 l 478 511 l 478 446 l 271 446 l 271 94 m 156 911 l 383 911 q 703 794 593 911 q 814 460 814 678 q 704 120 814 240 q 389 0 594 0 l 156 0 l 156 446 l 46 446 l 46 506 l 156 511 l 156 911 z "},"đ":{"ha":771,"x_min":65,"x_max":757,"o":"m 542 172 l 542 471 q 378 542 463 542 q 240 476 296 542 q 183 311 183 410 q 233 142 183 204 q 369 79 282 79 q 542 172 458 79 m 757 860 l 757 800 l 657 793 l 657 0 l 560 0 l 551 76 l 547 76 q 344 -17 454 -17 q 141 70 217 -17 q 65 310 65 157 q 152 546 65 454 q 358 638 239 638 q 547 558 450 638 l 542 675 l 542 793 l 318 793 l 318 860 l 542 860 l 542 989 l 657 989 l 657 860 l 757 860 z "},"Ē":{"ha":732,"x_min":125,"x_max":664,"o":"m 125 0 l 125 911 l 650 911 l 650 814 l 240 814 l 240 528 l 586 528 l 586 429 l 240 429 l 240 99 l 664 99 l 664 0 l 125 0 m 222 1021 l 222 1100 l 567 1100 l 567 1021 l 222 1021 z "},"ē":{"ha":689,"x_min":64,"x_max":636,"o":"m 388 -17 q 156 79 249 -17 q 64 336 64 175 q 154 593 64 494 q 367 692 244 692 q 565 606 494 692 q 636 375 636 521 q 632 310 636 335 l 176 310 q 244 139 183 203 q 401 75 304 75 q 569 128 488 75 l 610 53 q 388 -17 501 -17 m 175 392 l 536 392 q 492 547 536 493 q 369 601 449 601 q 240 545 296 601 q 175 392 185 489 m 192 835 l 192 914 l 542 914 l 542 835 l 192 835 z "},"Ĕ":{"ha":732,"x_min":125,"x_max":664,"o":"m 125 0 l 125 911 l 650 911 l 650 814 l 240 814 l 240 528 l 586 528 l 586 429 l 240 429 l 240 99 l 664 99 l 664 0 l 125 0 m 525 1026 q 501 1003 525 1026 q 394 979 478 979 q 264 1026 311 979 q 210 1144 217 1074 l 289 1144 q 323 1073 296 1100 q 394 1046 350 1046 q 466 1073 439 1046 q 500 1144 493 1100 l 579 1144 q 525 1026 572 1074 z "},"ĕ":{"ha":689,"x_min":64,"x_max":636,"o":"m 388 -17 q 156 79 249 -17 q 64 336 64 175 q 154 593 64 494 q 367 692 244 692 q 565 606 494 692 q 636 375 636 521 q 632 310 636 335 l 176 310 q 244 139 183 203 q 401 75 304 75 q 569 128 488 75 l 610 53 q 388 -17 501 -17 m 175 392 l 536 392 q 492 547 536 493 q 369 601 449 601 q 240 545 296 601 q 175 392 185 489 m 367 793 q 233 853 279 793 q 181 988 186 913 l 257 988 q 291 903 263 939 q 367 868 319 868 q 442 903 414 868 q 476 988 469 939 l 553 988 q 500 852 547 911 q 367 793 453 793 z "},"Ė":{"ha":732,"x_min":125,"x_max":664,"o":"m 125 0 l 125 911 l 650 911 l 650 814 l 240 814 l 240 528 l 586 528 l 586 429 l 240 429 l 240 99 l 664 99 l 664 0 l 125 0 m 451 1013 q 439 1002 451 1013 q 394 992 428 992 q 338 1013 361 992 q 315 1067 315 1033 q 338 1119 315 1099 q 394 1140 361 1140 q 451 1119 428 1140 q 474 1067 474 1099 q 451 1013 474 1033 z "},"ė":{"ha":689,"x_min":64,"x_max":636,"o":"m 420 835 q 409 824 420 835 q 367 814 399 814 q 313 835 335 814 q 292 889 292 856 q 313 942 292 921 q 367 964 335 964 q 420 942 399 964 q 442 889 442 921 q 420 835 442 856 m 388 -17 q 156 79 249 -17 q 64 336 64 175 q 154 593 64 494 q 367 692 244 692 q 565 606 494 692 q 636 375 636 521 q 632 310 636 335 l 176 310 q 244 139 183 203 q 401 75 304 75 q 569 128 488 75 l 610 53 q 388 -17 501 -17 m 175 392 l 536 392 q 492 547 536 493 q 369 601 449 601 q 240 545 296 601 q 175 392 185 489 z "},"Ę":{"ha":732,"x_min":125,"x_max":686,"o":"m 575 -294 q 479 -262 517 -294 q 442 -174 442 -231 q 472 -74 442 -121 q 546 0 503 -28 l 125 0 l 125 911 l 650 911 l 650 814 l 240 814 l 240 528 l 586 528 l 586 429 l 240 429 l 240 99 l 664 99 l 664 0 l 660 0 q 572 -51 611 -7 q 532 -149 532 -94 q 551 -196 532 -179 q 599 -212 571 -212 q 654 -193 628 -212 l 686 -256 q 575 -294 638 -294 z "},"ę":{"ha":689,"x_min":64,"x_max":636,"o":"m 497 -286 q 407 -256 442 -286 q 372 -168 372 -225 q 456 -7 372 -81 q 388 -17 428 -17 q 156 79 249 -17 q 64 336 64 175 q 154 593 64 494 q 367 692 244 692 q 565 606 494 692 q 636 375 636 521 q 632 310 636 335 l 176 310 q 244 139 183 203 q 401 75 304 75 q 569 128 488 75 l 610 53 q 489 -55 522 -10 q 456 -146 456 -100 q 474 -193 456 -176 q 521 -210 493 -210 q 576 -192 550 -210 l 606 -249 q 497 -286 558 -286 m 175 392 l 536 392 q 492 547 536 493 q 369 601 449 601 q 240 545 296 601 q 175 392 185 489 z "},"Ě":{"ha":732,"x_min":125,"x_max":664,"o":"m 335 981 l 199 1144 l 297 1144 l 392 1046 l 397 1046 l 492 1144 l 590 1144 l 454 981 l 335 981 m 125 0 l 125 911 l 650 911 l 650 814 l 240 814 l 240 528 l 586 528 l 586 429 l 240 429 l 240 99 l 664 99 l 664 0 l 125 0 z "},"ě":{"ha":689,"x_min":64,"x_max":636,"o":"m 310 796 l 164 1019 l 257 1019 l 364 869 l 369 869 l 476 1019 l 569 1019 l 424 796 l 310 796 m 388 -17 q 156 79 249 -17 q 64 336 64 175 q 154 593 64 494 q 367 692 244 692 q 565 606 494 692 q 636 375 636 521 q 632 310 636 335 l 176 310 q 244 139 183 203 q 401 75 304 75 q 569 128 488 75 l 610 53 q 388 -17 501 -17 m 175 392 l 536 392 q 492 547 536 493 q 369 601 449 601 q 240 545 296 601 q 175 392 185 489 z "},"Ĝ":{"ha":857,"x_min":72,"x_max":764,"o":"m 296 981 l 432 1144 l 551 1144 l 688 981 l 589 981 l 494 1081 l 489 1081 l 394 981 l 296 981 m 483 -17 q 186 110 300 -17 q 72 456 72 236 q 189 800 72 672 q 490 928 306 928 q 753 815 646 928 l 689 740 q 493 826 606 826 q 274 727 356 826 q 192 458 192 628 q 271 185 192 285 q 494 85 350 85 q 658 139 600 85 l 658 376 l 465 376 l 465 472 l 764 472 l 764 89 q 483 -17 663 -17 z "},"ĝ":{"ha":700,"x_min":63,"x_max":683,"o":"m 169 796 l 315 1019 l 429 1019 l 575 796 l 482 796 l 375 946 l 369 946 l 263 796 l 169 796 m 342 -311 q 139 -263 215 -311 q 63 -129 63 -215 q 161 24 63 -43 l 161 29 q 101 139 101 67 q 175 264 101 214 l 175 269 q 88 451 88 340 q 161 625 88 558 q 342 692 235 692 q 438 675 394 692 l 672 675 l 672 588 l 533 588 q 589 449 589 535 q 518 278 589 343 q 342 214 447 214 q 240 238 288 214 q 197 157 197 200 q 317 83 197 83 l 447 83 q 625 44 567 83 q 683 -78 683 6 q 589 -243 683 -175 q 342 -311 494 -311 m 240 335 q 261 313 240 335 q 342 290 282 290 q 443 335 401 290 q 485 451 485 379 q 444 566 485 524 q 342 608 403 608 q 240 566 281 608 q 199 451 199 524 q 240 335 199 379 m 358 -232 q 512 -191 451 -232 q 572 -94 572 -150 q 538 -30 572 -49 q 436 -11 504 -11 l 319 -11 q 232 0 271 -11 q 163 -114 163 -50 q 215 -200 163 -168 q 358 -232 267 -232 z "},"Ğ":{"ha":857,"x_min":72,"x_max":764,"o":"m 483 -17 q 186 110 300 -17 q 72 456 72 236 q 189 800 72 672 q 490 928 306 928 q 753 815 646 928 l 689 740 q 493 826 606 826 q 274 727 356 826 q 192 458 192 628 q 271 185 192 285 q 494 85 350 85 q 658 139 600 85 l 658 376 l 465 376 l 465 472 l 764 472 l 764 89 q 483 -17 663 -17 m 622 1026 q 599 1003 622 1026 q 492 979 575 979 q 361 1026 408 979 q 307 1144 314 1074 l 386 1144 q 420 1073 393 1100 q 492 1046 447 1046 q 563 1073 536 1046 q 597 1144 590 1100 l 676 1144 q 622 1026 669 1074 z "},"ğ":{"ha":700,"x_min":63,"x_max":683,"o":"m 372 793 q 238 853 285 793 q 186 988 192 913 l 263 988 q 297 903 268 939 q 372 868 325 868 q 447 903 419 868 q 482 988 475 939 l 558 988 q 506 852 553 911 q 372 793 458 793 m 342 -311 q 139 -263 215 -311 q 63 -129 63 -215 q 161 24 63 -43 l 161 29 q 101 139 101 67 q 175 264 101 214 l 175 269 q 88 451 88 340 q 161 625 88 558 q 342 692 235 692 q 438 675 394 692 l 672 675 l 672 588 l 533 588 q 589 449 589 535 q 518 278 589 343 q 342 214 447 214 q 240 238 288 214 q 197 157 197 200 q 317 83 197 83 l 447 83 q 625 44 567 83 q 683 -78 683 6 q 589 -243 683 -175 q 342 -311 494 -311 m 240 335 q 261 313 240 335 q 342 290 282 290 q 443 335 401 290 q 485 451 485 379 q 444 566 485 524 q 342 608 403 608 q 240 566 281 608 q 199 451 199 524 q 240 335 199 379 m 358 -232 q 512 -191 451 -232 q 572 -94 572 -150 q 538 -30 572 -49 q 436 -11 504 -11 l 319 -11 q 232 0 271 -11 q 163 -114 163 -50 q 215 -200 163 -168 q 358 -232 267 -232 z "},"Ġ":{"ha":857,"x_min":72,"x_max":764,"o":"m 548 1013 q 536 1002 548 1013 q 492 992 525 992 q 435 1013 458 992 q 413 1067 413 1033 q 435 1119 413 1099 q 492 1140 458 1140 q 548 1119 525 1140 q 571 1067 571 1099 q 548 1013 571 1033 m 483 -17 q 186 110 300 -17 q 72 456 72 236 q 189 800 72 672 q 490 928 306 928 q 753 815 646 928 l 689 740 q 493 826 606 826 q 274 727 356 826 q 192 458 192 628 q 271 185 192 285 q 494 85 350 85 q 658 139 600 85 l 658 376 l 465 376 l 465 472 l 764 472 l 764 89 q 483 -17 663 -17 z "},"ġ":{"ha":700,"x_min":63,"x_max":683,"o":"m 426 835 q 415 824 426 835 q 372 814 404 814 q 319 835 340 814 q 297 889 297 856 q 319 942 297 921 q 372 964 340 964 q 426 942 404 964 q 447 889 447 921 q 426 835 447 856 m 342 -311 q 139 -263 215 -311 q 63 -129 63 -215 q 161 24 63 -43 l 161 29 q 101 139 101 67 q 175 264 101 214 l 175 269 q 88 451 88 340 q 161 625 88 558 q 342 692 235 692 q 438 675 394 692 l 672 675 l 672 588 l 533 588 q 589 449 589 535 q 518 278 589 343 q 342 214 447 214 q 240 238 288 214 q 197 157 197 200 q 317 83 197 83 l 447 83 q 625 44 567 83 q 683 -78 683 6 q 589 -243 683 -175 q 342 -311 494 -311 m 240 335 q 261 313 240 335 q 342 290 282 290 q 443 335 401 290 q 485 451 485 379 q 444 566 485 524 q 342 608 403 608 q 240 566 281 608 q 199 451 199 524 q 240 335 199 379 m 358 -232 q 512 -191 451 -232 q 572 -94 572 -150 q 538 -30 572 -49 q 436 -11 504 -11 l 319 -11 q 232 0 271 -11 q 163 -114 163 -50 q 215 -200 163 -168 q 358 -232 267 -232 z "},"Ģ":{"ha":857,"x_min":72,"x_max":764,"o":"m 363 -300 l 351 -244 q 469 -223 436 -239 q 503 -178 503 -207 q 404 -119 503 -128 l 429 -67 q 555 -101 518 -76 q 592 -174 592 -126 q 363 -300 592 -289 m 483 -17 q 186 110 300 -17 q 72 456 72 236 q 189 800 72 672 q 490 928 306 928 q 753 815 646 928 l 689 740 q 493 826 606 826 q 274 727 356 826 q 192 458 192 628 q 271 185 192 285 q 494 85 350 85 q 658 139 600 85 l 658 376 l 465 376 l 465 472 l 764 472 l 764 89 q 483 -17 663 -17 z "},"ģ":{"ha":700,"x_min":63,"x_max":683,"o":"m 426 751 q 301 786 338 761 q 264 858 264 811 q 493 986 264 974 l 504 929 q 386 908 419 924 q 353 864 353 893 q 451 804 353 813 l 426 751 m 342 -311 q 139 -263 215 -311 q 63 -129 63 -215 q 161 24 63 -43 l 161 29 q 101 139 101 67 q 175 264 101 214 l 175 269 q 88 451 88 340 q 161 625 88 558 q 342 692 235 692 q 438 675 394 692 l 672 675 l 672 588 l 533 588 q 589 449 589 535 q 518 278 589 343 q 342 214 447 214 q 240 238 288 214 q 197 157 197 200 q 317 83 197 83 l 447 83 q 625 44 567 83 q 683 -78 683 6 q 589 -243 683 -175 q 342 -311 494 -311 m 240 335 q 261 313 240 335 q 342 290 282 290 q 443 335 401 290 q 485 451 485 379 q 444 566 485 524 q 342 608 403 608 q 240 566 281 608 q 199 451 199 524 q 240 335 199 379 m 358 -232 q 512 -191 451 -232 q 572 -94 572 -150 q 538 -30 572 -49 q 436 -11 504 -11 l 319 -11 q 232 0 271 -11 q 163 -114 163 -50 q 215 -200 163 -168 q 358 -232 267 -232 z "},"Ĥ":{"ha":906,"x_min":125,"x_max":781,"o":"m 125 0 l 125 911 l 240 911 l 240 529 l 664 529 l 664 911 l 781 911 l 781 0 l 664 0 l 664 429 l 240 429 l 240 0 l 125 0 m 256 981 l 392 1144 l 511 1144 l 647 981 l 549 981 l 454 1081 l 449 1081 l 354 981 l 256 981 z "},"ĥ":{"ha":756,"x_min":-24,"x_max":654,"o":"m 114 0 l 114 989 l 228 989 l 228 719 l 224 581 q 449 692 340 692 q 654 428 654 692 l 654 0 l 540 0 l 540 413 q 510 550 540 507 q 413 593 479 593 q 324 569 364 593 q 228 489 283 544 l 228 0 l 114 0 m -24 1039 l 113 1203 l 232 1203 l 368 1039 l 269 1039 l 175 1139 l 169 1139 l 75 1039 l -24 1039 z "},"Ħ":{"ha":954,"x_min":44,"x_max":908,"o":"m 692 529 l 692 683 l 268 683 l 268 529 l 692 529 m 908 749 l 908 683 l 808 683 l 808 0 l 692 0 l 692 429 l 268 429 l 268 0 l 153 0 l 153 683 l 44 683 l 44 742 l 153 749 l 153 911 l 268 911 l 268 749 l 692 749 l 692 911 l 808 911 l 808 749 l 908 749 z "},"ħ":{"ha":756,"x_min":11,"x_max":654,"o":"m 228 664 l 224 525 q 449 638 342 638 q 654 374 654 638 l 654 0 l 540 0 l 540 358 q 510 495 540 453 q 413 538 479 538 q 324 514 364 538 q 228 435 283 490 l 228 0 l 114 0 l 114 793 l 11 793 l 11 853 l 114 860 l 114 989 l 228 989 l 228 860 l 481 860 l 481 793 l 228 793 l 228 664 z "},"Ĩ":{"ha":365,"x_min":-37,"x_max":401,"o":"m 125 0 l 125 911 l 240 911 l 240 0 l 125 0 m 271 985 q 172 1022 226 985 q 94 1058 117 1058 q 40 988 49 1058 l -37 988 q 3 1097 -32 1056 q 93 1139 39 1139 q 192 1102 138 1139 q 269 1065 247 1065 q 324 1136 315 1065 l 401 1136 q 360 1026 396 1068 q 271 985 325 985 z "},"ĩ":{"ha":342,"x_min":-43,"x_max":385,"o":"m 114 0 l 114 675 l 228 675 l 228 0 l 114 0 m 253 793 q 161 835 214 793 q 90 876 108 876 q 33 796 43 876 l -43 796 q -3 916 -37 871 q 89 961 31 961 q 181 919 129 961 q 251 878 233 878 q 308 958 299 878 l 385 958 q 345 838 379 883 q 253 793 311 793 z "},"Ī":{"ha":365,"x_min":10,"x_max":354,"o":"m 125 0 l 125 911 l 240 911 l 240 0 l 125 0 m 10 1021 l 10 1100 l 354 1100 l 354 1021 l 10 1021 z "},"ī":{"ha":342,"x_min":-4,"x_max":346,"o":"m 114 0 l 114 675 l 228 675 l 228 0 l 114 0 m -4 835 l -4 914 l 346 914 l 346 835 l -4 835 z "},"Ĭ":{"ha":365,"x_min":-3,"x_max":367,"o":"m 125 0 l 125 911 l 240 911 l 240 0 l 125 0 m 313 1026 q 289 1003 313 1026 q 182 979 265 979 q 51 1026 99 979 q -3 1144 4 1074 l 76 1144 q 110 1073 83 1100 q 182 1046 138 1046 q 253 1073 226 1046 q 288 1144 281 1100 l 367 1144 q 313 1026 360 1074 z "},"ĭ":{"ha":342,"x_min":-14,"x_max":358,"o":"m 114 0 l 114 675 l 228 675 l 228 0 l 114 0 m 172 793 q 38 853 85 793 q -14 988 -8 913 l 63 988 q 97 903 68 939 q 172 868 125 868 q 247 903 219 868 q 282 988 275 939 l 358 988 q 306 852 353 911 q 172 793 258 793 z "},"Į":{"ha":365,"x_min":60,"x_max":304,"o":"m 193 -294 q 97 -262 135 -294 q 60 -174 60 -231 q 153 0 60 -85 l 125 0 l 125 911 l 240 911 l 240 0 q 150 -149 150 -71 q 169 -196 150 -179 q 215 -212 189 -212 q 272 -193 246 -212 l 304 -256 q 193 -294 253 -294 z "},"į":{"ha":342,"x_min":53,"x_max":288,"o":"m 179 -286 q 88 -256 124 -286 q 53 -168 53 -225 q 142 0 53 -89 l 114 0 l 114 675 l 228 675 l 228 0 q 138 -146 138 -65 q 156 -193 138 -176 q 203 -210 175 -210 q 258 -192 229 -210 l 288 -249 q 179 -286 240 -286 m 226 835 q 215 824 226 835 q 171 814 204 814 q 115 835 138 814 q 92 888 92 856 q 115 941 92 921 q 171 961 138 961 q 226 941 204 961 q 249 888 249 921 q 226 835 249 856 z "},"İ":{"ha":365,"x_min":103,"x_max":261,"o":"m 125 0 l 125 911 l 240 911 l 240 0 l 125 0 m 238 1013 q 227 1002 238 1013 q 182 992 215 992 q 126 1013 149 992 q 103 1067 103 1033 q 126 1119 103 1099 q 182 1140 149 1140 q 238 1119 215 1140 q 261 1067 261 1099 q 238 1013 261 1033 z "},"ı":{"ha":342,"x_min":114,"x_max":228,"o":"m 114 0 l 114 675 l 228 675 l 228 0 l 114 0 z "},"Ĳ":{"ha":731,"x_min":125,"x_max":606,"o":"m 125 0 l 125 911 l 240 911 l 240 0 l 125 0 m 419 -229 q 319 -212 367 -229 l 342 -121 q 406 -133 382 -133 q 472 -100 454 -133 q 490 0 490 -67 l 490 911 l 606 911 l 606 -4 q 419 -229 606 -229 z "},"ĳ":{"ha":685,"x_min":93,"x_max":593,"o":"m 114 0 l 114 675 l 228 675 l 228 0 l 114 0 m 228 835 q 217 824 228 835 q 172 814 206 814 q 116 835 139 814 q 93 888 93 856 q 116 941 93 921 q 172 961 139 961 q 228 941 206 961 q 251 888 251 921 q 228 835 251 856 m 386 -301 q 286 -283 331 -301 l 310 -197 q 374 -208 343 -208 q 439 -176 421 -208 q 457 -76 457 -143 l 457 675 l 571 675 l 571 -76 q 386 -301 571 -301 m 571 835 q 560 824 571 835 q 515 814 549 814 q 459 835 482 814 q 436 888 436 856 q 459 941 436 921 q 515 961 482 961 q 571 941 549 961 q 593 888 593 921 q 571 835 593 856 z "},"Ĵ":{"ha":667,"x_min":43,"x_max":679,"o":"m 294 -17 q 43 129 124 -17 l 126 188 q 283 85 183 85 q 393 131 357 85 q 429 279 429 176 l 429 911 l 546 911 l 546 268 q 483 63 546 142 q 294 -17 421 -17 m 288 981 l 424 1144 l 543 1144 l 679 981 l 581 981 l 486 1081 l 481 1081 l 386 981 l 288 981 z "},"ĵ":{"ha":343,"x_min":-56,"x_max":375,"o":"m 44 -301 q -56 -283 -11 -301 l -32 -197 q 32 -208 1 -208 q 97 -176 79 -208 q 115 -76 115 -143 l 115 675 l 229 675 l 229 -76 q 44 -301 229 -301 m -31 796 l 115 1019 l 229 1019 l 375 796 l 282 796 l 175 946 l 169 946 l 63 796 l -31 796 z "},"Ķ":{"ha":804,"x_min":125,"x_max":799,"o":"m 125 0 l 125 911 l 240 911 l 240 454 l 244 454 l 624 911 l 754 911 l 469 564 l 799 0 l 669 0 l 397 474 l 240 289 l 240 0 l 125 0 m 332 -300 l 321 -244 q 439 -223 406 -239 q 472 -178 472 -207 q 374 -119 472 -128 l 399 -67 q 524 -101 488 -76 q 561 -174 561 -126 q 332 -300 561 -289 z "},"ķ":{"ha":688,"x_min":114,"x_max":675,"o":"m 114 0 l 114 989 l 226 989 l 226 319 l 231 319 l 518 675 l 644 675 l 418 404 l 675 0 l 550 0 l 353 325 l 226 178 l 226 0 l 114 0 m 256 -300 l 244 -244 q 363 -223 329 -239 q 396 -178 396 -207 q 297 -119 396 -128 l 322 -67 q 448 -101 411 -76 q 485 -174 485 -126 q 256 -300 485 -289 z "},"ĸ":{"ha":688,"x_min":114,"x_max":675,"o":"m 114 0 l 114 675 l 228 675 l 228 317 l 232 317 l 518 675 l 644 675 l 421 404 l 675 0 l 550 0 l 353 321 l 228 174 l 228 0 l 114 0 z "},"Ĺ":{"ha":675,"x_min":110,"x_max":639,"o":"m 110 981 l 235 1144 l 376 1144 l 217 981 l 110 981 m 125 0 l 125 911 l 240 911 l 240 99 l 639 99 l 639 0 l 125 0 z "},"ĺ":{"ha":354,"x_min":89,"x_max":356,"o":"m 89 1053 l 214 1217 l 356 1217 l 196 1053 l 89 1053 m 235 -17 q 114 136 114 -17 l 114 989 l 228 989 l 228 128 q 260 78 228 78 q 285 81 272 78 l 300 -6 q 235 -17 275 -17 z "},"Ļ":{"ha":675,"x_min":125,"x_max":639,"o":"m 279 -300 l 268 -244 q 386 -223 353 -239 q 419 -178 419 -207 q 321 -119 419 -128 l 346 -67 q 472 -101 435 -76 q 508 -174 508 -126 q 279 -300 508 -289 m 125 0 l 125 911 l 240 911 l 240 99 l 639 99 l 639 0 l 125 0 z "},"ļ":{"ha":354,"x_min":104,"x_max":344,"o":"m 115 -300 l 104 -244 q 222 -223 189 -239 q 256 -178 256 -207 q 157 -119 256 -128 l 182 -67 q 308 -101 271 -76 q 344 -174 344 -126 q 115 -300 344 -289 m 235 -17 q 114 136 114 -17 l 114 989 l 228 989 l 228 128 q 260 78 228 78 q 285 81 272 78 l 300 -6 q 235 -17 275 -17 z "},"Ľ":{"ha":675,"x_min":125,"x_max":639,"o":"m 464 714 l 458 1008 l 540 1008 l 539 929 l 519 714 l 464 714 m 125 0 l 125 911 l 240 911 l 240 99 l 639 99 l 639 0 l 125 0 z "},"ľ":{"ha":368,"x_min":114,"x_max":383,"o":"m 307 761 l 301 1056 l 383 1056 l 382 976 l 363 761 l 307 761 m 235 -17 q 114 136 114 -17 l 114 989 l 228 989 l 228 128 q 260 78 228 78 q 285 81 272 78 l 300 -6 q 235 -17 275 -17 z "},"Ŀ":{"ha":675,"x_min":125,"x_max":639,"o":"m 125 0 l 125 911 l 240 911 l 240 99 l 639 99 l 639 0 l 125 0 m 524 365 q 465 390 489 365 q 440 451 440 414 q 465 515 440 490 q 524 540 489 540 q 582 515 558 540 q 606 451 606 490 q 581 390 606 414 q 524 365 557 365 z "},"ŀ":{"ha":503,"x_min":114,"x_max":504,"o":"m 235 -17 q 114 136 114 -17 l 114 989 l 228 989 l 228 128 q 260 78 228 78 q 285 81 272 78 l 300 -6 q 235 -17 275 -17 m 422 365 q 363 390 388 365 q 339 451 339 414 q 363 515 339 490 q 422 540 388 540 q 481 515 457 540 q 504 451 504 490 q 480 390 504 414 q 422 365 456 365 z "},"Ł":{"ha":679,"x_min":18,"x_max":646,"o":"m 247 99 l 646 99 l 646 0 l 132 0 l 132 333 l 18 269 l 18 363 l 132 428 l 132 911 l 247 911 l 247 479 l 506 618 l 506 524 l 247 385 l 247 99 z "},"ł":{"ha":364,"x_min":32,"x_max":332,"o":"m 332 582 l 233 519 l 233 128 q 265 78 233 78 q 290 81 278 78 l 306 -6 q 240 -17 281 -17 q 119 136 119 -17 l 119 460 l 32 404 l 32 501 l 119 557 l 119 989 l 233 989 l 233 617 l 332 679 l 332 582 z "},"Ń":{"ha":899,"x_min":125,"x_max":774,"o":"m 378 981 l 503 1144 l 644 1144 l 485 981 l 378 981 m 125 0 l 125 911 l 244 911 l 574 339 l 672 150 l 678 150 q 664 440 664 379 l 664 911 l 774 911 l 774 0 l 654 0 l 324 574 l 225 761 l 219 761 q 235 476 235 560 l 235 0 l 125 0 z "},"ń":{"ha":760,"x_min":114,"x_max":654,"o":"m 319 796 l 450 1019 l 585 1019 l 421 796 l 319 796 m 114 0 l 114 675 l 208 675 l 218 578 l 222 578 q 449 692 336 692 q 654 428 654 692 l 654 0 l 540 0 l 540 413 q 510 550 540 507 q 413 593 479 593 q 324 569 364 593 q 228 489 283 544 l 228 0 l 114 0 z "},"Ņ":{"ha":899,"x_min":125,"x_max":774,"o":"m 335 -300 l 324 -244 q 442 -223 408 -239 q 475 -178 475 -207 q 376 -119 475 -128 l 401 -67 q 527 -101 490 -76 q 564 -174 564 -126 q 335 -300 564 -289 m 125 0 l 125 911 l 244 911 l 574 339 l 672 150 l 678 150 q 664 440 664 379 l 664 911 l 774 911 l 774 0 l 654 0 l 324 574 l 225 761 l 219 761 q 235 476 235 560 l 235 0 l 125 0 z "},"ņ":{"ha":760,"x_min":114,"x_max":654,"o":"m 267 -300 l 256 -244 q 374 -223 340 -239 q 407 -178 407 -207 q 308 -119 407 -128 l 333 -67 q 459 -101 422 -76 q 496 -174 496 -126 q 267 -300 496 -289 m 114 0 l 114 675 l 208 675 l 218 578 l 222 578 q 449 692 336 692 q 654 428 654 692 l 654 0 l 540 0 l 540 413 q 510 550 540 507 q 413 593 479 593 q 324 569 364 593 q 228 489 283 544 l 228 0 l 114 0 z "},"Ň":{"ha":899,"x_min":125,"x_max":774,"o":"m 394 981 l 258 1144 l 357 1144 l 451 1046 l 457 1046 l 551 1144 l 650 1144 l 514 981 l 394 981 m 125 0 l 125 911 l 244 911 l 574 339 l 672 150 l 678 150 q 664 440 664 379 l 664 911 l 774 911 l 774 0 l 654 0 l 324 574 l 225 761 l 219 761 q 235 476 235 560 l 235 0 l 125 0 z "},"ň":{"ha":760,"x_min":114,"x_max":654,"o":"m 349 796 l 203 1019 l 296 1019 l 403 869 l 408 869 l 515 1019 l 608 1019 l 463 796 l 349 796 m 114 0 l 114 675 l 208 675 l 218 578 l 222 578 q 449 692 336 692 q 654 428 654 692 l 654 0 l 540 0 l 540 413 q 510 550 540 507 q 413 593 479 593 q 324 569 364 593 q 228 489 283 544 l 228 0 l 114 0 z "},"ŉ":{"ha":1076,"x_min":88,"x_max":963,"o":"m 119 599 l 88 651 q 167 727 142 688 q 192 825 192 767 q 181 824 188 824 q 128 842 150 824 q 107 893 107 861 q 127 950 107 929 q 181 971 147 971 q 244 938 221 971 q 268 844 268 904 q 119 599 268 685 m 526 578 l 531 578 q 757 692 644 692 q 963 428 963 692 l 963 0 l 849 0 l 849 413 q 818 550 849 507 q 721 593 788 593 q 632 569 672 593 q 536 489 592 544 l 536 0 l 422 0 l 422 675 l 517 675 l 526 578 z "},"Ŋ":{"ha":882,"x_min":125,"x_max":810,"o":"m 564 -17 q 456 4 493 -17 l 483 108 q 553 93 514 93 q 690 465 690 93 q 632 743 690 660 q 465 826 574 826 q 347 788 411 826 q 240 690 282 749 l 240 0 l 125 0 l 125 911 l 238 911 l 238 799 q 357 892 289 857 q 494 928 425 928 q 725 817 640 928 q 810 465 810 707 q 564 -17 810 -17 z "},"ŋ":{"ha":760,"x_min":114,"x_max":654,"o":"m 469 -301 q 371 -283 413 -301 l 393 -197 q 457 -208 426 -208 q 522 -176 504 -208 q 540 -76 540 -143 l 540 413 q 510 550 540 507 q 413 593 479 593 q 324 569 364 593 q 228 489 283 544 l 228 0 l 114 0 l 114 675 l 208 675 l 218 578 l 222 578 q 449 692 336 692 q 654 428 654 692 l 654 -76 q 469 -301 654 -301 z "},"Ō":{"ha":922,"x_min":72,"x_max":851,"o":"m 743 113 q 689 48 743 113 q 461 -17 635 -17 q 180 113 288 -17 q 72 460 72 242 q 180 801 72 675 q 461 928 288 928 q 743 801 635 928 q 851 460 851 675 q 743 113 851 242 m 265 187 q 302 136 265 187 q 461 85 339 85 q 657 187 583 85 q 731 460 731 289 q 657 728 731 629 q 461 826 583 826 q 265 728 339 826 q 192 460 192 629 q 265 187 192 289 m 289 1021 l 289 1100 l 633 1100 l 633 1021 l 289 1021 z "},"ō":{"ha":753,"x_min":63,"x_max":688,"o":"m 201 835 l 201 914 l 551 914 l 551 835 l 201 835 m 597 79 q 551 31 597 79 q 375 -17 506 -17 q 153 79 244 -17 q 63 336 63 175 q 153 596 63 500 q 375 692 244 692 q 597 596 506 692 q 688 336 688 500 q 597 79 688 175 m 375 78 q 516 149 463 78 q 569 336 569 221 q 516 525 569 453 q 375 597 463 597 q 235 525 289 597 q 181 336 181 453 q 235 149 181 221 q 375 78 289 78 z "},"Ŏ":{"ha":922,"x_min":72,"x_max":851,"o":"m 743 113 q 689 48 743 113 q 461 -17 635 -17 q 180 113 288 -17 q 72 460 72 242 q 180 801 72 675 q 461 928 288 928 q 743 801 635 928 q 851 460 851 675 q 743 113 851 242 m 265 187 q 302 136 265 187 q 461 85 339 85 q 657 187 583 85 q 731 460 731 289 q 657 728 731 629 q 461 826 583 826 q 265 728 339 826 q 192 460 192 629 q 265 187 192 289 m 592 1026 q 568 1003 592 1026 q 461 979 544 979 q 331 1026 378 979 q 276 1144 283 1074 l 356 1144 q 390 1073 363 1100 q 461 1046 417 1046 q 533 1073 506 1046 q 567 1144 560 1100 l 646 1144 q 592 1026 639 1074 z "},"ŏ":{"ha":753,"x_min":63,"x_max":688,"o":"m 376 793 q 242 853 289 793 q 190 988 196 913 l 267 988 q 301 903 272 939 q 376 868 329 868 q 451 903 424 868 q 486 988 479 939 l 563 988 q 510 852 557 911 q 376 793 463 793 m 597 79 q 551 31 597 79 q 375 -17 506 -17 q 153 79 244 -17 q 63 336 63 175 q 153 596 63 500 q 375 692 244 692 q 597 596 506 692 q 688 336 688 500 q 597 79 688 175 m 375 78 q 516 149 463 78 q 569 336 569 221 q 516 525 569 453 q 375 597 463 597 q 235 525 289 597 q 181 336 181 453 q 235 149 181 221 q 375 78 289 78 z "},"Ő":{"ha":922,"x_min":72,"x_max":851,"o":"m 300 981 l 408 1144 l 522 1144 l 388 981 l 300 981 m 524 981 l 632 1144 l 746 1144 l 611 981 l 524 981 m 743 113 q 689 48 743 113 q 461 -17 635 -17 q 180 113 288 -17 q 72 460 72 242 q 180 801 72 675 q 461 928 288 928 q 743 801 635 928 q 851 460 851 675 q 743 113 851 242 m 265 187 q 302 136 265 187 q 461 85 339 85 q 657 187 583 85 q 731 460 731 289 q 657 728 731 629 q 461 826 583 826 q 265 728 339 826 q 192 460 192 629 q 265 187 192 289 z "},"ő":{"ha":753,"x_min":63,"x_max":688,"o":"m 231 793 l 342 1019 l 447 1019 l 311 793 l 231 793 m 439 793 l 551 1019 l 657 1019 l 521 793 l 439 793 m 597 79 q 551 31 597 79 q 375 -17 506 -17 q 153 79 244 -17 q 63 336 63 175 q 153 596 63 500 q 375 692 244 692 q 597 596 506 692 q 688 336 688 500 q 597 79 688 175 m 375 78 q 516 149 463 78 q 569 336 569 221 q 516 525 569 453 q 375 597 463 597 q 235 525 289 597 q 181 336 181 453 q 235 149 181 221 q 375 78 289 78 z "},"Œ":{"ha":1176,"x_min":72,"x_max":1108,"o":"m 513 0 q 189 121 306 0 q 72 460 72 242 q 189 794 72 676 q 518 911 306 911 l 1094 911 l 1094 814 l 708 814 l 708 528 l 1031 528 l 1031 429 l 708 429 l 708 99 l 1108 99 l 1108 0 l 513 0 m 526 94 l 593 94 l 593 817 l 526 817 q 277 725 363 817 q 192 460 192 633 q 277 190 192 285 q 526 94 363 94 z "},"œ":{"ha":1165,"x_min":64,"x_max":1113,"o":"m 367 -17 q 151 78 239 -17 q 64 336 64 174 q 152 596 64 500 q 369 692 240 692 q 513 647 447 692 q 614 522 578 603 q 715 647 653 601 q 851 692 778 692 q 1044 606 975 692 q 1113 374 1113 521 q 1108 310 1113 335 l 665 310 q 730 141 669 206 q 878 76 790 76 q 1044 132 957 76 l 1086 53 q 864 -17 978 -17 q 719 28 785 -17 q 615 151 654 72 q 367 -17 536 -17 m 233 149 q 260 114 233 149 q 369 78 286 78 q 506 149 453 78 q 558 336 558 221 q 506 525 558 453 q 369 597 453 597 q 233 525 286 597 q 181 336 181 453 q 233 149 181 221 m 665 386 l 1013 386 q 969 545 1013 489 q 849 601 926 601 q 726 542 778 601 q 665 386 675 483 z "},"Ŕ":{"ha":790,"x_min":125,"x_max":756,"o":"m 590 1144 l 431 981 l 324 981 l 449 1144 l 590 1144 m 240 818 l 240 479 l 393 479 q 614 656 614 479 q 558 780 614 742 q 393 818 503 818 l 240 818 m 756 0 l 625 0 l 406 385 l 240 385 l 240 0 l 125 0 l 125 911 l 410 911 q 729 656 729 911 q 675 487 729 553 q 525 397 621 421 l 756 0 z "},"ŕ":{"ha":482,"x_min":114,"x_max":486,"o":"m 217 796 l 347 1019 l 482 1019 l 318 796 l 217 796 m 114 0 l 114 675 l 208 675 l 218 553 l 222 553 q 307 655 257 618 q 414 692 357 692 q 486 678 454 692 l 464 578 q 399 589 428 589 q 306 551 351 589 q 228 433 260 514 l 228 0 l 114 0 z "},"Ŗ":{"ha":790,"x_min":125,"x_max":756,"o":"m 343 -119 l 368 -67 q 494 -101 457 -76 q 531 -174 531 -126 q 301 -300 531 -289 l 290 -244 q 408 -223 375 -239 q 442 -178 442 -207 q 343 -119 442 -128 m 240 818 l 240 479 l 393 479 q 614 656 614 479 q 558 780 614 742 q 393 818 503 818 l 240 818 m 525 397 l 756 0 l 625 0 l 406 385 l 240 385 l 240 0 l 125 0 l 125 911 l 410 911 q 729 656 729 911 q 675 487 729 553 q 525 397 621 421 z "},"ŗ":{"ha":482,"x_min":36,"x_max":486,"o":"m 114 0 l 114 675 l 208 675 l 218 553 l 222 553 q 307 655 257 618 q 414 692 357 692 q 486 678 454 692 l 464 578 q 399 589 428 589 q 306 551 351 589 q 228 433 260 514 l 228 0 l 114 0 m 47 -300 l 36 -244 q 154 -223 121 -239 q 188 -178 188 -207 q 89 -119 188 -128 l 114 -67 q 240 -101 203 -76 q 276 -174 276 -126 q 47 -300 276 -289 z "},"Ř":{"ha":790,"x_min":125,"x_max":756,"o":"m 460 981 l 340 981 l 204 1144 l 303 1144 l 397 1046 l 403 1046 l 497 1144 l 596 1144 l 460 981 m 240 818 l 240 479 l 393 479 q 614 656 614 479 q 558 780 614 742 q 393 818 503 818 l 240 818 m 756 0 l 625 0 l 406 385 l 240 385 l 240 0 l 125 0 l 125 911 l 410 911 q 729 656 729 911 q 675 487 729 553 q 525 397 621 421 l 756 0 z "},"ř":{"ha":482,"x_min":100,"x_max":506,"o":"m 246 796 l 100 1019 l 193 1019 l 300 869 l 306 869 l 413 1019 l 506 1019 l 360 796 l 246 796 m 114 0 l 114 675 l 208 675 l 218 553 l 222 553 q 307 655 257 618 q 414 692 357 692 q 486 678 454 692 l 464 578 q 399 589 428 589 q 306 551 351 589 q 228 433 260 514 l 228 0 l 114 0 z "},"Ś":{"ha":742,"x_min":58,"x_max":688,"o":"m 378 -17 q 58 118 189 -17 l 128 199 q 379 85 238 85 q 519 125 468 85 q 569 233 569 165 q 560 291 569 267 q 524 335 550 315 q 479 365 499 354 q 418 394 460 375 l 288 451 q 103 686 103 529 q 184 859 103 790 q 389 928 265 928 q 658 815 549 928 l 596 740 q 389 826 506 826 q 266 790 313 826 q 219 693 219 754 q 231 638 219 663 q 269 595 243 614 q 315 567 296 576 q 371 542 335 557 l 500 486 q 639 392 590 447 q 688 243 688 336 q 603 58 688 132 q 378 -17 518 -17 m 311 981 l 436 1144 l 578 1144 l 418 981 l 311 981 z "},"ś":{"ha":582,"x_min":39,"x_max":538,"o":"m 290 -17 q 39 76 151 -17 l 96 153 q 294 72 196 72 q 393 102 358 72 q 428 178 428 132 q 415 222 428 203 q 376 258 403 242 q 331 283 350 274 q 274 306 311 292 q 200 335 229 321 q 138 372 171 349 q 89 428 106 396 q 72 500 72 460 q 135 638 72 583 q 304 692 197 692 q 514 615 419 692 l 460 543 q 306 603 381 603 q 214 575 246 603 q 182 506 182 547 q 205 455 182 478 q 248 422 228 432 q 318 394 268 413 q 332 389 328 390 q 392 365 371 374 q 445 338 413 357 q 494 301 478 319 q 524 252 511 282 q 538 185 538 222 q 472 41 538 99 q 290 -17 406 -17 m 219 796 l 350 1019 l 485 1019 l 321 796 l 219 796 z "},"Ŝ":{"ha":742,"x_min":58,"x_max":688,"o":"m 378 -17 q 58 118 189 -17 l 128 199 q 379 85 238 85 q 519 125 468 85 q 569 233 569 165 q 560 291 569 267 q 524 335 550 315 q 479 365 499 354 q 418 394 460 375 l 288 451 q 103 686 103 529 q 184 859 103 790 q 389 928 265 928 q 658 815 549 928 l 596 740 q 389 826 506 826 q 266 790 313 826 q 219 693 219 754 q 231 638 219 663 q 269 595 243 614 q 315 567 296 576 q 371 542 335 557 l 500 486 q 639 392 590 447 q 688 243 688 336 q 603 58 688 132 q 378 -17 518 -17 m 192 981 l 328 1144 l 447 1144 l 583 981 l 485 981 l 390 1081 l 385 1081 l 290 981 l 192 981 z "},"ŝ":{"ha":582,"x_min":39,"x_max":538,"o":"m 103 796 l 249 1019 l 363 1019 l 508 796 l 415 796 l 308 946 l 303 946 l 196 796 l 103 796 m 290 -17 q 39 76 151 -17 l 96 153 q 294 72 196 72 q 393 102 358 72 q 428 178 428 132 q 415 222 428 203 q 376 258 403 242 q 331 283 350 274 q 274 306 311 292 q 200 335 229 321 q 138 372 171 349 q 89 428 106 396 q 72 500 72 460 q 135 638 72 583 q 304 692 197 692 q 514 615 419 692 l 460 543 q 306 603 381 603 q 214 575 246 603 q 182 506 182 547 q 205 455 182 478 q 248 422 228 432 q 318 394 268 413 q 332 389 328 390 q 392 365 371 374 q 445 338 413 357 q 494 301 478 319 q 524 252 511 282 q 538 185 538 222 q 472 41 538 99 q 290 -17 406 -17 z "},"Ş":{"ha":742,"x_min":58,"x_max":688,"o":"m 371 542 l 500 486 q 639 392 590 447 q 688 243 688 336 q 614 67 688 140 q 415 -15 540 -6 l 386 -69 q 488 -168 488 -93 q 258 -296 488 -283 l 247 -239 q 365 -217 332 -233 q 399 -169 399 -201 q 374 -128 399 -143 q 292 -104 350 -112 l 342 -15 q 58 118 178 -3 l 128 199 q 379 85 238 85 q 519 125 468 85 q 569 233 569 165 q 560 291 569 267 q 524 335 550 315 q 479 365 499 354 q 418 394 460 375 l 288 451 q 103 686 103 529 q 184 859 103 790 q 389 928 265 928 q 658 815 549 928 l 596 740 q 389 826 506 826 q 266 790 313 826 q 219 693 219 754 q 231 638 219 663 q 269 595 243 614 q 315 567 296 576 q 371 542 335 557 z "},"ş":{"ha":582,"x_min":39,"x_max":538,"o":"m 514 615 l 460 543 q 306 603 381 603 q 214 575 246 603 q 182 506 182 547 q 205 455 182 478 q 248 422 228 432 q 318 394 268 413 q 332 389 328 390 q 392 365 371 374 q 445 338 413 357 q 494 301 478 319 q 524 252 511 282 q 538 185 538 222 q 488 56 538 110 q 346 -12 438 1 l 315 -69 q 417 -168 417 -93 q 188 -296 417 -283 l 176 -239 q 294 -217 261 -233 q 328 -169 328 -201 q 303 -128 328 -143 q 221 -104 279 -112 l 271 -17 q 39 76 143 -8 l 96 153 q 294 72 196 72 q 393 102 358 72 q 428 178 428 132 q 415 222 428 203 q 376 258 403 242 q 331 283 350 274 q 274 306 311 292 q 200 335 229 321 q 138 372 171 349 q 89 428 106 396 q 72 500 72 460 q 135 638 72 583 q 304 692 197 692 q 514 615 419 692 z "},"Š":{"ha":742,"x_min":58,"x_max":688,"o":"m 378 -17 q 58 118 189 -17 l 128 199 q 379 85 238 85 q 519 125 468 85 q 569 233 569 165 q 560 291 569 267 q 524 335 550 315 q 479 365 499 354 q 418 394 460 375 l 288 451 q 103 686 103 529 q 184 859 103 790 q 389 928 265 928 q 658 815 549 928 l 596 740 q 389 826 506 826 q 266 790 313 826 q 219 693 219 754 q 231 638 219 663 q 269 595 243 614 q 315 567 296 576 q 371 542 335 557 l 500 486 q 639 392 590 447 q 688 243 688 336 q 603 58 688 132 q 378 -17 518 -17 m 328 981 l 192 1144 l 290 1144 l 385 1046 l 390 1046 l 485 1144 l 583 1144 l 447 981 l 328 981 z "},"š":{"ha":582,"x_min":39,"x_max":538,"o":"m 249 796 l 103 1019 l 196 1019 l 303 869 l 308 869 l 415 1019 l 508 1019 l 363 796 l 249 796 m 290 -17 q 39 76 151 -17 l 96 153 q 294 72 196 72 q 393 102 358 72 q 428 178 428 132 q 415 222 428 203 q 376 258 403 242 q 331 283 350 274 q 274 306 311 292 q 200 335 229 321 q 138 372 171 349 q 89 428 106 396 q 72 500 72 460 q 135 638 72 583 q 304 692 197 692 q 514 615 419 692 l 460 543 q 306 603 381 603 q 214 575 246 603 q 182 506 182 547 q 205 455 182 478 q 248 422 228 432 q 318 394 268 413 q 332 389 328 390 q 392 365 371 374 q 445 338 413 357 q 494 301 478 319 q 524 252 511 282 q 538 185 538 222 q 472 41 538 99 q 290 -17 406 -17 z "},"Ţ":{"ha":744,"x_min":39,"x_max":706,"o":"m 431 0 l 413 0 l 375 -69 q 476 -168 476 -93 q 247 -296 476 -283 l 236 -239 q 354 -217 321 -233 q 388 -169 388 -201 q 363 -128 388 -143 q 281 -104 339 -112 l 339 0 l 314 0 l 314 814 l 39 814 l 39 911 l 706 911 l 706 814 l 431 814 l 431 0 z "},"ţ":{"ha":469,"x_min":33,"x_max":451,"o":"m 338 -17 l 308 -69 q 410 -168 410 -93 q 181 -296 410 -283 l 169 -239 q 288 -217 254 -233 q 321 -169 321 -201 q 297 -128 321 -143 q 214 -104 272 -112 l 267 -11 q 133 208 133 21 l 133 582 l 33 582 l 33 668 l 139 675 l 153 864 l 249 864 l 249 675 l 431 675 l 431 582 l 249 582 l 249 207 q 272 109 249 142 q 353 76 296 76 q 429 94 381 76 l 451 8 q 338 -17 383 -14 z "},"Ť":{"ha":744,"x_min":39,"x_max":706,"o":"m 311 981 l 175 1144 l 274 1144 l 368 1046 l 374 1046 l 468 1144 l 567 1144 l 431 981 l 311 981 m 314 0 l 314 814 l 39 814 l 39 911 l 706 911 l 706 814 l 431 814 l 431 0 l 314 0 z "},"ť":{"ha":469,"x_min":33,"x_max":451,"o":"m 356 761 l 350 1056 l 432 1056 l 431 976 l 411 761 l 356 761 m 326 -17 q 133 208 133 -17 l 133 582 l 33 582 l 33 668 l 139 675 l 153 864 l 249 864 l 249 675 l 431 675 l 431 582 l 249 582 l 249 207 q 272 109 249 142 q 353 76 296 76 q 429 94 381 76 l 451 8 q 326 -17 376 -17 z "},"Ŧ":{"ha":744,"x_min":39,"x_max":706,"o":"m 706 814 l 431 814 l 431 500 l 601 500 l 601 435 l 431 435 l 431 0 l 314 0 l 314 435 l 143 435 l 143 496 l 265 500 l 314 500 l 314 814 l 39 814 l 39 911 l 706 911 l 706 814 z "},"ŧ":{"ha":469,"x_min":33,"x_max":451,"o":"m 429 94 l 451 8 q 326 -17 376 -17 q 133 208 133 -17 l 133 321 l 33 321 l 33 381 l 133 388 l 133 582 l 33 582 l 33 668 l 139 675 l 153 864 l 249 864 l 249 675 l 431 675 l 431 582 l 249 582 l 249 388 l 431 388 l 431 321 l 249 321 l 249 207 q 272 109 249 142 q 353 76 296 76 q 429 94 381 76 z "},"Ũ":{"ha":896,"x_min":121,"x_max":775,"o":"m 449 -17 q 209 76 297 -17 q 121 376 121 169 l 121 911 l 236 911 l 236 374 q 449 85 236 85 q 664 374 664 85 l 664 911 l 775 911 l 775 376 q 449 -17 775 -17 m 538 985 q 438 1022 493 985 q 361 1058 383 1058 q 307 988 315 1058 l 229 988 q 270 1097 235 1056 q 360 1139 306 1139 q 459 1102 404 1139 q 536 1065 514 1065 q 590 1136 582 1065 l 668 1136 q 627 1026 663 1068 q 538 985 592 985 z "},"ũ":{"ha":756,"x_min":104,"x_max":642,"o":"m 311 -17 q 104 247 104 -17 l 104 675 l 219 675 l 219 263 q 249 125 219 168 q 346 82 279 82 q 438 108 397 82 q 528 196 478 135 l 528 675 l 642 675 l 642 0 l 547 0 l 538 106 l 533 106 q 311 -17 429 -17 m 460 793 q 368 835 419 793 q 297 876 317 876 q 240 796 250 876 l 164 796 q 203 916 169 871 q 296 961 238 961 q 388 919 336 961 q 458 878 440 878 q 515 958 506 878 l 592 958 q 552 838 586 883 q 460 793 518 793 z "},"Ū":{"ha":896,"x_min":121,"x_max":775,"o":"m 449 -17 q 209 76 297 -17 q 121 376 121 169 l 121 911 l 236 911 l 236 374 q 449 85 236 85 q 664 374 664 85 l 664 911 l 775 911 l 775 376 q 449 -17 775 -17 m 276 1021 l 276 1100 l 621 1100 l 621 1021 l 276 1021 z "},"ū":{"ha":756,"x_min":104,"x_max":642,"o":"m 311 -17 q 104 247 104 -17 l 104 675 l 219 675 l 219 263 q 249 125 219 168 q 346 82 279 82 q 438 108 397 82 q 528 196 478 135 l 528 675 l 642 675 l 642 0 l 547 0 l 538 106 l 533 106 q 311 -17 429 -17 m 199 835 l 199 914 l 549 914 l 549 835 l 199 835 z "},"Ŭ":{"ha":896,"x_min":121,"x_max":775,"o":"m 449 -17 q 209 76 297 -17 q 121 376 121 169 l 121 911 l 236 911 l 236 374 q 449 85 236 85 q 664 374 664 85 l 664 911 l 775 911 l 775 376 q 449 -17 775 -17 m 579 1026 q 556 1003 579 1026 q 449 979 532 979 q 318 1026 365 979 q 264 1144 271 1074 l 343 1144 q 377 1073 350 1100 q 449 1046 404 1046 q 520 1073 493 1046 q 554 1144 547 1100 l 633 1144 q 579 1026 626 1074 z "},"ŭ":{"ha":756,"x_min":104,"x_max":642,"o":"m 311 -17 q 104 247 104 -17 l 104 675 l 219 675 l 219 263 q 249 125 219 168 q 346 82 279 82 q 438 108 397 82 q 528 196 478 135 l 528 675 l 642 675 l 642 0 l 547 0 l 538 106 l 533 106 q 311 -17 429 -17 m 378 793 q 244 853 290 793 q 192 988 197 913 l 268 988 q 302 903 274 939 q 378 868 331 868 q 453 903 425 868 q 488 988 481 939 l 564 988 q 511 852 558 911 q 378 793 464 793 z "},"Ů":{"ha":896,"x_min":121,"x_max":775,"o":"m 449 -17 q 209 76 297 -17 q 121 376 121 169 l 121 911 l 236 911 l 236 374 q 449 85 236 85 q 664 374 664 85 l 664 911 l 775 911 l 775 376 q 449 -17 775 -17 m 449 971 q 356 1004 392 971 q 319 1093 319 1038 q 356 1181 319 1147 q 449 1215 392 1215 q 541 1181 504 1215 q 578 1093 578 1147 q 541 1004 578 1038 q 449 971 504 971 m 449 1021 q 495 1040 476 1021 q 514 1093 514 1060 q 494 1144 514 1125 q 449 1164 475 1164 q 401 1144 419 1164 q 382 1093 382 1125 q 401 1040 382 1060 q 449 1021 419 1021 z "},"ů":{"ha":756,"x_min":104,"x_max":642,"o":"m 311 -17 q 104 247 104 -17 l 104 675 l 219 675 l 219 263 q 249 125 219 168 q 346 82 279 82 q 438 108 397 82 q 528 196 478 135 l 528 675 l 642 675 l 642 0 l 547 0 l 538 106 l 533 106 q 311 -17 429 -17 m 471 788 q 453 770 471 788 q 378 753 435 753 q 285 788 321 753 q 249 882 249 824 q 285 974 249 939 q 378 1010 321 1010 q 471 974 435 1010 q 507 882 507 939 q 471 788 507 824 m 330 826 q 339 815 330 826 q 378 804 349 804 q 426 826 407 804 q 444 882 444 847 q 426 937 444 915 q 378 958 407 958 q 330 937 349 958 q 311 882 311 915 q 330 826 311 847 z "},"Ű":{"ha":896,"x_min":121,"x_max":775,"o":"m 288 981 l 396 1144 l 510 1144 l 375 981 l 288 981 m 511 981 l 619 1144 l 733 1144 l 599 981 l 511 981 m 449 -17 q 209 76 297 -17 q 121 376 121 169 l 121 911 l 236 911 l 236 374 q 449 85 236 85 q 664 374 664 85 l 664 911 l 775 911 l 775 376 q 449 -17 775 -17 z "},"ű":{"ha":756,"x_min":104,"x_max":658,"o":"m 232 793 l 343 1019 l 449 1019 l 313 793 l 232 793 m 440 793 l 553 1019 l 658 1019 l 522 793 l 440 793 m 311 -17 q 104 247 104 -17 l 104 675 l 219 675 l 219 263 q 249 125 219 168 q 346 82 279 82 q 438 108 397 82 q 528 196 478 135 l 528 675 l 642 675 l 642 0 l 547 0 l 538 106 l 533 106 q 311 -17 429 -17 z "},"Ų":{"ha":896,"x_min":121,"x_max":775,"o":"m 486 -294 q 390 -262 428 -294 q 353 -174 353 -231 q 354 -149 353 -161 q 360 -126 356 -137 q 368 -107 365 -115 q 378 -87 371 -99 q 390 -71 386 -76 q 403 -54 393 -65 q 416 -41 414 -43 q 431 -28 418 -39 l 442 -15 q 121 376 121 -8 l 121 911 l 236 911 l 236 374 q 449 85 236 85 q 664 374 664 85 l 664 911 l 775 911 l 775 376 q 760 222 775 288 q 713 114 744 157 q 644 44 681 71 q 553 -10 608 17 q 472 -74 501 -35 q 443 -149 443 -112 q 463 -196 443 -179 q 510 -212 482 -212 q 565 -193 539 -212 l 597 -256 q 486 -294 549 -294 z "},"ų":{"ha":756,"x_min":104,"x_max":671,"o":"m 563 -286 q 472 -256 507 -286 q 436 -168 436 -225 q 549 6 436 -75 l 538 106 l 533 106 q 311 -17 429 -17 q 104 247 104 -17 l 104 675 l 219 675 l 219 263 q 249 124 219 167 q 346 82 278 82 q 438 108 397 82 q 528 196 478 135 l 528 675 l 642 675 l 642 0 q 521 -146 521 -60 q 540 -193 521 -176 q 585 -210 558 -210 q 642 -192 614 -210 l 671 -249 q 563 -286 624 -286 z "},"Ŵ":{"ha":1092,"x_min":32,"x_max":1058,"o":"m 350 981 l 486 1144 l 606 1144 l 742 981 l 643 981 l 549 1081 l 543 1081 l 449 981 l 350 981 m 225 0 l 32 911 l 151 911 l 247 415 q 274 268 256 365 q 300 121 292 171 l 306 121 q 339 275 317 175 q 369 415 361 375 l 496 911 l 601 911 l 728 415 q 794 121 739 367 l 800 121 q 851 415 833 318 l 947 911 l 1058 911 l 869 0 l 731 0 l 593 549 q 549 756 569 647 l 543 756 q 519 644 535 715 q 497 549 503 572 l 363 0 l 225 0 z "},"ŵ":{"ha":997,"x_min":33,"x_max":964,"o":"m 297 796 l 443 1019 l 557 1019 l 703 796 l 610 796 l 503 946 l 497 946 l 390 796 l 297 796 m 221 0 l 33 675 l 150 675 l 250 285 q 290 97 267 214 l 296 97 q 310 156 301 118 q 327 226 319 194 q 342 285 335 257 l 446 675 l 557 675 l 663 285 q 710 97 685 200 l 715 97 q 757 285 724 131 l 856 675 l 964 675 l 783 0 l 644 0 l 547 363 q 523 464 538 399 q 501 557 508 529 l 496 557 q 449 361 464 417 l 354 0 l 221 0 z "},"Ŷ":{"ha":661,"x_min":-1,"x_max":663,"o":"m 272 0 l 272 353 l -1 911 l 122 911 l 240 654 q 328 456 304 508 l 333 456 q 425 654 413 625 l 542 911 l 663 911 l 389 353 l 389 0 l 272 0 m 135 981 l 271 1144 l 390 1144 l 526 981 l 428 981 l 333 1081 l 328 1081 l 233 981 l 135 981 z "},"ŷ":{"ha":649,"x_min":17,"x_max":632,"o":"m 125 -290 q 46 -276 83 -290 l 68 -186 q 119 -196 100 -196 q 272 -51 224 -196 l 288 -1 l 17 675 l 135 675 l 272 301 q 338 111 300 224 l 343 111 q 375 217 354 147 q 400 301 396 286 l 521 675 l 632 675 l 378 -56 q 280 -228 339 -167 q 125 -290 221 -290 m 135 796 l 281 1019 l 394 1019 l 540 796 l 447 796 l 340 946 l 335 946 l 228 796 l 135 796 z "},"Ÿ":{"ha":661,"x_min":-1,"x_max":663,"o":"m 272 0 l 272 353 l -1 911 l 122 911 l 240 654 q 328 456 304 508 l 333 456 q 425 654 413 625 l 542 911 l 663 911 l 389 353 l 389 0 l 272 0 m 211 993 q 162 1013 181 993 q 143 1061 143 1032 q 162 1110 143 1092 q 211 1129 181 1129 q 260 1110 240 1129 q 279 1061 279 1092 q 260 1013 279 1032 q 211 993 240 993 m 450 993 q 401 1013 421 993 q 382 1061 382 1032 q 401 1110 382 1092 q 450 1129 421 1129 q 499 1110 481 1129 q 518 1061 518 1092 q 499 1013 518 1032 q 450 993 481 993 z "},"Ź":{"ha":749,"x_min":63,"x_max":690,"o":"m 63 0 l 63 69 l 542 814 l 106 814 l 106 911 l 686 911 l 686 843 l 206 99 l 690 99 l 690 0 l 63 0 m 314 981 l 439 1144 l 581 1144 l 421 981 l 314 981 z "},"ź":{"ha":590,"x_min":43,"x_max":554,"o":"m 232 796 l 363 1019 l 497 1019 l 333 796 l 232 796 m 43 0 l 43 61 l 399 582 l 82 582 l 82 675 l 543 675 l 543 614 l 188 93 l 554 93 l 554 0 l 43 0 z "},"Ż":{"ha":749,"x_min":63,"x_max":690,"o":"m 63 0 l 63 69 l 542 814 l 106 814 l 106 911 l 686 911 l 686 843 l 206 99 l 690 99 l 690 0 l 63 0 m 447 1013 q 435 1002 447 1013 q 390 992 424 992 q 334 1013 357 992 q 311 1067 311 1033 q 334 1119 311 1099 q 390 1140 357 1140 q 447 1119 424 1140 q 469 1067 469 1099 q 447 1013 469 1033 z "},"ż":{"ha":590,"x_min":43,"x_max":554,"o":"m 372 835 q 361 824 372 835 q 318 814 350 814 q 265 835 286 814 q 243 889 243 856 q 265 942 243 921 q 318 964 286 964 q 372 942 350 964 q 393 889 393 921 q 372 835 393 856 m 43 0 l 43 61 l 399 582 l 82 582 l 82 675 l 543 675 l 543 614 l 188 93 l 554 93 l 554 0 l 43 0 z "},"Ž":{"ha":749,"x_min":63,"x_max":690,"o":"m 63 0 l 63 69 l 542 814 l 106 814 l 106 911 l 686 911 l 686 843 l 206 99 l 690 99 l 690 0 l 63 0 m 331 981 l 194 1144 l 293 1144 l 388 1046 l 393 1046 l 488 1144 l 586 1144 l 450 981 l 331 981 z "},"ž":{"ha":590,"x_min":43,"x_max":554,"o":"m 261 796 l 115 1019 l 208 1019 l 315 869 l 321 869 l 428 1019 l 521 1019 l 375 796 l 261 796 m 43 0 l 43 61 l 399 582 l 82 582 l 82 675 l 543 675 l 543 614 l 188 93 l 554 93 l 554 0 l 43 0 z "},"ƀ":{"ha":756,"x_min":11,"x_max":704,"o":"m 228 449 l 228 150 q 393 79 310 79 q 532 146 478 79 q 586 321 586 213 q 543 482 586 422 q 408 542 500 542 q 228 449 325 542 m 228 664 l 225 543 q 436 638 335 638 q 635 552 565 638 q 704 322 704 467 q 619 76 704 168 q 413 -17 533 -17 q 219 69 314 -17 l 215 69 l 206 0 l 114 0 l 114 793 l 11 793 l 11 853 l 114 860 l 114 989 l 228 989 l 228 860 l 481 860 l 481 793 l 228 793 l 228 664 z "},"Ə":{"ha":914,"x_min":81,"x_max":842,"o":"m 725 397 l 199 397 q 274 163 204 247 q 454 79 343 79 q 642 161 571 79 q 725 397 714 243 m 229 742 l 172 821 q 460 928 283 928 q 740 806 639 928 q 842 458 842 683 q 738 108 842 233 q 454 -17 633 -17 q 180 109 279 -17 q 81 451 81 235 q 83 486 81 461 l 728 486 q 652 743 722 654 q 451 832 582 832 q 229 742 322 832 z "},"ƒ":{"ha":690,"x_min":25,"x_max":642,"o":"m 642 903 l 617 815 q 539 835 571 835 q 411 654 432 835 l 401 567 l 576 567 l 576 479 l 392 479 l 356 150 q 288 -61 340 13 q 126 -135 235 -135 q 25 -114 63 -135 l 46 -28 q 115 -42 78 -42 q 207 10 178 -42 q 249 175 236 63 l 282 479 l 161 479 l 161 561 l 257 567 l 292 567 l 300 644 q 371 858 317 788 q 533 928 425 928 q 642 903 589 928 z "},"Ɠ":{"ha":857,"x_min":72,"x_max":851,"o":"m 764 472 l 764 89 q 483 -17 663 -17 q 186 110 300 -17 q 72 456 72 236 q 189 800 72 672 q 490 928 306 928 q 617 911 554 928 q 608 965 608 936 q 651 1074 608 1032 q 765 1117 694 1117 q 851 1099 803 1117 l 829 1011 q 782 1024 794 1024 q 728 1002 747 1024 q 708 949 708 981 q 753 839 708 901 l 689 763 q 493 826 604 826 q 274 727 356 826 q 192 458 192 628 q 271 185 192 285 q 494 85 350 85 q 658 139 600 85 l 658 376 l 465 376 l 465 472 l 764 472 z "},"Ơ":{"ha":922,"x_min":76,"x_max":861,"o":"m 269 187 q 306 136 269 187 q 465 85 343 85 q 661 187 588 85 q 735 460 735 289 q 661 728 735 629 q 465 826 588 826 q 269 728 343 826 q 196 460 196 629 q 269 187 196 289 m 739 1079 l 829 1118 q 861 1007 861 1064 q 713 838 861 878 q 856 460 856 708 q 747 113 856 242 q 465 -17 639 -17 q 184 113 292 -17 q 76 460 76 242 q 184 801 76 675 q 465 928 292 928 q 646 885 564 928 q 758 999 758 907 q 739 1079 758 1040 z "},"ơ":{"ha":753,"x_min":63,"x_max":726,"o":"m 375 78 q 516 149 463 78 q 569 336 569 221 q 516 525 569 453 q 375 597 463 597 q 235 525 289 597 q 181 336 181 453 q 235 149 181 221 q 375 78 289 78 m 606 871 l 694 913 q 726 803 726 858 q 574 618 726 664 q 688 336 688 515 q 597 79 688 175 q 375 -17 506 -17 q 153 79 244 -17 q 63 336 63 175 q 153 596 63 500 q 375 692 244 692 q 506 663 444 692 q 625 794 625 686 q 606 871 625 836 z "},"Ư":{"ha":915,"x_min":121,"x_max":936,"o":"m 814 1107 l 904 1146 q 936 1035 936 1096 q 775 861 936 899 l 775 376 q 449 -17 775 -17 q 209 76 297 -17 q 121 376 121 169 l 121 911 l 236 911 l 236 374 q 449 85 236 85 q 664 374 664 85 l 664 911 l 710 911 q 803 945 771 919 q 835 1026 835 971 q 814 1107 835 1069 z "},"ư":{"ha":756,"x_min":104,"x_max":775,"o":"m 654 885 l 743 926 q 775 817 775 872 q 642 632 775 678 l 642 0 l 547 0 l 538 106 l 533 106 q 311 -17 429 -17 q 104 247 104 -17 l 104 675 l 219 675 l 219 263 q 249 125 219 168 q 346 82 279 82 q 438 108 397 82 q 528 196 478 135 l 528 675 l 557 675 q 674 808 674 693 q 654 885 674 846 z "},"ǂ":{"ha":400,"x_min":8,"x_max":390,"o":"m 390 460 l 247 460 l 247 289 l 390 289 l 390 224 l 247 224 l 247 -347 l 167 -347 l 167 224 l 8 224 l 8 282 l 115 289 l 167 289 l 167 460 l 8 460 l 8 519 l 115 525 l 167 525 l 167 1042 l 247 1042 l 247 525 l 390 525 l 390 460 z "},"Ǎ":{"ha":756,"x_min":4,"x_max":751,"o":"m 435 981 l 315 981 l 179 1144 l 278 1144 l 372 1046 l 378 1046 l 472 1144 l 571 1144 l 435 981 m 239 371 l 513 371 l 469 510 q 378 817 426 640 l 372 817 q 282 510 329 654 l 239 371 m 628 0 l 542 278 l 210 278 l 122 0 l 4 0 l 313 911 l 443 911 l 751 0 l 628 0 z "},"ǎ":{"ha":700,"x_min":72,"x_max":601,"o":"m 269 -17 q 128 35 183 -17 q 72 175 72 86 q 171 344 72 285 q 486 428 269 404 q 347 597 486 597 q 146 525 251 597 l 101 604 q 367 692 238 692 q 544 619 486 692 q 601 414 601 546 l 601 0 l 507 0 l 497 81 l 493 81 q 269 -17 375 -17 m 303 75 q 486 165 385 75 l 486 353 q 253 291 322 332 q 183 183 183 250 q 217 102 183 129 q 303 75 250 75 m 308 796 l 163 1019 l 256 1019 l 363 869 l 368 869 l 475 1019 l 568 1019 l 422 796 l 308 796 z "},"Ǐ":{"ha":365,"x_min":-14,"x_max":378,"o":"m 125 0 l 125 911 l 240 911 l 240 0 l 125 0 m 122 981 l -14 1144 l 85 1144 l 179 1046 l 185 1046 l 279 1144 l 378 1144 l 242 981 l 122 981 z "},"ǐ":{"ha":342,"x_min":-32,"x_max":374,"o":"m 114 796 l -32 1019 l 61 1019 l 168 869 l 174 869 l 281 1019 l 374 1019 l 228 796 l 114 796 m 114 0 l 114 675 l 228 675 l 228 0 l 114 0 z "},"Ǒ":{"ha":922,"x_min":72,"x_max":851,"o":"m 401 981 l 265 1144 l 364 1144 l 458 1046 l 464 1046 l 558 1144 l 657 1144 l 521 981 l 401 981 m 743 113 q 689 48 743 113 q 461 -17 635 -17 q 180 113 288 -17 q 72 460 72 242 q 180 801 72 675 q 461 928 288 928 q 743 801 635 928 q 851 460 851 675 q 743 113 851 242 m 265 187 q 302 136 265 187 q 461 85 339 85 q 657 187 583 85 q 731 460 731 289 q 657 728 731 629 q 461 826 583 826 q 265 728 339 826 q 192 460 192 629 q 265 187 192 289 z "},"ǒ":{"ha":753,"x_min":63,"x_max":688,"o":"m 319 796 l 174 1019 l 267 1019 l 374 869 l 379 869 l 486 1019 l 579 1019 l 433 796 l 319 796 m 597 79 q 551 31 597 79 q 375 -17 506 -17 q 153 79 244 -17 q 63 336 63 175 q 153 596 63 500 q 375 692 244 692 q 597 596 506 692 q 688 336 688 500 q 597 79 688 175 m 375 78 q 516 149 463 78 q 569 336 569 221 q 516 525 569 453 q 375 597 463 597 q 235 525 289 597 q 181 336 181 453 q 235 149 181 221 q 375 78 289 78 z "},"Ǔ":{"ha":896,"x_min":121,"x_max":775,"o":"m 389 981 l 253 1144 l 351 1144 l 446 1046 l 451 1046 l 546 1144 l 644 1144 l 508 981 l 389 981 m 449 -17 q 209 76 297 -17 q 121 376 121 169 l 121 911 l 236 911 l 236 374 q 449 85 236 85 q 664 374 664 85 l 664 911 l 775 911 l 775 376 q 449 -17 775 -17 z "},"ǔ":{"ha":756,"x_min":104,"x_max":642,"o":"m 321 796 l 175 1019 l 268 1019 l 375 869 l 381 869 l 488 1019 l 581 1019 l 435 796 l 321 796 m 311 -17 q 104 247 104 -17 l 104 675 l 219 675 l 219 263 q 249 125 219 168 q 346 82 279 82 q 438 108 397 82 q 528 196 478 135 l 528 675 l 642 675 l 642 0 l 547 0 l 538 106 l 533 106 q 311 -17 429 -17 z "},"Ǖ":{"ha":896,"x_min":121,"x_max":775,"o":"m 374 1011 q 366 1002 374 1011 q 329 993 357 993 q 283 1011 301 993 q 265 1057 265 1029 q 283 1101 265 1083 q 329 1119 301 1119 q 374 1101 356 1119 q 392 1057 392 1083 q 374 1011 392 1029 m 276 1196 l 276 1260 l 621 1260 l 621 1196 l 276 1196 m 614 1011 q 605 1002 614 1011 q 568 993 596 993 q 523 1011 540 993 q 506 1057 506 1029 q 524 1101 506 1083 q 568 1119 542 1119 q 614 1101 596 1119 q 632 1057 632 1083 q 614 1011 632 1029 m 449 -17 q 209 76 297 -17 q 121 376 121 169 l 121 911 l 236 911 l 236 374 q 449 85 236 85 q 664 374 664 85 l 664 911 l 775 911 l 775 376 q 449 -17 775 -17 z "},"ǖ":{"ha":756,"x_min":104,"x_max":642,"o":"m 311 -17 q 104 247 104 -17 l 104 675 l 219 675 l 219 263 q 249 125 219 168 q 346 82 279 82 q 438 108 397 82 q 528 196 478 135 l 528 675 l 642 675 l 642 0 l 547 0 l 538 106 l 533 106 q 311 -17 429 -17 m 303 835 q 294 826 303 835 q 258 817 285 817 q 213 835 232 817 q 194 879 194 853 q 213 924 194 906 q 258 943 231 943 q 303 925 285 943 q 321 879 321 907 q 303 835 321 853 m 206 1042 l 206 1107 l 549 1107 l 549 1042 l 206 1042 m 542 835 q 533 826 542 835 q 497 817 524 817 q 453 835 471 817 q 435 879 435 853 q 453 925 435 907 q 497 943 471 943 q 543 924 525 943 q 561 879 561 906 q 542 835 561 853 z "},"Ǘ":{"ha":896,"x_min":121,"x_max":775,"o":"m 374 1011 q 366 1002 374 1011 q 329 993 357 993 q 283 1011 301 993 q 265 1057 265 1029 q 283 1101 265 1083 q 329 1119 301 1119 q 374 1101 356 1119 q 392 1057 392 1083 q 374 1011 392 1029 m 378 1165 l 501 1319 l 628 1319 l 472 1165 l 378 1165 m 614 1011 q 605 1002 614 1011 q 568 993 596 993 q 523 1011 540 993 q 506 1057 506 1029 q 524 1101 506 1083 q 568 1119 542 1119 q 614 1101 596 1119 q 632 1057 632 1083 q 614 1011 632 1029 m 449 -17 q 209 76 297 -17 q 121 376 121 169 l 121 911 l 236 911 l 236 374 q 449 85 236 85 q 664 374 664 85 l 664 911 l 775 911 l 775 376 q 449 -17 775 -17 z "},"ǘ":{"ha":756,"x_min":104,"x_max":642,"o":"m 303 835 q 294 826 303 835 q 258 817 285 817 q 213 835 232 817 q 194 879 194 853 q 213 924 194 906 q 258 943 231 943 q 303 925 285 943 q 321 879 321 907 q 303 835 321 853 m 304 1000 l 418 1143 l 528 1143 l 385 1000 l 304 1000 m 542 835 q 533 826 542 835 q 497 817 524 817 q 453 835 471 817 q 435 879 435 853 q 453 925 435 907 q 497 943 471 943 q 543 924 525 943 q 561 879 561 906 q 542 835 561 853 m 311 -17 q 104 247 104 -17 l 104 675 l 219 675 l 219 263 q 249 125 219 168 q 346 82 279 82 q 438 108 397 82 q 528 196 478 135 l 528 675 l 642 675 l 642 0 l 547 0 l 538 106 l 533 106 q 311 -17 429 -17 z "},"Ǚ":{"ha":896,"x_min":121,"x_max":775,"o":"m 393 1165 l 260 1319 l 353 1319 l 446 1225 l 451 1225 l 544 1319 l 638 1319 l 504 1165 l 393 1165 m 374 1011 q 366 1002 374 1011 q 329 993 357 993 q 283 1011 301 993 q 265 1057 265 1029 q 283 1101 265 1083 q 329 1119 301 1119 q 374 1101 356 1119 q 392 1057 392 1083 q 374 1011 392 1029 m 614 1011 q 605 1002 614 1011 q 568 993 596 993 q 523 1011 540 993 q 506 1057 506 1029 q 524 1101 506 1083 q 568 1119 542 1119 q 614 1101 596 1119 q 632 1057 632 1083 q 614 1011 632 1029 m 449 -17 q 209 76 297 -17 q 121 376 121 169 l 121 911 l 236 911 l 236 374 q 449 85 236 85 q 664 374 664 85 l 664 911 l 775 911 l 775 376 q 449 -17 775 -17 z "},"ǚ":{"ha":756,"x_min":104,"x_max":642,"o":"m 329 1000 l 203 1143 l 288 1143 l 375 1054 l 381 1054 l 468 1143 l 553 1143 l 426 1000 l 329 1000 m 303 835 q 294 826 303 835 q 258 817 285 817 q 213 835 232 817 q 194 879 194 853 q 213 924 194 906 q 258 943 231 943 q 303 925 285 943 q 321 879 321 907 q 303 835 321 853 m 542 835 q 533 826 542 835 q 497 817 524 817 q 453 835 471 817 q 435 879 435 853 q 453 925 435 907 q 497 943 471 943 q 543 924 525 943 q 561 879 561 906 q 542 835 561 853 m 311 -17 q 104 247 104 -17 l 104 675 l 219 675 l 219 263 q 249 125 219 168 q 346 82 279 82 q 438 108 397 82 q 528 196 478 135 l 528 675 l 642 675 l 642 0 l 547 0 l 538 106 l 533 106 q 311 -17 429 -17 z "},"Ǜ":{"ha":896,"x_min":121,"x_max":775,"o":"m 374 1011 q 366 1002 374 1011 q 329 993 357 993 q 283 1011 301 993 q 265 1057 265 1029 q 283 1101 265 1083 q 329 1119 301 1119 q 374 1101 356 1119 q 392 1057 392 1083 q 374 1011 392 1029 m 425 1165 l 269 1319 l 396 1319 l 519 1165 l 425 1165 m 614 1011 q 605 1002 614 1011 q 568 993 596 993 q 523 1011 540 993 q 506 1057 506 1029 q 524 1101 506 1083 q 568 1119 542 1119 q 614 1101 596 1119 q 632 1057 632 1083 q 614 1011 632 1029 m 449 -17 q 209 76 297 -17 q 121 376 121 169 l 121 911 l 236 911 l 236 374 q 449 85 236 85 q 664 374 664 85 l 664 911 l 775 911 l 775 376 q 449 -17 775 -17 z "},"ǜ":{"ha":756,"x_min":104,"x_max":642,"o":"m 311 -17 q 104 247 104 -17 l 104 675 l 219 675 l 219 263 q 249 125 219 168 q 346 82 279 82 q 438 108 397 82 q 528 196 478 135 l 528 675 l 642 675 l 642 0 l 547 0 l 538 106 l 533 106 q 311 -17 429 -17 m 303 835 q 294 826 303 835 q 258 817 285 817 q 213 835 232 817 q 194 879 194 853 q 213 924 194 906 q 258 943 231 943 q 303 925 285 943 q 321 879 321 907 q 303 835 321 853 m 371 1000 l 228 1143 l 338 1143 l 451 1000 l 371 1000 m 542 835 q 533 826 542 835 q 497 817 524 817 q 453 835 471 817 q 435 879 435 853 q 453 925 435 907 q 497 943 471 943 q 543 924 525 943 q 561 879 561 906 q 542 835 561 853 z "},"Ǣ":{"ha":1142,"x_min":11,"x_max":1074,"o":"m 956 1111 l 956 1032 l 611 1032 l 611 1111 l 956 1111 m 318 358 l 557 358 l 557 819 l 551 819 q 403 522 478 671 l 318 358 m 674 99 l 1074 99 l 1074 0 l 557 0 l 557 265 l 271 265 l 133 0 l 11 0 l 489 911 l 1060 911 l 1060 814 l 674 814 l 674 528 l 996 528 l 996 429 l 674 429 l 674 99 z "},"ǣ":{"ha":1090,"x_min":81,"x_max":1038,"o":"m 279 -17 q 136 35 192 -17 q 81 175 81 86 q 178 344 81 285 q 489 428 276 404 q 351 597 489 597 q 156 525 261 597 l 110 604 q 365 692 246 692 q 558 549 513 692 q 781 692 644 692 q 970 606 903 692 q 1038 374 1038 521 q 1033 310 1038 335 l 596 310 q 659 141 600 206 q 806 76 718 76 q 969 132 882 76 l 1011 53 q 792 -17 903 -17 q 554 110 651 -17 q 279 -17 413 -17 m 311 75 q 415 103 360 75 q 515 179 471 131 q 489 318 492 233 l 489 353 q 263 291 332 332 q 193 183 193 250 q 226 102 193 129 q 311 75 258 75 m 596 386 l 938 386 q 897 546 938 490 q 778 601 856 601 q 656 542 707 601 q 596 386 606 483 m 399 835 l 399 914 l 749 914 l 749 835 l 399 835 z "},"Ǧ":{"ha":857,"x_min":72,"x_max":764,"o":"m 432 981 l 296 1144 l 394 1144 l 489 1046 l 494 1046 l 589 1144 l 688 1144 l 551 981 l 432 981 m 483 -17 q 186 110 300 -17 q 72 456 72 236 q 189 800 72 672 q 490 928 306 928 q 753 815 646 928 l 689 740 q 493 826 606 826 q 274 727 356 826 q 192 458 192 628 q 271 185 192 285 q 494 85 350 85 q 658 139 600 85 l 658 376 l 465 376 l 465 472 l 764 472 l 764 89 q 483 -17 663 -17 z "},"ǧ":{"ha":700,"x_min":63,"x_max":683,"o":"m 315 796 l 169 1019 l 263 1019 l 369 869 l 375 869 l 482 1019 l 575 1019 l 429 796 l 315 796 m 342 -311 q 139 -263 215 -311 q 63 -129 63 -215 q 161 24 63 -43 l 161 29 q 101 139 101 67 q 175 264 101 214 l 175 269 q 88 451 88 340 q 161 625 88 558 q 342 692 235 692 q 438 675 394 692 l 672 675 l 672 588 l 533 588 q 589 449 589 535 q 518 278 589 343 q 342 214 447 214 q 240 238 288 214 q 197 157 197 200 q 317 83 197 83 l 447 83 q 625 44 567 83 q 683 -78 683 6 q 589 -243 683 -175 q 342 -311 494 -311 m 240 335 q 261 313 240 335 q 342 290 282 290 q 443 335 401 290 q 485 451 485 379 q 444 566 485 524 q 342 608 403 608 q 240 566 281 608 q 199 451 199 524 q 240 335 199 379 m 358 -232 q 512 -191 451 -232 q 572 -94 572 -150 q 538 -30 572 -49 q 436 -11 504 -11 l 319 -11 q 232 0 271 -11 q 163 -114 163 -50 q 215 -200 163 -168 q 358 -232 267 -232 z "},"Ǫ":{"ha":922,"x_min":72,"x_max":851,"o":"m 501 -294 q 407 -262 444 -294 q 369 -174 369 -231 q 454 -15 369 -86 q 175 117 278 -11 q 72 460 72 246 q 180 801 72 675 q 461 928 288 928 q 743 801 635 928 q 851 460 851 675 q 780 167 851 279 q 567 -10 708 56 q 486 -72 514 -33 q 458 -149 458 -110 q 478 -196 458 -179 q 525 -212 497 -212 q 581 -193 554 -212 l 613 -256 q 501 -294 564 -294 m 265 187 q 302 136 265 187 q 461 85 339 85 q 657 187 583 85 q 731 460 731 289 q 657 728 731 629 q 461 826 583 826 q 265 728 339 826 q 192 460 192 629 q 265 187 192 289 z "},"ǫ":{"ha":753,"x_min":64,"x_max":689,"o":"m 410 -286 q 320 -255 356 -286 q 285 -168 285 -224 q 363 -15 285 -79 q 150 86 236 -8 q 64 336 64 181 q 155 596 64 500 q 376 692 246 692 q 598 596 507 692 q 689 336 689 500 q 632 123 689 203 q 468 -6 575 43 q 396 -66 422 -26 q 369 -146 369 -106 q 388 -193 369 -176 q 433 -210 407 -210 q 490 -192 461 -210 l 519 -249 q 410 -286 472 -286 m 376 78 q 517 149 464 78 q 571 336 571 221 q 517 525 571 453 q 376 597 464 597 q 236 525 290 597 q 182 336 182 453 q 236 149 182 221 q 376 78 290 78 z "},"Ǵ":{"ha":857,"x_min":72,"x_max":764,"o":"m 414 981 l 539 1144 l 681 1144 l 521 981 l 414 981 m 483 -17 q 186 110 300 -17 q 72 456 72 236 q 189 800 72 672 q 490 928 306 928 q 753 815 646 928 l 689 740 q 493 826 606 826 q 274 727 356 826 q 192 458 192 628 q 271 185 192 285 q 494 85 350 85 q 658 139 600 85 l 658 376 l 465 376 l 465 472 l 764 472 l 764 89 q 483 -17 663 -17 z "},"ǵ":{"ha":700,"x_min":63,"x_max":683,"o":"m 286 796 l 417 1019 l 551 1019 l 388 796 l 286 796 m 342 -311 q 139 -263 215 -311 q 63 -129 63 -215 q 161 24 63 -43 l 161 29 q 101 139 101 67 q 175 264 101 214 l 175 269 q 88 451 88 340 q 161 625 88 558 q 342 692 235 692 q 438 675 394 692 l 672 675 l 672 588 l 533 588 q 589 449 589 535 q 518 278 589 343 q 342 214 447 214 q 240 238 288 214 q 197 157 197 200 q 317 83 197 83 l 447 83 q 625 44 567 83 q 683 -78 683 6 q 589 -243 683 -175 q 342 -311 494 -311 m 240 335 q 261 313 240 335 q 342 290 282 290 q 443 335 401 290 q 485 451 485 379 q 444 566 485 524 q 342 608 403 608 q 240 566 281 608 q 199 451 199 524 q 240 335 199 379 m 358 -232 q 512 -191 451 -232 q 572 -94 572 -150 q 538 -30 572 -49 q 436 -11 504 -11 l 319 -11 q 232 0 271 -11 q 163 -114 163 -50 q 215 -200 163 -168 q 358 -232 267 -232 z "},"Ǹ":{"ha":899,"x_min":125,"x_max":774,"o":"m 424 981 l 264 1144 l 406 1144 l 531 981 l 424 981 m 125 0 l 125 911 l 244 911 l 574 339 l 672 150 l 678 150 q 664 440 664 379 l 664 911 l 774 911 l 774 0 l 654 0 l 324 574 l 225 761 l 219 761 q 235 476 235 560 l 235 0 l 125 0 z "},"ǹ":{"ha":760,"x_min":114,"x_max":654,"o":"m 389 796 l 225 1019 l 360 1019 l 490 796 l 389 796 m 114 0 l 114 675 l 208 675 l 218 578 l 222 578 q 449 692 336 692 q 654 428 654 692 l 654 0 l 540 0 l 540 413 q 510 550 540 507 q 413 593 479 593 q 324 569 364 593 q 228 489 283 544 l 228 0 l 114 0 z "},"Ǽ":{"ha":1142,"x_min":11,"x_max":1074,"o":"m 974 1156 l 814 992 l 707 992 l 832 1156 l 974 1156 m 318 358 l 557 358 l 557 819 l 551 819 q 403 522 478 671 l 318 358 m 674 99 l 1074 99 l 1074 0 l 557 0 l 557 265 l 271 265 l 133 0 l 11 0 l 489 911 l 1060 911 l 1060 814 l 674 814 l 674 528 l 996 528 l 996 429 l 674 429 l 674 99 z "},"ǽ":{"ha":1090,"x_min":81,"x_max":1038,"o":"m 488 796 l 618 1019 l 753 1019 l 589 796 l 488 796 m 279 -17 q 136 35 192 -17 q 81 175 81 86 q 178 344 81 285 q 489 428 276 404 q 351 597 489 597 q 156 525 261 597 l 110 604 q 365 692 246 692 q 558 549 513 692 q 781 692 644 692 q 970 606 903 692 q 1038 374 1038 521 q 1033 310 1038 335 l 596 310 q 659 141 600 206 q 806 76 718 76 q 969 132 882 76 l 1011 53 q 792 -17 903 -17 q 554 110 651 -17 q 279 -17 413 -17 m 311 75 q 415 103 360 75 q 515 179 471 131 q 489 318 492 233 l 489 353 q 263 291 332 332 q 193 183 193 250 q 226 102 193 129 q 311 75 258 75 m 596 386 l 938 386 q 897 546 938 490 q 778 601 856 601 q 656 542 707 601 q 596 386 606 483 z "},"Ș":{"ha":742,"x_min":58,"x_max":688,"o":"m 378 -17 q 58 118 189 -17 l 128 199 q 379 85 238 85 q 519 125 468 85 q 569 233 569 165 q 560 291 569 267 q 524 335 550 315 q 479 365 499 354 q 418 394 460 375 l 288 451 q 103 686 103 529 q 184 859 103 790 q 389 928 265 928 q 658 815 549 928 l 596 740 q 389 826 506 826 q 266 790 313 826 q 219 693 219 754 q 231 638 219 663 q 269 595 243 614 q 315 567 296 576 q 371 542 335 557 l 500 486 q 639 392 590 447 q 688 243 688 336 q 603 58 688 132 q 378 -17 518 -17 m 258 -300 l 247 -244 q 365 -223 332 -239 q 399 -178 399 -207 q 300 -119 399 -128 l 325 -67 q 451 -101 414 -76 q 488 -174 488 -126 q 258 -300 488 -289 z "},"ș":{"ha":582,"x_min":39,"x_max":538,"o":"m 290 -17 q 39 76 151 -17 l 96 153 q 294 72 196 72 q 393 102 358 72 q 428 178 428 132 q 415 222 428 203 q 376 258 403 242 q 331 283 350 274 q 274 306 311 292 q 200 335 229 321 q 138 372 171 349 q 89 428 106 396 q 72 500 72 460 q 135 638 72 583 q 304 692 197 692 q 514 615 419 692 l 460 543 q 306 603 381 603 q 214 575 246 603 q 182 506 182 547 q 205 455 182 478 q 248 422 228 432 q 318 394 268 413 q 332 389 328 390 q 392 365 371 374 q 445 338 413 357 q 494 301 478 319 q 524 252 511 282 q 538 185 538 222 q 472 41 538 99 q 290 -17 406 -17 m 189 -300 l 178 -244 q 296 -223 263 -239 q 329 -178 329 -207 q 231 -119 329 -128 l 256 -67 q 381 -101 344 -76 q 418 -174 418 -126 q 189 -300 418 -289 z "},"Ț":{"ha":744,"x_min":39,"x_max":706,"o":"m 253 -300 l 242 -244 q 360 -223 326 -239 q 393 -178 393 -207 q 294 -119 393 -128 l 319 -67 q 445 -101 408 -76 q 482 -174 482 -126 q 253 -300 482 -289 m 314 0 l 314 814 l 39 814 l 39 911 l 706 911 l 706 814 l 431 814 l 431 0 l 314 0 z "},"ț":{"ha":469,"x_min":33,"x_max":451,"o":"m 175 -300 l 164 -244 q 282 -223 249 -239 q 315 -178 315 -207 q 217 -119 315 -128 l 242 -67 q 367 -101 331 -76 q 404 -174 404 -126 q 175 -300 404 -289 m 326 -17 q 133 208 133 -17 l 133 582 l 33 582 l 33 668 l 139 675 l 153 864 l 249 864 l 249 675 l 431 675 l 431 582 l 249 582 l 249 207 q 272 109 249 142 q 353 76 296 76 q 429 94 381 76 l 451 8 q 326 -17 376 -17 z "},"ȷ":{"ha":343,"x_min":-56,"x_max":229,"o":"m 44 -301 q -56 -283 -11 -301 l -32 -197 q 32 -208 1 -208 q 97 -176 79 -208 q 115 -76 115 -143 l 115 675 l 229 675 l 229 -76 q 44 -301 229 -301 z "},"Ƀ":{"ha":838,"x_min":42,"x_max":785,"o":"m 264 88 l 424 88 q 608 135 543 88 q 672 278 672 183 q 424 451 672 451 l 264 451 l 264 311 l 475 311 l 475 246 l 264 246 l 264 88 m 264 825 l 264 528 l 400 528 q 621 683 621 528 q 404 825 621 825 l 264 825 m 574 500 l 574 494 q 785 272 785 461 q 691 69 785 139 q 440 0 597 0 l 149 0 l 149 246 l 42 246 l 42 306 l 149 311 l 149 911 l 419 911 q 649 858 565 911 q 732 692 732 804 q 692 572 732 622 q 574 500 651 521 z "},"ɐ":{"ha":711,"x_min":104,"x_max":633,"o":"m 375 -17 q 170 60 236 -17 q 104 272 104 136 l 104 675 l 199 675 l 208 581 l 211 581 q 451 692 319 692 q 583 645 533 692 q 633 515 633 599 q 533 335 633 400 q 218 247 433 271 q 259 126 219 175 q 390 78 299 78 q 582 150 479 78 l 626 71 q 375 -17 497 -17 m 218 322 q 451 386 382 343 q 521 500 521 429 q 491 575 521 550 q 414 600 461 600 q 218 494 318 600 l 218 322 z "},"ɑ":{"ha":771,"x_min":65,"x_max":657,"o":"m 344 -17 q 140 76 215 -17 q 65 336 65 169 q 152 593 65 494 q 360 692 239 692 q 551 610 458 692 l 554 610 l 564 675 l 657 675 l 657 0 l 563 0 l 553 79 l 549 79 q 344 -17 450 -17 m 369 79 q 542 172 458 79 l 542 525 q 378 596 463 596 q 240 524 296 596 q 183 338 183 451 q 233 148 183 217 q 369 79 282 79 z "},"ɒ":{"ha":771,"x_min":114,"x_max":704,"o":"m 413 -17 q 219 65 318 -17 l 215 65 l 207 0 l 114 0 l 114 675 l 208 675 l 218 596 l 222 596 q 438 692 333 692 q 635 599 565 692 q 704 347 704 507 q 619 83 704 182 q 413 -17 533 -17 m 393 79 q 532 152 478 79 q 586 347 586 225 q 408 596 586 596 q 228 504 331 596 l 228 150 q 393 79 313 79 z "},"ɓ":{"ha":771,"x_min":114,"x_max":704,"o":"m 413 -17 q 219 67 314 -17 l 215 67 l 206 0 l 114 0 l 114 746 q 174 935 114 865 q 349 1006 233 1006 q 463 983 408 1006 l 436 896 q 360 913 399 913 q 228 744 232 913 l 225 588 q 436 682 335 682 q 635 591 565 682 q 704 343 704 500 q 619 81 704 179 q 413 -17 533 -17 m 393 79 q 532 151 478 79 q 586 342 586 222 q 408 586 586 586 q 228 493 325 586 l 228 150 q 393 79 310 79 z "},"ɔ":{"ha":633,"x_min":35,"x_max":569,"o":"m 253 -17 q 35 69 129 -17 l 83 146 q 242 78 161 78 q 392 149 333 78 q 451 336 451 221 q 395 525 451 453 q 253 597 339 597 q 106 538 169 597 l 47 613 q 265 692 139 692 q 481 597 393 692 q 569 336 569 501 q 479 78 569 174 q 253 -17 389 -17 z "},"ɕ":{"ha":633,"x_min":64,"x_max":603,"o":"m 394 75 q 477 96 444 75 q 510 149 510 117 q 491 192 510 174 q 438 211 472 211 q 279 111 361 211 q 394 75 331 75 m 586 613 l 531 542 q 393 601 464 601 q 238 528 299 601 q 176 336 176 454 q 218 176 176 244 q 444 293 326 293 q 560 253 518 293 q 603 150 603 214 q 545 31 603 79 q 392 -17 488 -17 q 224 28 297 -17 q 171 -96 192 -31 l 79 -57 q 150 86 113 26 q 64 336 64 183 q 158 596 64 500 q 389 692 253 692 q 586 613 499 692 z "},"ɖ":{"ha":771,"x_min":65,"x_max":799,"o":"m 714 -244 q 546 -54 546 -244 l 547 78 q 344 -17 447 -17 q 140 76 215 -17 q 65 336 65 169 q 151 594 65 496 q 358 692 238 692 q 547 614 451 692 l 542 729 l 542 1006 l 657 1006 l 657 -29 q 672 -121 657 -90 q 726 -151 688 -151 q 776 -139 744 -151 l 799 -226 q 714 -244 763 -244 m 369 79 q 542 172 458 79 l 542 525 q 378 596 463 596 q 240 524 296 596 q 183 338 183 451 q 233 148 183 217 q 369 79 282 79 z "},"ɗ":{"ha":771,"x_min":65,"x_max":804,"o":"m 344 -17 q 140 76 215 -17 q 65 336 65 169 q 151 594 65 496 q 358 692 238 692 q 547 614 451 692 l 546 799 q 591 953 546 899 q 726 1008 636 1008 q 804 994 769 1008 l 782 907 q 739 915 757 915 q 657 788 657 915 l 657 0 l 563 0 l 553 79 l 549 79 q 344 -17 450 -17 m 369 79 q 542 172 458 79 l 542 525 q 378 596 463 596 q 240 524 296 596 q 183 338 183 451 q 233 148 183 217 q 369 79 282 79 z "},"ɘ":{"ha":689,"x_min":51,"x_max":625,"o":"m 307 -17 q 79 53 188 -17 l 119 128 q 293 75 201 75 q 448 138 390 75 q 511 310 506 201 l 57 310 q 51 375 51 343 q 128 606 51 519 q 335 692 206 692 q 542 595 460 692 q 625 336 625 499 q 536 78 625 174 q 307 -17 447 -17 m 153 392 l 513 392 q 456 547 503 492 q 332 601 408 601 q 202 547 251 601 q 153 392 153 492 z "},"ə":{"ha":689,"x_min":51,"x_max":625,"o":"m 331 -17 q 126 71 201 -17 q 51 308 51 158 q 57 375 51 342 l 511 375 q 453 540 506 478 q 310 601 400 601 q 135 543 224 601 l 94 622 q 328 692 196 692 q 542 597 458 692 q 625 339 625 501 q 541 81 625 178 q 331 -17 457 -17 m 328 75 q 454 132 406 75 q 513 293 503 189 l 153 293 q 199 131 153 186 q 328 75 246 75 z "},"ɚ":{"ha":900,"x_min":51,"x_max":928,"o":"m 515 376 l 157 231 q 221 115 171 157 q 343 74 271 74 q 470 145 422 74 q 518 322 518 217 q 515 376 518 343 m 897 414 l 928 354 q 836 319 882 319 q 753 351 790 319 q 703 453 717 382 l 619 419 q 626 332 626 374 q 549 84 626 185 q 346 -17 471 -17 q 139 66 215 -17 q 51 274 63 149 l 500 457 q 310 601 453 601 q 138 543 224 601 l 96 622 q 322 692 197 692 q 492 641 419 692 q 599 497 564 590 l 711 543 l 772 519 q 794 419 778 444 q 842 393 810 393 q 897 414 871 393 z "},"ɛ":{"ha":611,"x_min":69,"x_max":582,"o":"m 346 -17 q 149 39 228 -17 q 69 186 69 94 q 112 296 69 254 q 219 356 154 338 l 219 361 q 135 420 165 379 q 106 510 106 461 q 176 645 106 599 q 351 692 246 692 q 556 625 463 692 l 510 549 q 354 601 428 601 q 258 574 296 601 q 219 496 219 546 q 259 420 219 449 q 376 392 299 392 l 453 392 l 453 310 l 356 310 q 228 281 274 310 q 183 196 183 251 q 232 108 183 140 q 358 75 281 75 q 533 136 449 75 l 582 60 q 346 -17 475 -17 z "},"ɜ":{"ha":633,"x_min":51,"x_max":564,"o":"m 292 -17 q 51 60 160 -17 l 100 136 q 275 75 186 75 q 401 108 353 75 q 450 196 450 140 q 406 281 450 251 q 278 310 361 310 l 182 310 l 182 392 l 257 392 q 374 420 335 392 q 414 496 414 449 q 378 574 414 546 q 285 601 343 601 q 124 549 206 601 l 78 625 q 293 692 175 692 q 461 645 394 692 q 528 510 528 599 q 498 420 528 461 q 414 361 468 379 l 414 356 q 522 296 479 338 q 564 186 564 254 q 486 39 564 94 q 292 -17 408 -17 z "},"ɞ":{"ha":758,"x_min":69,"x_max":696,"o":"m 360 -17 q 152 39 235 -17 q 69 186 69 94 q 112 296 69 254 q 219 356 154 338 l 219 361 q 135 420 165 379 q 106 510 106 461 q 176 645 106 599 q 356 692 246 692 q 599 599 503 692 q 696 336 696 506 q 601 76 696 168 q 360 -17 507 -17 m 361 75 q 520 143 463 75 q 578 336 578 211 q 519 532 578 463 q 357 601 460 601 q 258 574 296 601 q 219 496 219 546 q 258 420 219 449 q 371 392 296 392 l 408 392 l 408 310 l 350 310 q 226 281 269 310 q 183 196 183 251 q 231 108 183 140 q 361 75 279 75 z "},"ɟ":{"ha":375,"x_min":-40,"x_max":360,"o":"m 360 388 l 360 321 l 244 321 l 244 -76 q 60 -301 244 -301 q -40 -283 4 -301 l -17 -197 q 47 -208 17 -208 q 113 -176 94 -208 q 131 -76 131 -143 l 131 321 l 11 321 l 11 381 l 131 388 l 131 675 l 244 675 l 244 388 l 360 388 z "},"ɠ":{"ha":776,"x_min":69,"x_max":807,"o":"m 360 -300 q 118 -226 228 -300 l 160 -146 q 360 -208 253 -208 q 497 -161 450 -208 q 546 -31 543 -114 l 547 97 q 347 7 454 7 q 144 98 219 7 q 69 347 69 189 q 156 596 69 500 q 363 692 243 692 q 549 614 456 692 l 547 671 q 593 819 547 765 q 729 874 639 874 q 807 860 772 874 l 785 772 q 742 781 765 781 q 660 653 660 781 l 660 -33 q 581 -229 660 -158 q 360 -300 503 -300 m 372 101 q 546 194 458 101 l 546 525 q 381 596 465 596 q 242 526 299 596 q 186 349 186 456 q 235 168 186 235 q 372 101 285 101 z "},"ɡ":{"ha":776,"x_min":69,"x_max":660,"o":"m 360 -300 q 118 -226 228 -300 l 160 -146 q 360 -208 253 -208 q 497 -161 450 -208 q 546 -31 543 -114 l 547 97 q 347 7 454 7 q 144 98 219 7 q 69 347 69 189 q 156 596 69 500 q 363 692 243 692 q 551 613 464 692 l 554 613 l 564 675 l 660 675 l 660 -33 q 581 -229 660 -158 q 360 -300 503 -300 m 372 101 q 546 194 458 101 l 546 525 q 381 596 465 596 q 242 526 299 596 q 186 349 186 456 q 235 168 186 235 q 372 101 285 101 z "},"ɢ":{"ha":690,"x_min":64,"x_max":622,"o":"m 389 -17 q 156 77 247 -17 q 64 339 64 171 q 158 596 64 500 q 396 692 253 692 q 611 608 519 692 l 556 538 q 401 601 481 601 q 242 531 306 601 q 179 339 179 460 q 239 146 179 217 q 399 75 299 75 q 521 117 475 75 l 521 282 l 371 282 l 371 364 l 622 364 l 622 68 q 389 -17 532 -17 z "},"ɣ":{"ha":649,"x_min":17,"x_max":632,"o":"m 329 15 l 324 15 q 272 -158 272 -87 q 287 -212 272 -192 q 328 -232 301 -232 q 368 -212 354 -232 q 382 -158 382 -192 q 329 15 382 -86 m 632 675 l 401 74 q 445 -16 432 13 q 469 -82 458 -44 q 481 -150 481 -119 q 440 -267 481 -224 q 328 -311 400 -311 q 215 -267 256 -311 q 174 -150 174 -224 q 191 -60 174 -106 q 251 72 208 -15 l 17 675 l 135 675 l 263 315 q 295 226 274 282 q 325 146 317 169 l 331 146 q 361 229 340 175 q 392 315 382 283 l 519 675 l 632 675 z "},"ɤ":{"ha":710,"x_min":22,"x_max":688,"o":"m 356 -17 q 176 44 239 -17 q 114 215 114 106 q 276 504 114 351 q 124 597 199 597 q 58 578 85 597 l 22 661 q 139 692 65 692 q 356 571 249 692 q 571 692 461 692 q 688 661 644 692 l 651 578 q 586 597 624 597 q 433 504 511 597 q 596 215 596 349 q 533 44 596 106 q 356 -17 471 -17 m 356 78 q 452 117 418 78 q 486 218 486 157 q 356 450 486 326 q 225 218 225 329 q 258 117 225 157 q 356 78 292 78 z "},"ɥ":{"ha":760,"x_min":104,"x_max":646,"o":"m 531 -285 l 531 -43 l 538 104 q 311 -17 428 -17 q 104 247 104 -17 l 104 675 l 219 675 l 219 263 q 249 125 219 168 q 346 82 279 82 q 439 108 397 82 q 531 196 481 135 l 531 675 l 646 675 l 646 -285 l 531 -285 z "},"ɦ":{"ha":756,"x_min":114,"x_max":654,"o":"m 114 0 l 114 746 q 174 935 114 865 q 349 1006 233 1006 q 463 983 408 1006 l 436 896 q 360 913 399 913 q 228 744 232 913 l 224 569 q 449 682 342 682 q 654 418 654 682 l 654 0 l 540 0 l 540 403 q 510 540 540 497 q 413 582 479 582 q 324 558 364 582 q 228 479 283 535 l 228 0 l 114 0 z "},"ɧ":{"ha":756,"x_min":114,"x_max":654,"o":"m 469 -301 q 371 -283 413 -301 l 393 -197 q 457 -208 426 -208 q 522 -176 504 -208 q 540 -76 540 -143 l 540 403 q 510 540 540 497 q 413 582 479 582 q 324 558 364 582 q 228 479 283 535 l 228 0 l 114 0 l 114 746 q 174 935 114 865 q 349 1006 233 1006 q 463 983 408 1006 l 436 896 q 360 913 399 913 q 228 744 232 913 l 224 569 q 449 682 342 682 q 654 418 654 682 l 654 -76 q 469 -301 654 -301 z "},"ɨ":{"ha":375,"x_min":11,"x_max":360,"o":"m 245 835 q 234 824 245 835 q 189 814 222 814 q 133 835 156 814 q 110 888 110 856 q 133 941 110 921 q 189 961 156 961 q 245 941 222 961 q 268 888 268 921 q 245 835 268 856 m 360 388 l 360 321 l 244 321 l 244 0 l 131 0 l 131 321 l 11 321 l 11 381 l 131 388 l 131 675 l 244 675 l 244 388 l 360 388 z "},"ɪ":{"ha":474,"x_min":64,"x_max":410,"o":"m 64 0 l 64 93 l 181 93 l 181 582 l 64 582 l 64 675 l 410 675 l 410 582 l 294 582 l 294 93 l 410 93 l 410 0 l 64 0 z "},"ɬ":{"ha":419,"x_min":-8,"x_max":411,"o":"m 154 508 l 182 508 l 182 517 q 165 582 182 554 q 113 610 149 610 q 65 563 65 610 q 88 524 65 539 q 154 508 111 508 m 411 443 l 296 443 l 296 128 q 328 78 296 78 q 353 81 340 78 l 368 -6 q 303 -17 343 -17 q 182 136 182 -17 l 182 443 l 168 443 q 36 476 81 443 q -8 564 -8 510 q 24 642 -8 611 q 107 674 57 674 q 182 646 151 674 l 182 989 l 296 989 l 296 508 l 411 508 l 411 443 z "},"ɭ":{"ha":354,"x_min":114,"x_max":371,"o":"m 285 -244 q 114 -29 114 -244 l 114 989 l 228 989 l 228 -29 q 297 -151 228 -151 q 347 -139 317 -151 l 371 -226 q 285 -244 335 -244 z "},"ɮ":{"ha":801,"x_min":114,"x_max":775,"o":"m 746 614 l 485 263 q 696 203 617 276 q 775 3 775 129 q 691 -219 775 -137 q 489 -301 607 -301 q 215 -193 329 -301 l 272 -121 q 479 -207 367 -207 q 608 -149 556 -207 q 660 0 660 -92 q 611 135 660 86 q 474 183 563 183 q 386 161 438 183 l 340 224 l 607 582 l 360 582 l 272 582 l 228 582 l 228 0 l 114 0 l 114 989 l 228 989 l 228 675 l 272 675 l 360 675 l 746 675 l 746 614 z "},"ɯ":{"ha":1151,"x_min":114,"x_max":1046,"o":"m 319 -17 q 114 247 114 -17 l 114 675 l 228 675 l 228 263 q 258 125 228 168 q 354 82 289 82 q 524 186 431 82 l 524 675 l 638 675 l 638 263 q 667 125 638 168 q 763 82 697 82 q 932 186 839 82 l 932 675 l 1046 675 l 1046 0 l 951 0 l 942 97 l 939 97 q 728 -17 831 -17 q 542 113 588 -17 q 319 -17 424 -17 z "},"ɰ":{"ha":1151,"x_min":114,"x_max":1046,"o":"m 932 -285 l 932 -44 l 938 99 q 728 -17 833 -17 q 542 113 588 -17 q 319 -17 424 -17 q 114 247 114 -17 l 114 675 l 228 675 l 228 263 q 258 125 228 168 q 354 82 289 82 q 524 186 431 82 l 524 675 l 638 675 l 638 263 q 667 125 638 168 q 763 82 697 82 q 932 186 839 82 l 932 675 l 1046 675 l 1046 -285 l 932 -285 z "},"ɱ":{"ha":1151,"x_min":114,"x_max":1046,"o":"m 867 -301 q 772 -283 814 -301 l 794 -197 q 854 -208 825 -208 q 915 -176 899 -208 q 932 -76 932 -143 l 932 413 q 901 550 932 507 q 807 593 871 593 q 638 489 731 593 l 638 0 l 524 0 l 524 413 q 493 550 524 507 q 397 593 463 593 q 228 489 322 593 l 228 0 l 114 0 l 114 675 l 208 675 l 218 578 l 222 578 q 432 692 326 692 q 618 563 574 692 q 840 692 738 692 q 1046 428 1046 692 l 1046 -76 q 867 -301 1046 -301 z "},"ɲ":{"ha":760,"x_min":-28,"x_max":654,"o":"m 57 -244 q -28 -226 6 -244 l -6 -139 q 44 -151 26 -151 q 114 -29 114 -151 l 114 675 l 211 675 l 218 578 l 222 578 q 449 692 336 692 q 654 428 654 692 l 654 0 l 540 0 l 540 413 q 510 550 540 507 q 413 593 479 593 q 324 569 364 593 q 228 489 283 544 l 228 -29 q 57 -244 228 -244 z "},"ɳ":{"ha":760,"x_min":114,"x_max":796,"o":"m 711 -244 q 540 -29 540 -244 l 540 413 q 510 550 540 507 q 413 593 479 593 q 324 569 364 593 q 228 489 283 544 l 228 0 l 114 0 l 114 675 l 208 675 l 218 578 l 222 578 q 449 692 336 692 q 654 428 654 692 l 654 -29 q 724 -151 654 -151 q 774 -139 742 -151 l 796 -226 q 711 -244 763 -244 z "},"ɴ":{"ha":754,"x_min":114,"x_max":640,"o":"m 114 0 l 114 675 l 222 675 l 457 293 q 497 221 469 272 q 538 149 525 169 l 543 149 q 532 394 532 324 l 532 675 l 640 675 l 640 0 l 533 0 l 296 382 q 253 459 282 406 q 217 526 225 513 l 211 526 q 222 281 222 351 l 222 0 l 114 0 z "},"ɵ":{"ha":753,"x_min":64,"x_max":689,"o":"m 581 310 l 174 310 q 235 137 179 200 q 376 74 290 74 q 519 137 464 74 q 581 310 575 200 m 175 392 l 579 392 q 513 547 567 492 q 376 603 458 603 q 242 547 296 603 q 175 392 188 490 m 153 598 q 198 645 153 598 q 376 692 243 692 q 599 598 510 692 q 689 336 689 504 q 599 76 689 169 q 376 -17 510 -17 q 153 76 243 -17 q 64 336 64 169 q 153 598 64 504 z "},"ɶ":{"ha":971,"x_min":64,"x_max":943,"o":"m 399 -17 q 159 76 254 -17 q 64 338 64 169 q 159 599 64 506 q 399 692 254 692 q 540 675 474 692 l 929 675 l 929 588 l 611 588 l 611 392 l 878 392 l 878 310 l 611 310 l 611 88 l 943 88 l 943 0 l 540 0 q 399 -17 475 -17 m 406 76 q 497 93 439 76 l 497 581 q 406 597 447 597 q 246 531 308 597 q 183 338 183 464 q 245 143 183 210 q 406 76 307 76 z "},"ɸ":{"ha":944,"x_min":64,"x_max":881,"o":"m 525 600 l 525 75 q 695 151 628 79 q 763 339 763 222 q 697 526 763 457 q 525 600 632 596 m 419 75 l 419 600 q 250 526 318 596 q 182 339 182 456 q 250 151 182 222 q 419 75 318 79 m 525 989 l 525 688 q 777 590 674 683 q 881 339 881 496 q 776 86 881 181 q 525 -12 671 -8 l 525 -285 l 419 -285 l 419 -12 q 169 86 274 -8 q 64 339 64 181 q 169 590 64 496 q 419 688 274 683 l 419 989 l 525 989 z "},"ɹ":{"ha":482,"x_min":-4,"x_max":368,"o":"m 68 -17 q -4 -3 28 -17 l 18 97 q 83 86 56 86 q 176 124 131 86 q 254 242 222 161 l 254 675 l 368 675 l 368 0 l 274 0 l 264 124 l 261 124 q 175 21 225 58 q 68 -17 125 -17 z "},"ɺ":{"ha":482,"x_min":-4,"x_max":368,"o":"m 68 -17 q -4 -3 28 -17 l 18 97 q 83 86 56 86 q 176 124 131 86 q 254 242 222 161 l 254 989 l 368 989 l 368 0 l 274 0 l 264 124 l 261 124 q 175 21 225 58 q 68 -17 125 -17 z "},"ɻ":{"ha":482,"x_min":-4,"x_max":511,"o":"m 425 -244 q 264 -42 264 -244 l 264 124 l 261 124 q 175 21 225 58 q 68 -17 125 -17 q -4 -3 28 -17 l 18 97 q 83 86 56 86 q 176 124 131 86 q 254 242 222 161 l 254 675 l 368 675 l 368 -29 q 438 -151 368 -151 q 488 -139 457 -151 l 511 -226 q 425 -244 475 -244 z "},"ɽ":{"ha":482,"x_min":114,"x_max":486,"o":"m 285 -244 q 114 -29 114 -244 l 114 675 l 208 675 l 218 553 l 222 553 q 307 655 257 618 q 414 692 357 692 q 486 678 454 692 l 464 578 q 399 589 428 589 q 306 551 351 589 q 228 433 260 514 l 228 -29 q 297 -151 228 -151 q 347 -139 317 -151 l 371 -226 q 285 -244 335 -244 z "},"ɾ":{"ha":464,"x_min":114,"x_max":467,"o":"m 114 0 l 114 436 q 176 624 114 556 q 349 692 239 692 q 467 672 421 692 l 446 576 q 360 592 408 592 q 267 544 306 592 q 228 413 228 497 l 228 0 l 114 0 z "},"ʀ":{"ha":688,"x_min":114,"x_max":643,"o":"m 228 350 l 333 350 q 452 382 410 350 q 494 472 494 414 q 333 586 494 586 l 228 586 l 228 350 m 643 0 l 517 0 l 354 267 l 228 267 l 228 0 l 114 0 l 114 675 l 353 675 q 608 475 608 675 q 461 281 608 328 l 643 0 z "},"ʁ":{"ha":688,"x_min":44,"x_max":574,"o":"m 460 89 l 460 329 l 354 329 q 237 297 279 329 q 194 204 194 264 q 354 89 194 89 l 460 89 m 460 675 l 574 675 l 574 0 l 335 0 q 79 201 79 0 q 226 397 79 350 l 44 675 l 172 675 l 333 413 l 460 413 l 460 675 z "},"ʂ":{"ha":582,"x_min":39,"x_max":538,"o":"m 514 615 l 460 543 q 306 603 381 603 q 214 575 246 603 q 182 506 182 547 q 205 455 182 478 q 248 422 228 432 q 318 394 268 413 q 332 389 328 390 q 392 365 371 374 q 445 338 413 357 q 494 301 478 319 q 524 252 511 282 q 538 185 538 222 q 472 41 538 99 q 290 -17 406 -17 q 142 11 213 -17 l 142 -28 q 160 -129 142 -96 q 226 -162 178 -162 q 290 -151 254 -162 l 313 -236 q 214 -254 268 -254 q 39 -29 39 -254 l 39 67 l 96 142 q 294 72 190 72 q 393 102 358 72 q 428 178 428 132 q 415 222 428 203 q 376 258 403 242 q 331 283 350 274 q 274 306 311 292 q 200 335 229 321 q 138 372 171 349 q 89 428 106 396 q 72 500 72 460 q 135 638 72 583 q 304 692 197 692 q 514 615 419 692 z "},"ʃ":{"ha":343,"x_min":-56,"x_max":399,"o":"m 44 -301 q -56 -283 -11 -301 l -32 -197 q 32 -208 1 -208 q 97 -176 79 -208 q 115 -76 115 -143 l 115 783 q 314 1008 115 1008 q 399 990 360 1008 l 376 903 q 326 915 346 915 q 250 882 271 915 q 229 782 229 849 l 229 -76 q 44 -301 229 -301 z "},"ʄ":{"ha":375,"x_min":-40,"x_max":414,"o":"m 414 990 l 392 903 q 342 915 360 915 q 265 882 286 915 q 244 782 244 849 l 244 388 l 360 388 l 360 321 l 244 321 l 244 -76 q 60 -301 244 -301 q -40 -283 4 -301 l -17 -197 q 47 -208 17 -208 q 113 -176 94 -208 q 131 -76 131 -143 l 131 321 l 11 321 l 11 381 l 131 388 l 131 783 q 329 1008 131 1008 q 414 990 375 1008 z "},"ʈ":{"ha":469,"x_min":33,"x_max":451,"o":"m 326 -246 q 133 -21 133 -246 l 133 582 l 33 582 l 33 668 l 139 675 l 153 864 l 249 864 l 249 675 l 431 675 l 431 582 l 249 582 l 249 -22 q 353 -153 249 -153 q 429 -135 381 -153 l 451 -221 q 326 -246 376 -246 z "},"ʉ":{"ha":799,"x_min":11,"x_max":782,"o":"m 554 196 l 554 364 l 246 364 l 246 263 q 276 125 246 168 q 372 82 306 82 q 464 108 424 82 q 554 196 504 135 m 782 431 l 782 364 l 668 364 l 668 0 l 574 0 l 564 106 l 560 106 q 338 -17 456 -17 q 131 247 131 -17 l 131 364 l 11 364 l 11 424 l 131 431 l 131 675 l 246 675 l 246 431 l 554 431 l 554 675 l 668 675 l 668 431 l 782 431 z "},"ʊ":{"ha":751,"x_min":51,"x_max":700,"o":"m 376 -17 q 151 74 235 -17 q 68 290 68 165 q 188 579 68 465 l 188 582 l 51 582 l 51 675 l 310 675 l 310 601 q 183 315 183 496 q 234 146 183 214 q 376 78 285 78 q 517 146 467 78 q 568 315 568 214 q 443 601 568 496 l 443 675 l 700 675 l 700 582 l 564 582 l 564 579 q 685 290 685 464 q 601 74 685 165 q 376 -17 517 -17 z "},"ʋ":{"ha":736,"x_min":104,"x_max":667,"o":"m 364 -17 q 175 58 246 -17 q 104 281 104 132 l 104 675 l 219 675 l 219 290 q 260 130 219 182 q 368 78 301 78 q 501 163 453 78 q 549 381 549 247 q 439 600 549 600 q 400 592 421 600 l 382 681 q 463 692 414 692 q 613 618 560 692 q 667 397 667 544 q 588 98 667 213 q 364 -17 508 -17 z "},"ʌ":{"ha":649,"x_min":17,"x_max":632,"o":"m 17 0 l 256 675 l 389 675 l 632 0 l 514 0 l 386 383 q 324 583 372 432 l 318 583 l 256 383 l 129 0 l 17 0 z "},"ʍ":{"ha":997,"x_min":33,"x_max":964,"o":"m 33 0 l 214 675 l 354 675 l 451 313 q 472 223 457 289 q 497 118 488 157 l 503 118 q 549 314 528 239 l 643 675 l 776 675 l 964 0 l 847 0 l 747 390 q 728 479 742 415 q 707 578 715 543 l 701 578 q 656 390 681 483 l 551 0 l 440 0 l 335 390 q 312 482 328 419 q 288 578 296 544 l 282 578 l 240 390 l 142 0 l 33 0 z "},"ʎ":{"ha":649,"x_min":17,"x_max":632,"o":"m 17 0 l 286 771 q 384 944 325 882 q 539 1006 443 1006 q 618 992 581 1006 l 596 901 q 544 911 564 911 q 392 767 440 911 l 361 676 l 632 0 l 515 0 l 376 374 q 344 468 365 403 q 311 564 322 533 l 306 564 q 274 458 294 528 q 249 374 253 389 l 129 0 l 17 0 z "},"ʏ":{"ha":576,"x_min":-1,"x_max":578,"o":"m 232 0 l 232 228 l -1 675 l 121 675 l 213 483 q 288 328 221 464 l 293 328 q 326 398 300 343 q 365 483 351 453 l 457 675 l 578 675 l 346 228 l 346 0 l 232 0 z "},"ʐ":{"ha":590,"x_min":43,"x_max":683,"o":"m 661 -139 l 683 -226 q 599 -244 647 -244 q 426 -29 426 -244 l 426 0 l 43 0 l 43 61 l 399 582 l 82 582 l 82 675 l 543 675 l 543 614 l 188 93 l 540 93 l 540 63 l 540 0 l 540 -29 q 611 -151 540 -151 q 661 -139 631 -151 z "},"ʑ":{"ha":624,"x_min":43,"x_max":643,"o":"m 457 88 q 540 112 510 88 q 571 169 571 136 q 514 225 571 225 q 388 88 444 225 l 457 88 m 536 614 l 182 93 q 251 90 206 92 q 318 89 296 89 q 517 294 399 294 q 610 261 576 294 q 643 167 643 228 q 588 47 643 93 q 428 0 533 0 l 357 0 q 331 -112 344 -43 l 264 -99 q 289 0 275 -44 l 43 0 l 43 61 l 399 582 l 82 582 l 82 675 l 536 675 l 536 614 z "},"ʒ":{"ha":590,"x_min":4,"x_max":564,"o":"m 278 -301 q 4 -193 118 -301 l 61 -121 q 268 -207 156 -207 q 397 -149 344 -207 q 449 0 449 -92 q 400 135 449 86 q 263 183 351 183 q 175 161 226 183 l 129 224 l 396 582 l 61 582 l 61 675 l 535 675 l 535 614 l 274 263 q 485 203 406 276 q 564 3 564 129 q 480 -219 564 -137 q 278 -301 396 -301 z "},"ʔ":{"ha":579,"x_min":-3,"x_max":551,"o":"m 203 0 l 203 450 q 382 587 328 522 q 436 736 436 651 q 390 864 436 817 q 261 911 343 911 q 58 810 146 911 l -3 885 q 269 1006 110 1006 q 472 936 393 1006 q 551 739 551 867 q 492 553 551 629 q 317 399 433 478 l 317 0 l 203 0 z "},"ʕ":{"ha":615,"x_min":43,"x_max":597,"o":"m 278 0 l 278 399 q 102 553 161 478 q 43 739 43 629 q 126 936 43 867 q 339 1006 210 1006 q 597 885 490 1006 l 536 810 q 347 911 453 911 q 208 864 258 911 q 158 736 158 817 q 213 587 158 651 q 392 450 267 522 l 392 0 l 278 0 z "},"ʘ":{"ha":729,"x_min":82,"x_max":647,"o":"m 365 -17 q 156 111 231 -17 q 82 499 82 239 q 158 874 82 743 q 365 1006 233 1006 q 572 874 497 1006 q 647 499 647 743 q 573 111 647 239 q 365 -17 499 -17 m 365 78 q 492 178 444 78 q 539 499 539 279 q 491 806 539 701 q 365 911 443 911 q 239 807 288 911 q 190 499 190 703 q 238 178 190 279 q 365 78 285 78 m 365 433 q 318 453 338 433 q 299 499 299 472 q 318 546 299 528 q 365 564 338 564 q 411 545 392 564 q 431 499 431 526 q 411 453 431 472 q 365 433 392 433 z "},"ʙ":{"ha":707,"x_min":114,"x_max":651,"o":"m 114 0 l 114 675 l 374 675 q 622 504 622 675 q 510 360 622 393 l 510 356 q 651 193 651 322 q 579 49 651 97 q 385 0 507 0 l 114 0 m 226 392 l 354 392 q 511 493 511 392 q 363 593 511 593 l 226 593 l 226 392 m 226 82 l 372 82 q 538 200 538 82 q 494 281 538 251 q 365 310 450 310 l 226 310 l 226 82 z "},"ʜ":{"ha":781,"x_min":115,"x_max":668,"o":"m 115 0 l 115 675 l 229 675 l 229 401 l 554 401 l 554 675 l 668 675 l 668 0 l 554 0 l 554 300 l 229 300 l 229 0 l 115 0 z "},"ʝ":{"ha":394,"x_min":-117,"x_max":425,"o":"m 280 835 q 268 824 280 835 q 224 814 257 814 q 167 835 190 814 q 144 888 144 856 q 167 941 144 921 q 224 961 190 961 q 280 941 257 961 q 303 888 303 921 q 280 835 303 856 m 54 -211 q 156 -135 129 -211 q 50 -90 100 -90 q -4 -106 15 -90 q -24 -146 -24 -121 q -1 -192 -24 -174 q 54 -211 21 -211 m 425 -339 l 336 -381 q 232 -215 283 -282 q 56 -301 172 -301 q -69 -257 -22 -301 q -117 -147 -117 -212 q -72 -47 -117 -85 q 51 -8 -28 -8 q 167 -40 107 -8 l 167 675 l 281 675 l 281 -32 q 272 -121 281 -79 q 425 -339 353 -201 z "},"ʟ":{"ha":571,"x_min":114,"x_max":535,"o":"m 114 0 l 114 675 l 228 675 l 228 93 l 535 93 l 535 0 l 114 0 z "},"ʡ":{"ha":613,"x_min":10,"x_max":586,"o":"m 219 0 l 219 357 l 10 357 l 10 443 l 115 450 l 239 450 q 456 736 456 586 q 410 864 456 817 q 282 911 364 911 q 79 810 167 911 l 18 885 q 290 1006 131 1006 q 493 936 414 1006 q 572 739 572 867 q 396 450 572 576 l 586 450 l 586 357 l 333 357 l 333 0 l 219 0 z "},"ʢ":{"ha":613,"x_min":26,"x_max":603,"o":"m 278 0 l 278 357 l 26 357 l 26 450 l 215 450 q 40 739 40 578 q 124 936 40 867 q 336 1006 207 1006 q 594 885 485 1006 l 533 810 q 344 911 450 911 q 206 864 256 911 q 156 736 156 817 q 374 450 156 586 l 497 450 l 603 443 l 603 357 l 392 357 l 392 0 l 278 0 z "},"ʰ":{"ha":508,"x_min":72,"x_max":446,"o":"m 72 369 l 72 1021 l 158 1021 l 158 846 l 154 754 q 304 828 225 828 q 446 653 446 828 l 446 369 l 360 369 l 360 640 q 342 726 360 699 q 275 754 324 754 q 158 689 224 754 l 158 369 l 72 369 z "},"ʲ":{"ha":235,"x_min":-36,"x_max":178,"o":"m 32 169 q -36 181 -8 169 l -18 247 q 21 240 0 240 q 63 260 51 240 q 75 324 75 281 l 75 817 l 161 817 l 161 329 q 32 169 161 169 m 161 918 q 153 910 161 918 q 119 903 144 903 q 78 918 94 903 q 61 957 61 933 q 78 996 61 981 q 119 1011 94 1011 q 161 996 144 1011 q 178 957 178 981 q 161 918 178 933 z "},"ʳ":{"ha":333,"x_min":72,"x_max":335,"o":"m 72 369 l 72 817 l 142 817 l 151 738 l 156 738 q 282 828 208 828 q 335 818 315 828 l 318 742 q 274 749 290 749 q 160 653 201 749 l 160 369 l 72 369 z "},"ʷ":{"ha":676,"x_min":22,"x_max":654,"o":"m 146 369 l 22 817 l 111 817 l 172 568 l 199 440 l 204 440 l 235 568 l 300 817 l 378 817 l 447 568 l 478 440 l 483 440 l 513 568 l 572 817 l 654 817 l 533 369 l 429 369 l 369 597 l 340 724 l 338 724 l 308 597 l 249 369 l 146 369 z "},"ʸ":{"ha":443,"x_min":11,"x_max":432,"o":"m 90 183 q 33 192 58 183 l 51 261 q 85 254 67 254 q 183 344 154 254 l 193 372 l 11 817 l 99 817 l 186 582 q 229 453 218 489 l 235 453 q 275 582 244 486 l 347 817 l 432 817 l 267 344 q 198 225 239 267 q 90 183 157 183 z "},"ʹ":{"ha":346,"x_min":114,"x_max":257,"o":"m 114 624 l 144 958 l 257 958 l 236 831 l 189 624 l 114 624 z "},"ʻ":{"ha":346,"x_min":79,"x_max":260,"o":"m 226 967 l 260 913 q 179 837 204 876 q 154 740 154 797 q 167 742 158 742 q 219 723 197 742 q 240 671 240 704 q 220 615 240 636 q 167 594 200 594 q 102 627 125 594 q 79 719 79 660 q 226 967 79 882 z "},"ʼ":{"ha":346,"x_min":88,"x_max":268,"o":"m 119 599 l 88 651 q 167 727 142 688 q 192 825 192 767 q 181 824 188 824 q 128 842 150 824 q 107 893 107 861 q 127 950 107 929 q 181 971 147 971 q 244 938 221 971 q 268 844 268 904 q 119 599 268 685 z "},"ʾ":{"ha":208,"x_min":42,"x_max":196,"o":"m 42 753 l 42 803 q 131 882 131 803 q 42 960 131 960 l 42 1010 q 156 977 115 1011 q 196 882 196 943 q 156 786 196 821 q 42 753 115 751 z "},"ʿ":{"ha":225,"x_min":28,"x_max":182,"o":"m 182 753 q 68 786 108 751 q 28 882 28 821 q 69 976 28 942 q 182 1010 110 1011 l 182 960 q 93 882 93 960 q 182 803 93 803 l 182 753 z "},"ˁ":{"ha":419,"x_min":31,"x_max":406,"o":"m 186 361 l 186 621 q 69 723 108 672 q 31 844 31 774 q 87 976 31 929 q 231 1024 143 1024 q 406 943 336 1024 l 361 889 q 238 953 310 953 q 149 924 181 953 q 117 843 117 894 q 152 747 117 788 q 271 657 188 706 l 271 361 l 186 361 z "},"ˆ":{"ha":753,"x_min":174,"x_max":579,"o":"m 174 796 l 319 1019 l 433 1019 l 579 796 l 486 796 l 379 946 l 374 946 l 267 796 l 174 796 z "},"ˇ":{"ha":753,"x_min":174,"x_max":579,"o":"m 319 796 l 174 1019 l 267 1019 l 374 869 l 379 869 l 486 1019 l 579 1019 l 433 796 l 319 796 z "},"ˈ":{"ha":158,"x_min":31,"x_max":128,"o":"m 39 740 l 31 994 l 128 994 l 119 740 l 39 740 z "},"ˉ":{"ha":385,"x_min":18,"x_max":368,"o":"m 18 835 l 18 914 l 368 914 l 368 835 l 18 835 z "},"ˊ":{"ha":313,"x_min":68,"x_max":333,"o":"m 68 796 l 199 1019 l 333 1019 l 169 796 l 68 796 z "},"ˋ":{"ha":313,"x_min":-25,"x_max":240,"o":"m 139 796 l -25 1019 l 110 1019 l 240 796 l 139 796 z "},"ˌ":{"ha":158,"x_min":31,"x_max":128,"o":"m 31 -353 l 39 -99 l 119 -99 l 128 -353 l 31 -353 z "},"ː":{"ha":346,"x_min":69,"x_max":276,"o":"m 69 0 l 165 192 l 181 192 l 276 0 l 69 0 m 165 450 l 69 640 l 276 640 l 181 450 l 165 450 z "},"ˑ":{"ha":346,"x_min":69,"x_max":276,"o":"m 165 328 l 69 518 l 276 518 l 181 328 l 165 328 z "},"˘":{"ha":753,"x_min":190,"x_max":563,"o":"m 376 793 q 242 853 289 793 q 190 988 196 913 l 267 988 q 301 903 272 939 q 376 868 329 868 q 451 903 424 868 q 486 988 479 939 l 563 988 q 510 852 557 911 q 376 793 463 793 z "},"˙":{"ha":753,"x_min":301,"x_max":451,"o":"m 430 835 q 419 824 430 835 q 376 814 408 814 q 323 835 344 814 q 301 889 301 856 q 323 942 301 921 q 376 964 344 964 q 430 942 408 964 q 451 889 451 921 q 430 835 451 856 z "},"˚":{"ha":753,"x_min":247,"x_max":506,"o":"m 469 788 q 451 770 469 788 q 376 753 433 753 q 283 788 319 753 q 247 882 247 824 q 283 974 247 939 q 376 1010 319 1010 q 469 974 433 1010 q 506 882 506 939 q 469 788 506 824 m 328 826 q 338 815 328 826 q 376 804 347 804 q 424 826 406 804 q 443 882 443 847 q 424 937 443 915 q 376 958 406 958 q 328 937 347 958 q 310 882 310 915 q 328 826 310 847 z "},"˛":{"ha":753,"x_min":285,"x_max":519,"o":"m 410 -286 q 320 -255 356 -286 q 285 -168 285 -224 q 383 4 285 -71 l 464 4 q 369 -146 369 -67 q 388 -193 369 -176 q 433 -210 407 -210 q 489 -192 464 -210 l 519 -249 q 410 -286 472 -286 z "},"˜":{"ha":753,"x_min":163,"x_max":590,"o":"m 458 793 q 367 835 419 793 q 296 876 314 876 q 239 796 249 876 l 163 796 q 202 916 168 871 q 294 961 236 961 q 387 919 335 961 q 457 878 439 878 q 514 958 504 878 l 590 958 q 551 838 585 883 q 458 793 517 793 z "},"˝":{"ha":753,"x_min":231,"x_max":657,"o":"m 231 793 l 342 1019 l 447 1019 l 311 793 l 231 793 m 439 793 l 551 1019 l 657 1019 l 521 793 l 439 793 z "},"˞":{"ha":210,"x_min":-135,"x_max":238,"o":"m 144 319 q 13 453 46 319 l -135 393 l -135 481 l 68 564 q 102 428 82 464 q 153 392 122 392 q 207 413 181 392 l 238 353 q 144 319 193 319 z "},"ˠ":{"ha":442,"x_min":11,"x_max":431,"o":"m 225 374 l 221 374 q 188 263 188 304 q 222 215 188 215 q 260 263 260 215 q 225 374 260 307 m 431 808 l 278 414 q 332 268 332 310 q 303 188 332 218 q 222 158 274 158 q 143 188 172 158 q 114 268 114 218 q 122 315 114 289 q 137 354 131 340 q 167 415 143 368 l 11 808 l 99 808 l 181 578 q 201 522 188 557 q 221 465 215 486 l 225 465 q 247 524 232 488 q 267 578 261 561 l 347 808 l 431 808 z "},"ˡ":{"ha":242,"x_min":72,"x_max":213,"o":"m 163 358 q 72 472 72 358 l 72 1021 l 158 1021 l 158 464 q 181 429 158 429 q 200 432 192 429 l 213 368 q 163 358 190 358 z "},"ˢ":{"ha":393,"x_min":26,"x_max":365,"o":"m 200 358 q 26 419 108 358 l 68 476 q 201 425 136 425 q 260 443 239 425 q 282 489 282 461 q 265 524 282 508 q 233 547 247 540 q 181 567 218 553 q 117 595 140 582 q 71 636 93 608 q 49 700 49 664 q 90 790 49 753 q 203 828 132 828 q 351 778 281 828 l 308 722 q 206 761 253 761 q 150 744 169 761 q 131 704 131 728 q 133 688 131 696 q 142 674 136 681 q 153 664 149 668 q 170 654 158 660 q 188 646 182 649 q 209 638 194 643 q 231 629 224 632 q 281 608 265 615 q 320 585 296 601 q 355 547 344 569 q 365 496 365 525 q 320 397 365 436 q 200 358 275 358 z "},"ˣ":{"ha":426,"x_min":11,"x_max":414,"o":"m 11 369 l 161 604 l 24 817 l 118 817 l 175 725 l 218 654 l 224 654 l 261 725 l 313 817 l 404 817 l 268 594 l 414 369 l 319 369 l 260 467 l 211 543 l 206 543 l 160 467 l 103 369 l 11 369 z "},"̀":{"ha":0,"x_min":-179,"x_max":86,"o":"m -15 796 l -179 1019 l -44 1019 l 86 796 l -15 796 z "},"́":{"ha":0,"x_min":-86,"x_max":179,"o":"m -86 796 l 44 1019 l 179 1019 l 15 796 l -86 796 z "},"̂":{"ha":0,"x_min":-203,"x_max":203,"o":"m -203 796 l -57 1019 l 57 1019 l 203 796 l 110 796 l 3 946 l -3 946 l -110 796 l -203 796 z "},"̃":{"ha":0,"x_min":-214,"x_max":214,"o":"m 82 793 q -10 835 42 793 q -81 876 -61 876 q -137 796 -128 876 l -214 796 q -174 916 -208 871 q -82 961 -140 961 q 10 919 -42 961 q 81 878 63 878 q 138 958 128 878 l 214 958 q 174 838 208 883 q 82 793 140 793 z "},"̄":{"ha":0,"x_min":-175,"x_max":175,"o":"m -175 835 l -175 914 l 175 914 l 175 835 l -175 835 z "},"̅":{"ha":0,"x_min":-175,"x_max":175,"o":"m -175 835 l -175 914 l 175 914 l 175 835 l -175 835 z "},"̆":{"ha":0,"x_min":-186,"x_max":186,"o":"m 0 793 q -134 853 -87 793 q -186 988 -181 913 l -110 988 q -76 903 -104 939 q 0 868 -47 868 q 75 903 47 868 q 110 988 103 939 l 186 988 q 133 852 181 911 q 0 793 86 793 z "},"̇":{"ha":0,"x_min":-75,"x_max":75,"o":"m 53 835 q 43 824 53 835 q 0 814 32 814 q -53 835 -32 814 q -75 889 -75 856 q -53 942 -75 921 q 0 964 -32 964 q 53 942 32 964 q 75 889 75 921 q 53 835 75 856 z "},"̈":{"ha":0,"x_min":-187,"x_max":188,"o":"m -119 817 q -169 836 -150 817 q -187 885 -187 856 q -169 933 -187 914 q -119 953 -150 953 q -71 933 -90 953 q -51 885 -51 914 q -71 836 -51 856 q -119 817 -90 817 m 119 817 q 71 836 90 817 q 51 885 51 856 q 71 933 51 914 q 119 953 90 953 q 169 933 150 953 q 188 885 188 914 q 169 836 188 856 q 119 817 150 817 z "},"̉":{"ha":0,"x_min":-89,"x_max":117,"o":"m -39 751 l -51 806 q 26 869 26 828 q -89 929 26 922 l -76 994 q 117 882 117 988 q -39 751 117 778 z "},"̊":{"ha":0,"x_min":-129,"x_max":129,"o":"m 93 788 q 75 770 93 788 q 0 753 57 753 q -93 788 -57 753 q -129 882 -129 824 q -93 974 -129 939 q 0 1010 -57 1010 q 93 974 57 1010 q 129 882 129 939 q 93 788 129 824 m -48 826 q -39 815 -48 826 q 0 804 -29 804 q 48 826 29 804 q 67 882 67 847 q 48 937 67 915 q 0 958 29 958 q -48 937 -29 958 q -67 882 -67 915 q -48 826 -67 847 z "},"̋":{"ha":0,"x_min":-146,"x_max":281,"o":"m -146 793 l -35 1019 l 71 1019 l -65 793 l -146 793 m 63 793 l 175 1019 l 281 1019 l 144 793 l 63 793 z "},"̌":{"ha":0,"x_min":-203,"x_max":203,"o":"m -57 796 l -203 1019 l -110 1019 l -3 869 l 3 869 l 110 1019 l 203 1019 l 57 796 l -57 796 z "},"̏":{"ha":0,"x_min":-281,"x_max":146,"o":"m 65 793 l -71 1019 l 35 1019 l 146 793 l 65 793 m -144 793 l -281 1019 l -175 1019 l -62 793 l -144 793 z "},"̑":{"ha":0,"x_min":-186,"x_max":186,"o":"m -186 796 q -135 923 -182 869 q 0 976 -89 976 q 134 923 88 976 q 186 796 181 869 l 110 796 q 75 874 103 843 q 0 906 47 906 q -76 874 -49 906 q -110 796 -104 843 l -186 796 z "},"̒":{"ha":0,"x_min":-74,"x_max":64,"o":"m 39 1017 l 64 972 q -15 872 -11 936 q -4 874 -11 874 q 35 859 18 874 q 53 819 53 844 q 37 773 53 789 q -3 757 21 757 q -74 853 -74 757 q 39 1017 -74 965 z "},"̓":{"ha":0,"x_min":-65,"x_max":71,"o":"m -42 756 l -65 800 q 14 900 10 836 q 1 899 10 899 q -38 913 -21 899 q -56 953 -56 928 q -39 998 -56 982 q 1 1014 -22 1014 q 71 918 71 1014 q -42 756 71 807 z "},"̘":{"ha":0,"x_min":-106,"x_max":118,"o":"m 49 -81 l 118 -81 l 118 -346 l 49 -346 l 49 -246 l -106 -246 l -106 -181 l 49 -181 l 49 -81 z "},"̙":{"ha":0,"x_min":-118,"x_max":106,"o":"m 106 -181 l 106 -246 l -49 -246 l -49 -346 l -118 -346 l -118 -81 l -49 -81 l -49 -181 l 106 -181 z "},"̚":{"ha":0,"x_min":-106,"x_max":118,"o":"m 110 992 l 118 992 l 118 796 l 49 796 l 49 926 l -106 926 l -106 992 l 49 992 l 110 992 z "},"̛":{"ha":0,"x_min":-12,"x_max":206,"o":"m -1 603 l -12 660 q 104 774 104 678 q 85 851 104 806 l 174 893 q 206 782 206 835 q 149 659 206 704 q -1 603 92 614 z "},"̜":{"ha":0,"x_min":-92,"x_max":76,"o":"m 76 -350 q -48 -318 -4 -353 q -92 -222 -92 -283 q -49 -126 -92 -160 q 76 -94 -6 -92 l 76 -147 q -24 -222 -24 -146 q 76 -297 -24 -299 l 76 -350 z "},"̝":{"ha":0,"x_min":-133,"x_max":133,"o":"m 35 -228 l 133 -228 l 133 -293 l 35 -293 l -35 -293 l -133 -293 l -133 -228 l -35 -228 l -35 -81 l 35 -81 l 35 -228 z "},"̞":{"ha":0,"x_min":-133,"x_max":133,"o":"m 133 -133 l 133 -199 l 35 -199 l 35 -346 l -35 -346 l -35 -199 l -133 -199 l -133 -133 l -35 -133 l 35 -133 l 133 -133 z "},"̟":{"ha":0,"x_min":-133,"x_max":133,"o":"m 133 -181 l 133 -246 l 35 -246 l 35 -346 l -35 -346 l -35 -246 l -133 -246 l -133 -181 l -35 -181 l -35 -81 l 35 -81 l 35 -181 l 133 -181 z "},"̠":{"ha":0,"x_min":-133,"x_max":133,"o":"m -133 -246 l -133 -181 l 133 -181 l 133 -246 l -133 -246 z "},"̣":{"ha":0,"x_min":-75,"x_max":75,"o":"m 53 -265 q 43 -276 53 -265 q 0 -286 32 -286 q -53 -265 -32 -286 q -75 -211 -75 -244 q -53 -158 -75 -179 q 0 -137 -32 -137 q 53 -158 32 -137 q 75 -211 75 -179 q 53 -265 75 -244 z "},"̤":{"ha":0,"x_min":-187,"x_max":188,"o":"m -71 -259 q -81 -269 -71 -259 q -119 -279 -90 -279 q -168 -260 -149 -279 q -187 -211 -187 -240 q -169 -162 -187 -182 q -119 -143 -150 -143 q -71 -162 -90 -143 q -51 -211 -51 -182 q -71 -259 -51 -239 m 168 -260 q 158 -269 168 -260 q 119 -279 149 -279 q 71 -259 90 -279 q 51 -211 51 -239 q 71 -162 51 -182 q 119 -143 90 -143 q 169 -162 150 -143 q 188 -211 188 -182 q 168 -260 188 -240 z "},"̥":{"ha":0,"x_min":-129,"x_max":129,"o":"m 93 -315 q 75 -332 93 -315 q 0 -350 57 -350 q -93 -315 -57 -350 q -129 -222 -129 -279 q -93 -130 -129 -165 q 0 -94 -57 -94 q 93 -130 57 -94 q 129 -222 129 -165 q 93 -315 129 -279 m -48 -277 q -39 -288 -48 -277 q 0 -299 -29 -299 q 48 -277 29 -299 q 67 -222 67 -256 q 48 -166 67 -187 q 0 -144 29 -144 q -48 -166 -29 -144 q -67 -222 -67 -187 q -48 -277 -67 -256 z "},"̦":{"ha":0,"x_min":-132,"x_max":108,"o":"m -121 -300 l -132 -244 q -14 -223 -47 -239 q 19 -178 19 -207 q -79 -119 19 -128 l -54 -67 q 72 -101 35 -76 q 108 -174 108 -126 q -121 -300 108 -289 z "},"̧":{"ha":0,"x_min":-132,"x_max":108,"o":"m -121 -296 l -132 -239 q -14 -217 -47 -233 q 19 -169 19 -201 q -5 -128 19 -143 q -87 -104 -29 -112 l -26 4 l 47 4 l 7 -69 q 108 -168 108 -93 q -121 -296 108 -283 z "},"̨":{"ha":0,"x_min":-92,"x_max":143,"o":"m 33 -286 q -56 -255 -21 -286 q -92 -168 -92 -224 q 7 4 -92 -71 l 88 4 q -7 -146 -7 -67 q 12 -193 -7 -176 q 57 -210 31 -210 q 113 -192 88 -210 l 143 -249 q 33 -286 96 -286 z "},"̩":{"ha":0,"x_min":-35,"x_max":35,"o":"m -35 -346 l -35 -81 l 35 -81 l 35 -346 l -35 -346 z "},"̪":{"ha":0,"x_min":-160,"x_max":160,"o":"m 150 -133 l 160 -133 l 160 -297 l 94 -297 l 94 -199 l -94 -199 l -94 -297 l -160 -297 l -160 -133 l -150 -133 l -94 -133 l 94 -133 l 150 -133 z "},"̬":{"ha":0,"x_min":-179,"x_max":179,"o":"m -47 -276 l -179 -79 l -96 -79 l -3 -207 l 3 -207 l 96 -79 l 179 -79 l 47 -276 l -47 -276 z "},"̮":{"ha":0,"x_min":-175,"x_max":175,"o":"m 126 -233 q 104 -260 126 -233 q 0 -286 82 -286 q -126 -233 -82 -286 q -175 -110 -171 -181 l -104 -110 q -72 -185 -99 -154 q 0 -215 -46 -215 q 72 -185 46 -215 q 104 -110 99 -154 l 175 -110 q 126 -233 171 -181 z "},"̯":{"ha":0,"x_min":-175,"x_max":175,"o":"m -175 -297 q -126 -174 -171 -226 q 0 -122 -82 -122 q 126 -174 82 -122 q 175 -297 171 -226 l 104 -297 q 72 -222 99 -253 q 0 -192 46 -192 q -72 -222 -46 -192 q -104 -297 -99 -253 l -175 -297 z "},"̰":{"ha":0,"x_min":-193,"x_max":193,"o":"m -193 -267 q -158 -161 -187 -201 q -81 -121 -129 -121 q 8 -156 -42 -121 q 78 -192 58 -192 q 129 -121 117 -192 l 193 -121 q 158 -226 188 -186 q 81 -267 129 -267 q -8 -231 42 -267 q -78 -196 -57 -196 q -129 -267 -117 -196 l -193 -267 z "},"̱":{"ha":0,"x_min":-172,"x_max":171,"o":"m -172 -237 l -172 -157 l 171 -157 l 171 -237 l -172 -237 z "},"̴":{"ha":0,"x_min":-214,"x_max":214,"o":"m 82 253 q -10 294 42 253 q -81 336 -61 336 q -137 256 -128 336 l -214 256 q -174 376 -208 331 q -82 421 -140 421 q 10 379 -42 421 q 81 338 63 338 q 138 418 128 338 l 214 418 q 174 298 208 343 q 82 253 140 253 z "},"̹":{"ha":0,"x_min":-76,"x_max":92,"o":"m -76 -350 l -76 -297 q 24 -222 24 -299 q -76 -147 24 -146 l -76 -94 q 49 -126 6 -92 q 92 -222 92 -160 q 48 -318 92 -283 q -76 -350 4 -353 z "},"̺":{"ha":0,"x_min":-160,"x_max":160,"o":"m 94 -110 l 160 -110 l 160 -274 l 150 -274 l 94 -274 l -94 -274 l -150 -274 l -160 -274 l -160 -110 l -94 -110 l -94 -208 l 94 -208 l 94 -110 z "},"̻":{"ha":0,"x_min":-160,"x_max":160,"o":"m -160 -333 l -160 -111 l 160 -111 l 160 -333 l -160 -333 m -94 -278 l 94 -278 l 94 -165 l -94 -165 l -94 -278 z "},"̼":{"ha":0,"x_min":-207,"x_max":206,"o":"m -207 -297 q -94 -124 -207 -124 q -3 -200 -21 -124 l 0 -200 q 93 -124 18 -124 q 206 -297 207 -124 l 139 -297 q 125 -208 139 -232 q 83 -183 111 -183 q 32 -274 32 -183 l 32 -297 l -33 -297 l -33 -274 q -85 -183 -33 -183 q -126 -208 -112 -183 q -140 -297 -140 -232 l -207 -297 z "},"̽":{"ha":0,"x_min":-117,"x_max":117,"o":"m -71 771 l -117 817 l -46 888 l -117 958 l -71 1006 l 0 935 l 71 1006 l 117 958 l 46 888 l 117 817 l 71 771 l 0 842 l -71 771 z "},"͂":{"ha":0,"x_min":-214,"x_max":214,"o":"m 82 793 q -10 835 42 793 q -81 876 -61 876 q -137 796 -128 876 l -214 796 q -174 916 -208 871 q -82 961 -140 961 q 10 919 -42 961 q 81 878 63 878 q 138 958 128 878 l 214 958 q 174 838 208 883 q 82 793 140 793 z "},"ͅ":{"ha":0,"x_min":-46,"x_max":125,"o":"m 61 -279 q -46 -150 -46 -279 l -46 -86 l 43 -86 q 40 -160 40 -110 q 82 -203 40 -203 q 113 -199 94 -203 l 125 -267 q 61 -279 93 -279 z "},"͡":{"ha":0,"x_min":-631,"x_max":631,"o":"m -597 764 l -631 822 q 0 999 -342 999 q 631 822 342 999 l 597 764 q 0 918 343 918 q -597 764 -343 918 z "},"ʹ":{"ha":346,"x_min":114,"x_max":257,"o":"m 114 624 l 144 958 l 257 958 l 236 831 l 189 624 l 114 624 z "},"͵":{"ha":346,"x_min":89,"x_max":232,"o":"m 89 0 l 110 128 l 157 336 l 232 336 l 201 0 l 89 0 z "},"ͺ":{"ha":753,"x_min":339,"x_max":510,"o":"m 446 -279 q 339 -150 339 -279 l 339 -86 l 428 -86 q 425 -160 425 -110 q 467 -203 425 -203 q 497 -199 479 -203 l 510 -267 q 446 -279 478 -279 z "},";":{"ha":346,"x_min":65,"x_max":275,"o":"m 174 485 q 115 509 139 485 q 90 571 90 533 q 115 635 90 610 q 174 660 139 660 q 232 635 208 660 q 256 571 256 610 q 231 509 256 533 q 174 485 207 485 m 93 -236 l 65 -169 q 190 0 190 -114 q 176 -1 186 -1 q 118 19 142 -1 q 94 78 94 40 q 119 136 94 114 q 179 158 143 158 q 249 122 224 158 q 275 24 275 86 q 227 -133 275 -65 q 93 -236 179 -200 z "},"΄":{"ha":753,"x_min":325,"x_max":513,"o":"m 325 782 l 389 1049 l 513 1049 l 413 782 l 325 782 z "},"΅":{"ha":0,"x_min":-201,"x_max":201,"o":"m -143 826 q -185 842 -168 826 q -201 885 -201 858 q -185 927 -201 911 q -143 943 -168 943 q -103 927 -119 943 q -86 885 -86 911 q -103 842 -86 858 q -143 826 -119 826 m 143 826 q 103 842 119 826 q 86 885 86 858 q 103 927 86 911 q 143 943 119 943 q 185 927 168 943 q 201 885 201 911 q 185 842 201 858 q 143 826 168 826 m -58 782 l -4 1021 l 90 1021 l -1 782 l -58 782 z "},"Ά":{"ha":786,"x_min":7,"x_max":782,"o":"m 158 925 l 85 649 l 7 649 l 49 925 l 158 925 m 269 371 l 543 371 l 500 510 q 408 817 457 640 l 403 817 q 313 510 360 654 l 269 371 m 658 0 l 572 278 l 240 278 l 153 0 l 35 0 l 343 911 l 474 911 l 782 0 l 658 0 z "},"·":{"ha":346,"x_min":90,"x_max":256,"o":"m 174 485 q 115 509 139 485 q 90 571 90 533 q 115 635 90 610 q 174 660 139 660 q 232 635 208 660 q 256 571 256 610 q 231 509 256 533 q 174 485 207 485 z "},"Έ":{"ha":821,"x_min":-28,"x_max":753,"o":"m 214 0 l 214 911 l 739 911 l 739 814 l 329 814 l 329 528 l 675 528 l 675 429 l 329 429 l 329 99 l 753 99 l 753 0 l 214 0 m -28 649 l 14 925 l 124 925 l 50 649 l -28 649 z "},"Ή":{"ha":994,"x_min":-28,"x_max":869,"o":"m -28 649 l 14 925 l 124 925 l 50 649 l -28 649 m 214 0 l 214 911 l 329 911 l 329 529 l 753 529 l 753 911 l 869 911 l 869 0 l 753 0 l 753 429 l 329 429 l 329 0 l 214 0 z "},"Ί":{"ha":454,"x_min":-28,"x_max":329,"o":"m -28 649 l 14 925 l 124 925 l 50 649 l -28 649 m 214 0 l 214 911 l 329 911 l 329 0 l 214 0 z "},"Ό":{"ha":988,"x_min":-28,"x_max":917,"o":"m 808 113 q 754 48 808 113 q 526 -17 700 -17 q 245 113 353 -17 q 138 460 138 242 q 245 801 138 675 q 526 928 353 928 q 808 801 700 928 q 917 460 917 675 q 808 113 917 242 m 331 187 q 367 136 331 187 q 526 85 404 85 q 722 187 649 85 q 796 460 796 289 q 722 728 796 629 q 526 826 649 826 q 331 728 404 826 q 257 460 257 629 q 331 187 257 289 m -28 649 l 14 925 l 124 925 l 50 649 l -28 649 z "},"Ύ":{"ha":833,"x_min":-28,"x_max":835,"o":"m 444 0 l 444 353 l 171 911 l 294 911 l 413 654 q 500 456 476 508 l 506 456 q 597 654 585 625 l 714 911 l 835 911 l 561 353 l 561 0 l 444 0 m -28 649 l 14 925 l 124 925 l 50 649 l -28 649 z "},"Ώ":{"ha":1004,"x_min":-33,"x_max":944,"o":"m -33 649 l 8 925 l 118 925 l 44 649 l -33 649 m 128 0 l 128 94 l 310 94 l 310 100 q 147 488 147 260 q 254 805 147 682 q 536 928 361 928 q 819 804 711 928 q 926 488 926 681 q 763 100 926 261 l 763 94 l 944 94 l 944 0 l 621 0 l 621 85 q 807 481 807 231 q 734 729 807 632 q 536 826 661 826 q 339 729 411 826 q 267 481 267 632 q 451 85 267 231 l 451 0 l 128 0 z "},"ΐ":{"ha":364,"x_min":-29,"x_max":374,"o":"m 29 826 q -12 842 4 826 q -29 885 -29 858 q -12 927 -29 911 q 29 943 4 943 q 69 927 53 943 q 86 885 86 911 q 69 842 86 858 q 29 826 53 826 m 114 782 l 168 1021 l 263 1021 l 171 782 l 114 782 m 315 826 q 275 842 292 826 q 258 885 258 858 q 275 927 258 911 q 315 943 292 943 q 357 927 340 943 q 374 885 374 911 q 357 842 374 858 q 315 826 340 826 m 243 -17 q 114 140 114 -17 l 114 675 l 229 675 q 226 499 228 614 q 222 294 224 385 q 221 132 221 204 q 268 78 221 78 q 310 86 285 78 l 325 0 q 243 -17 289 -17 z "},"Α":{"ha":756,"x_min":4,"x_max":751,"o":"m 239 371 l 513 371 l 469 510 q 378 817 426 640 l 372 817 q 282 510 329 654 l 239 371 m 628 0 l 542 278 l 210 278 l 122 0 l 4 0 l 313 911 l 443 911 l 751 0 l 628 0 z "},"Β":{"ha":817,"x_min":125,"x_max":761,"o":"m 125 0 l 125 911 l 396 911 q 708 689 708 911 q 673 565 708 619 q 575 490 638 511 l 575 485 q 711 413 661 468 q 761 267 761 357 q 667 68 761 136 q 415 0 574 0 l 125 0 m 240 524 l 375 524 q 594 674 594 524 q 542 785 594 751 q 381 819 489 819 l 240 819 l 240 524 m 240 92 l 399 92 q 647 271 647 92 q 399 435 647 435 l 240 435 l 240 92 z "},"Γ":{"ha":678,"x_min":125,"x_max":650,"o":"m 125 0 l 125 911 l 650 911 l 650 814 l 240 814 l 240 0 l 125 0 z "},"Δ":{"ha":817,"x_min":42,"x_max":775,"o":"m 42 0 l 42 69 l 342 911 l 475 911 l 775 69 l 775 0 l 42 0 m 167 99 l 647 99 l 506 515 l 410 807 l 404 807 l 308 515 l 167 99 z "},"Ε":{"ha":732,"x_min":125,"x_max":664,"o":"m 125 0 l 125 911 l 650 911 l 650 814 l 240 814 l 240 528 l 586 528 l 586 429 l 240 429 l 240 99 l 664 99 l 664 0 l 125 0 z "},"Ζ":{"ha":749,"x_min":63,"x_max":690,"o":"m 63 0 l 63 69 l 542 814 l 106 814 l 106 911 l 686 911 l 686 843 l 206 99 l 690 99 l 690 0 l 63 0 z "},"Η":{"ha":906,"x_min":125,"x_max":781,"o":"m 125 0 l 125 911 l 240 911 l 240 529 l 664 529 l 664 911 l 781 911 l 781 0 l 664 0 l 664 429 l 240 429 l 240 0 l 125 0 z "},"Θ":{"ha":922,"x_min":72,"x_max":851,"o":"m 306 429 l 306 529 l 617 529 l 617 429 l 306 429 m 743 113 q 689 48 743 113 q 461 -17 635 -17 q 180 113 288 -17 q 72 460 72 242 q 180 801 72 675 q 461 928 288 928 q 743 801 635 928 q 851 460 851 675 q 743 113 851 242 m 265 187 q 302 136 265 187 q 461 85 339 85 q 657 187 583 85 q 731 460 731 289 q 657 728 731 629 q 461 826 583 826 q 265 728 339 826 q 192 460 192 629 q 265 187 192 289 z "},"Ι":{"ha":365,"x_min":125,"x_max":240,"o":"m 125 0 l 125 911 l 240 911 l 240 0 l 125 0 z "},"Κ":{"ha":804,"x_min":125,"x_max":799,"o":"m 125 0 l 125 911 l 240 911 l 240 454 l 244 454 l 624 911 l 754 911 l 469 564 l 799 0 l 669 0 l 397 474 l 240 289 l 240 0 l 125 0 z "},"Λ":{"ha":715,"x_min":0,"x_max":715,"o":"m 0 0 l 290 911 l 424 911 l 715 0 l 593 0 l 446 493 q 408 626 438 519 q 357 794 378 732 l 351 794 q 305 635 333 735 q 264 493 276 536 l 118 0 l 0 0 z "},"Μ":{"ha":1010,"x_min":125,"x_max":885,"o":"m 125 0 l 125 911 l 264 911 l 439 425 q 472 330 450 393 q 504 235 493 267 l 510 235 q 541 330 521 267 q 572 425 561 393 l 744 911 l 885 911 l 885 0 l 776 0 l 776 501 q 792 771 776 550 l 786 771 l 714 564 l 542 92 l 465 92 l 293 564 l 221 771 l 215 771 q 229 501 229 569 l 229 0 l 125 0 z "},"Ν":{"ha":899,"x_min":125,"x_max":774,"o":"m 125 0 l 125 911 l 244 911 l 574 339 l 672 150 l 678 150 q 664 440 664 379 l 664 911 l 774 911 l 774 0 l 654 0 l 324 574 l 225 761 l 219 761 q 235 476 235 560 l 235 0 l 125 0 z "},"Ξ":{"ha":740,"x_min":68,"x_max":672,"o":"m 68 0 l 68 99 l 672 99 l 672 0 l 68 0 m 172 429 l 172 528 l 568 528 l 568 429 l 172 429 m 82 814 l 82 911 l 658 911 l 658 814 l 82 814 z "},"Ο":{"ha":922,"x_min":72,"x_max":851,"o":"m 743 113 q 689 48 743 113 q 461 -17 635 -17 q 180 113 288 -17 q 72 460 72 242 q 180 801 72 675 q 461 928 288 928 q 743 801 635 928 q 851 460 851 675 q 743 113 851 242 m 265 187 q 302 136 265 187 q 461 85 339 85 q 657 187 583 85 q 731 460 731 289 q 657 728 731 629 q 461 826 583 826 q 265 728 339 826 q 192 460 192 629 q 265 187 192 289 z "},"Π":{"ha":896,"x_min":125,"x_max":771,"o":"m 125 0 l 125 911 l 771 911 l 771 0 l 656 0 l 656 814 l 240 814 l 240 0 l 125 0 z "},"Ρ":{"ha":786,"x_min":125,"x_max":726,"o":"m 125 0 l 125 911 l 385 911 q 726 643 726 911 q 636 433 726 504 q 390 361 546 361 l 240 361 l 240 0 l 125 0 m 240 456 l 376 456 q 553 501 496 456 q 611 643 611 547 q 553 778 611 739 q 371 818 494 818 l 240 818 l 240 456 z "},"Σ":{"ha":747,"x_min":61,"x_max":696,"o":"m 61 0 l 61 69 l 375 463 l 67 843 l 67 911 l 654 911 l 654 814 l 213 814 l 492 465 l 208 99 l 696 99 l 696 0 l 61 0 z "},"Τ":{"ha":744,"x_min":39,"x_max":706,"o":"m 314 0 l 314 814 l 39 814 l 39 911 l 706 911 l 706 814 l 431 814 l 431 0 l 314 0 z "},"Υ":{"ha":661,"x_min":-1,"x_max":663,"o":"m 272 0 l 272 353 l -1 911 l 122 911 l 240 654 q 328 456 304 508 l 333 456 q 425 654 413 625 l 542 911 l 663 911 l 389 353 l 389 0 l 272 0 z "},"Φ":{"ha":999,"x_min":67,"x_max":932,"o":"m 551 724 l 551 189 q 747 269 674 196 q 819 460 819 343 q 747 646 819 575 q 551 724 675 717 m 447 189 l 447 724 q 251 646 324 717 q 179 460 179 575 q 252 269 179 343 q 447 189 325 196 m 551 942 l 551 814 q 829 713 726 806 q 932 460 932 619 q 828 203 932 299 q 551 99 725 107 l 551 -31 l 447 -31 l 447 99 q 170 203 274 107 q 67 460 67 299 q 169 713 67 619 q 447 814 272 806 l 447 942 l 551 942 z "},"Χ":{"ha":713,"x_min":21,"x_max":692,"o":"m 21 0 l 286 471 l 39 911 l 167 911 l 290 678 q 361 546 310 643 l 367 546 q 432 678 407 631 l 553 911 l 675 911 l 426 465 l 692 0 l 564 0 l 431 246 q 397 309 424 258 q 353 392 369 360 l 347 392 q 275 246 333 364 l 143 0 l 21 0 z "},"Ψ":{"ha":971,"x_min":88,"x_max":883,"o":"m 768 911 l 883 911 l 883 688 q 540 340 883 356 l 540 0 l 431 0 l 431 340 q 88 688 88 356 l 88 911 l 201 911 l 201 693 q 258 501 201 564 q 431 433 315 439 l 431 911 l 540 911 l 540 433 q 712 502 656 440 q 768 693 768 564 l 768 911 z "},"Ω":{"ha":942,"x_min":63,"x_max":879,"o":"m 63 0 l 63 94 l 244 94 l 244 100 q 82 488 82 260 q 189 805 82 682 q 471 928 296 928 q 753 804 646 928 q 861 488 861 681 q 697 100 861 261 l 697 94 l 879 94 l 879 0 l 556 0 l 556 85 q 742 481 742 231 q 669 729 742 632 q 471 826 596 826 q 274 729 346 826 q 201 481 201 632 q 386 85 201 231 l 386 0 l 63 0 z "},"Ϊ":{"ha":365,"x_min":-6,"x_max":369,"o":"m 125 0 l 125 911 l 240 911 l 240 0 l 125 0 m 63 993 q 13 1013 32 993 q -6 1061 -6 1032 q 13 1110 -6 1092 q 63 1129 32 1129 q 111 1110 92 1129 q 131 1061 131 1092 q 111 1013 131 1032 q 63 993 92 993 m 301 993 q 253 1013 272 993 q 233 1061 233 1032 q 253 1110 233 1092 q 301 1129 272 1129 q 351 1110 332 1129 q 369 1061 369 1092 q 351 1013 369 1032 q 301 993 332 993 z "},"Ϋ":{"ha":661,"x_min":-1,"x_max":663,"o":"m 272 0 l 272 353 l -1 911 l 122 911 l 240 654 q 328 456 304 508 l 333 456 q 425 654 413 625 l 542 911 l 663 911 l 389 353 l 389 0 l 272 0 m 211 993 q 162 1013 181 993 q 143 1061 143 1032 q 162 1110 143 1092 q 211 1129 181 1129 q 260 1110 240 1129 q 279 1061 279 1092 q 260 1013 279 1032 q 211 993 240 993 m 450 993 q 401 1013 421 993 q 382 1061 382 1032 q 401 1110 382 1092 q 450 1129 421 1129 q 499 1110 481 1129 q 518 1061 518 1092 q 499 1013 518 1032 q 450 993 481 993 z "},"ά":{"ha":778,"x_min":64,"x_max":758,"o":"m 324 -17 q 135 73 206 -17 q 64 325 64 163 q 149 592 64 492 q 354 692 235 692 q 483 649 425 692 q 568 515 540 607 l 571 515 l 600 675 l 713 675 q 628 149 628 258 q 647 97 628 115 q 694 78 667 78 q 742 89 714 78 l 758 1 q 671 -17 717 -17 q 573 17 608 -17 q 538 121 538 51 l 533 121 q 324 -17 456 -17 m 347 79 q 469 142 414 79 q 531 289 525 204 l 542 415 q 470 556 517 515 q 372 596 424 596 q 238 524 294 596 q 182 326 182 453 q 226 144 182 208 q 347 79 269 79 m 343 782 l 407 1049 l 531 1049 l 431 782 l 343 782 z "},"έ":{"ha":622,"x_min":64,"x_max":594,"o":"m 349 -17 q 143 38 222 -17 q 64 186 64 93 q 204 354 64 317 l 204 360 q 125 419 153 378 q 97 510 97 461 q 171 645 97 599 q 356 692 244 692 q 574 618 474 692 l 528 542 q 358 601 447 601 q 252 574 293 601 q 211 496 211 546 q 365 392 211 392 q 450 396 397 392 l 450 307 q 344 310 410 310 q 178 196 178 310 q 226 107 178 139 q 361 75 275 75 q 546 143 458 75 l 594 67 q 349 -17 485 -17 m 292 782 l 356 1049 l 479 1049 l 379 782 l 292 782 z "},"ή":{"ha":751,"x_min":104,"x_max":646,"o":"m 353 782 l 417 1049 l 540 1049 l 440 782 l 353 782 m 531 -249 q 539 413 539 83 q 513 551 539 508 q 429 593 488 593 q 329 560 374 593 q 228 442 285 526 l 228 0 l 114 0 l 114 490 q 104 675 114 592 l 208 675 l 218 535 l 222 535 q 333 653 276 615 q 463 692 389 692 q 602 626 558 692 q 646 428 646 560 l 646 -249 l 531 -249 z "},"ί":{"ha":364,"x_min":114,"x_max":325,"o":"m 121 782 l 185 1049 l 308 1049 l 208 782 l 121 782 m 243 -17 q 114 140 114 -17 l 114 675 l 229 675 q 226 499 228 614 q 222 294 224 385 q 221 132 221 204 q 268 78 221 78 q 310 86 285 78 l 325 0 q 243 -17 289 -17 z "},"ΰ":{"ha":708,"x_min":83,"x_max":632,"o":"m 346 -17 q 156 51 224 -17 q 89 250 89 118 q 92 370 89 290 q 94 490 94 450 q 83 675 94 594 l 194 675 q 206 518 206 621 q 201 384 206 481 q 197 244 197 288 q 240 119 197 160 q 347 78 282 78 q 470 142 424 78 q 517 333 517 207 q 461 665 517 500 l 572 692 q 632 338 632 513 q 554 76 632 169 q 346 -17 476 -17 m 196 826 q 154 842 171 826 q 138 885 138 858 q 154 927 138 911 q 196 943 171 943 q 236 927 219 943 q 253 885 253 911 q 236 842 253 858 q 196 826 219 826 m 281 782 l 335 1021 l 429 1021 l 338 782 l 281 782 m 482 826 q 442 842 458 826 q 425 885 425 858 q 442 927 425 911 q 482 943 458 943 q 524 927 507 943 q 540 885 540 911 q 524 842 540 858 q 482 826 507 826 z "},"α":{"ha":778,"x_min":64,"x_max":758,"o":"m 324 -17 q 135 73 206 -17 q 64 325 64 163 q 149 592 64 492 q 354 692 235 692 q 483 649 425 692 q 568 515 540 607 l 571 515 l 600 675 l 713 675 q 628 149 628 258 q 647 97 628 115 q 694 78 667 78 q 742 89 714 78 l 758 1 q 671 -17 717 -17 q 573 17 608 -17 q 538 121 538 51 l 533 121 q 324 -17 456 -17 m 347 79 q 469 142 414 79 q 531 289 525 204 l 542 415 q 470 556 517 515 q 372 596 424 596 q 238 524 294 596 q 182 326 182 453 q 226 144 182 208 q 347 79 269 79 z "},"β":{"ha":785,"x_min":110,"x_max":724,"o":"m 110 -249 l 110 688 q 181 918 110 831 q 388 1006 251 1006 q 568 943 494 1006 q 642 765 642 881 q 508 535 642 618 l 508 529 q 665 445 607 515 q 724 268 724 375 q 646 60 724 138 q 460 -17 568 -17 q 218 86 311 -17 q 225 -249 222 -31 l 110 -249 m 433 79 q 559 132 508 79 q 610 275 610 185 q 561 411 610 358 q 421 464 513 464 q 351 456 385 464 l 333 543 q 482 624 433 564 q 531 757 531 683 q 490 872 531 832 q 390 913 450 913 q 267 849 311 913 q 222 667 224 786 q 218 185 218 422 q 433 79 301 79 z "},"γ":{"ha":672,"x_min":8,"x_max":644,"o":"m 272 -249 q 279 -81 279 -172 q 197 303 279 82 q 8 663 114 524 l 124 692 q 254 442 190 599 q 346 135 318 286 l 351 135 q 529 675 510 442 l 644 675 q 558 354 617 501 q 376 7 500 207 q 390 -249 390 -93 l 272 -249 z "},"δ":{"ha":738,"x_min":72,"x_max":672,"o":"m 375 78 q 513 138 465 78 q 560 303 560 199 q 522 436 560 379 q 413 547 483 493 q 244 457 304 524 q 183 293 183 390 q 240 138 183 197 q 375 78 297 78 m 657 951 l 629 860 q 365 917 472 917 q 282 897 310 917 q 254 847 254 878 q 259 817 254 832 q 276 788 264 803 q 299 760 288 772 q 332 731 310 749 q 368 703 354 714 q 412 672 382 693 q 457 639 442 650 q 567 549 526 588 q 640 446 607 511 q 672 304 672 381 q 593 71 672 158 q 374 -17 514 -17 q 162 67 251 -17 q 72 290 72 151 q 144 488 72 407 q 332 606 217 568 q 194 726 242 669 q 146 854 146 782 q 202 963 146 919 q 367 1006 258 1006 q 657 951 490 1006 z "},"ε":{"ha":622,"x_min":64,"x_max":594,"o":"m 349 -17 q 143 38 222 -17 q 64 186 64 93 q 204 354 64 317 l 204 360 q 125 419 153 378 q 97 510 97 461 q 171 645 97 599 q 356 692 244 692 q 574 618 474 692 l 528 542 q 358 601 447 601 q 252 574 293 601 q 211 496 211 546 q 365 392 211 392 q 450 396 397 392 l 450 307 q 344 310 410 310 q 178 196 178 310 q 226 107 178 139 q 361 75 275 75 q 546 143 458 75 l 594 67 q 349 -17 485 -17 z "},"ζ":{"ha":586,"x_min":64,"x_max":575,"o":"m 496 -256 l 406 -218 q 459 -145 446 -168 q 472 -96 472 -122 q 442 -47 472 -64 q 318 -11 413 -31 q 132 84 200 13 q 64 308 64 156 q 179 624 64 454 q 436 903 294 794 q 107 896 218 903 l 107 989 l 565 989 l 565 896 l 558 896 q 301 624 419 799 q 182 314 182 450 q 233 150 182 201 q 385 81 283 99 q 531 28 488 61 q 575 -69 575 -4 q 496 -256 575 -150 z "},"η":{"ha":751,"x_min":104,"x_max":646,"o":"m 531 -249 q 539 413 539 83 q 513 551 539 508 q 429 593 488 593 q 329 560 374 593 q 228 442 285 526 l 228 0 l 114 0 l 114 490 q 104 675 114 592 l 208 675 l 218 535 l 222 535 q 333 653 276 615 q 463 692 389 692 q 602 626 558 692 q 646 428 646 560 l 646 -249 l 531 -249 z "},"θ":{"ha":725,"x_min":82,"x_max":643,"o":"m 531 460 l 194 460 q 363 78 201 78 q 531 460 524 78 m 194 542 l 531 542 q 480 821 525 731 q 363 911 435 911 q 245 821 290 911 q 194 542 200 731 m 156 874 q 193 940 156 874 q 363 1006 231 1006 q 569 874 494 1006 q 643 499 643 743 q 570 110 643 238 q 363 -17 497 -17 q 155 110 228 -17 q 82 499 82 238 q 156 874 82 743 z "},"ι":{"ha":364,"x_min":114,"x_max":325,"o":"m 243 -17 q 114 140 114 -17 l 114 675 l 229 675 q 226 499 228 614 q 222 294 224 385 q 221 132 221 204 q 268 78 221 78 q 310 86 285 78 l 325 0 q 243 -17 289 -17 z "},"κ":{"ha":686,"x_min":101,"x_max":690,"o":"m 690 0 l 564 -11 q 339 331 453 115 q 276 249 311 297 q 221 35 224 176 l 221 0 l 114 0 l 114 490 q 101 675 114 608 l 214 675 q 226 518 226 629 l 226 307 l 232 307 q 424 560 317 454 q 633 692 531 665 l 644 583 q 410 413 536 549 q 690 0 532 174 z "},"λ":{"ha":686,"x_min":22,"x_max":676,"o":"m 143 -11 l 22 0 l 315 690 l 307 719 q 240 862 278 815 q 147 908 203 908 q 60 886 110 908 l 32 981 q 160 1006 89 1006 q 315 935 256 1006 q 421 714 374 865 l 676 0 l 556 0 l 369 560 l 364 560 l 143 -11 z "},"μ":{"ha":781,"x_min":114,"x_max":743,"o":"m 114 -249 l 114 675 l 228 675 l 228 263 q 351 82 228 82 q 445 109 403 82 q 531 214 488 136 l 531 675 l 646 675 q 642 499 644 614 q 639 294 640 385 q 638 132 638 204 q 688 78 638 78 q 728 86 706 78 l 743 0 q 663 -17 710 -17 q 576 15 606 -17 q 540 114 547 46 l 538 114 q 350 -14 465 -14 q 219 51 258 -14 q 229 -249 221 -128 l 114 -249 z "},"ν":{"ha":658,"x_min":8,"x_max":631,"o":"m 268 0 q 8 663 189 393 l 124 692 q 251 426 190 589 q 342 118 311 264 l 347 118 q 515 675 492 422 l 631 675 q 381 0 581 347 l 268 0 z "},"ξ":{"ha":594,"x_min":35,"x_max":585,"o":"m 506 -256 l 414 -218 q 467 -146 454 -169 q 481 -96 481 -122 q 449 -47 481 -64 q 326 -11 418 -29 q 134 73 204 13 q 64 257 64 133 q 124 426 64 353 q 271 526 183 500 l 271 532 q 169 610 207 558 q 131 732 131 661 q 231 903 131 851 q 35 896 140 903 l 35 989 l 574 989 l 574 896 l 415 896 q 295 851 344 896 q 246 729 246 806 q 300 609 246 658 q 418 560 354 560 q 508 568 465 560 l 508 471 q 411 479 472 479 q 251 422 319 479 q 182 272 182 365 q 237 140 182 181 q 399 81 292 100 q 543 29 501 61 q 585 -69 585 -3 q 506 -256 585 -147 z "},"ο":{"ha":743,"x_min":64,"x_max":679,"o":"m 371 -17 q 152 78 240 -17 q 64 336 64 172 q 151 597 64 501 q 371 692 239 692 q 591 597 503 692 q 679 336 679 501 q 591 78 679 172 q 371 -17 503 -17 m 232 148 q 257 113 232 148 q 371 78 282 78 q 510 148 460 78 q 561 336 561 218 q 510 526 561 456 q 371 597 460 597 q 232 526 282 597 q 182 336 182 456 q 232 148 182 218 z "},"π":{"ha":814,"x_min":31,"x_max":779,"o":"m 674 -17 q 561 26 596 -17 q 526 153 526 68 q 529 346 526 186 q 533 581 532 506 l 294 581 q 254 -7 294 385 l 139 0 q 188 581 188 303 l 31 581 l 31 668 l 128 675 l 779 675 l 779 581 l 644 581 q 633 144 633 376 q 697 78 633 78 q 751 86 714 78 l 767 -1 q 674 -17 724 -17 z "},"ρ":{"ha":763,"x_min":108,"x_max":697,"o":"m 108 -249 l 108 344 q 192 602 108 513 q 406 692 275 692 q 622 601 546 692 q 697 347 697 510 q 615 83 697 183 q 419 -17 532 -17 q 215 79 299 -17 q 224 -249 222 -118 l 108 -249 m 399 79 q 528 152 476 79 q 579 347 579 225 q 535 530 579 464 q 401 596 492 596 q 270 530 322 596 q 218 343 218 464 l 218 171 q 399 79 293 79 z "},"ς":{"ha":600,"x_min":64,"x_max":558,"o":"m 439 -250 l 347 -214 q 404 -133 388 -162 q 421 -76 421 -104 q 400 -19 421 -42 q 322 19 379 3 q 227 60 267 39 q 147 118 188 81 q 85 215 107 156 q 64 353 64 274 q 151 600 64 508 q 365 692 239 692 q 558 611 472 692 l 501 538 q 371 597 432 597 q 235 530 289 597 q 182 353 182 463 q 231 194 182 244 q 374 113 281 144 q 492 51 460 85 q 524 -51 524 17 q 439 -250 524 -136 z "},"σ":{"ha":758,"x_min":64,"x_max":742,"o":"m 367 -17 q 151 76 238 -17 q 64 331 64 169 q 153 586 64 497 q 372 675 243 675 l 742 675 l 742 578 q 528 589 610 588 l 528 583 q 661 315 661 508 q 578 73 661 163 q 367 -17 494 -17 m 368 78 q 499 145 449 78 q 550 325 550 213 q 501 506 550 432 q 369 581 453 581 q 234 517 286 581 q 182 331 182 453 q 234 147 182 215 q 368 78 286 78 z "},"τ":{"ha":639,"x_min":36,"x_max":603,"o":"m 400 -17 q 294 25 325 -17 q 263 153 263 67 l 263 582 l 36 582 l 36 668 l 133 675 l 603 675 l 603 582 l 375 582 q 369 144 369 381 q 426 78 369 78 q 492 89 447 78 l 508 1 q 400 -17 451 -17 z "},"υ":{"ha":708,"x_min":83,"x_max":632,"o":"m 346 -17 q 156 51 224 -17 q 89 250 89 118 q 92 370 89 290 q 94 490 94 450 q 83 675 94 594 l 194 675 q 206 518 206 621 q 201 384 206 481 q 197 244 197 288 q 240 119 197 160 q 347 78 282 78 q 470 142 424 78 q 517 333 517 207 q 461 665 517 500 l 572 692 q 632 338 632 513 q 554 76 632 169 q 346 -17 476 -17 z "},"φ":{"ha":944,"x_min":64,"x_max":881,"o":"m 525 600 l 525 75 q 695 151 628 79 q 763 339 763 222 q 697 526 763 457 q 525 600 632 596 m 419 75 l 419 600 q 250 526 318 596 q 182 339 182 456 q 250 151 182 222 q 419 75 318 79 m 525 864 l 525 688 q 777 590 674 683 q 881 339 881 496 q 776 86 881 181 q 525 -12 671 -8 l 525 -249 l 419 -249 l 419 -12 q 169 86 274 -8 q 64 339 64 181 q 169 590 64 496 q 419 688 274 683 l 419 864 l 525 864 z "},"χ":{"ha":668,"x_min":13,"x_max":678,"o":"m 128 -265 l 13 -249 l 281 226 l 17 663 l 131 692 l 335 331 l 340 331 l 514 675 l 635 675 l 394 229 l 678 -236 l 567 -265 l 340 133 l 335 133 l 128 -265 z "},"ψ":{"ha":957,"x_min":85,"x_max":879,"o":"m 707 665 l 818 692 q 879 369 879 526 q 788 88 879 189 q 529 -17 696 -12 l 529 -249 l 422 -249 l 422 -17 q 176 72 257 -15 q 94 310 94 160 l 94 490 q 85 675 94 592 l 196 675 q 204 518 204 618 q 203 399 204 476 q 201 303 201 321 q 257 138 201 199 q 422 76 313 78 l 422 864 l 529 864 l 529 76 q 763 365 763 85 q 707 665 763 511 z "},"ω":{"ha":963,"x_min":65,"x_max":897,"o":"m 300 -17 q 131 69 196 -17 q 65 318 65 156 q 190 692 65 506 l 294 646 q 204 478 233 557 q 175 297 175 399 q 211 136 175 194 q 306 78 247 78 q 394 119 360 78 q 428 247 428 160 q 417 428 428 332 l 542 428 q 532 247 532 326 q 651 78 532 78 q 745 138 710 78 q 781 315 781 199 q 756 488 781 415 q 672 649 732 560 l 776 692 q 867 517 836 603 q 897 322 897 432 q 835 70 897 157 q 665 -17 774 -17 q 483 106 532 -17 l 478 106 q 300 -17 429 -17 z "},"ϊ":{"ha":364,"x_min":-15,"x_max":360,"o":"m 243 -17 q 114 140 114 -17 l 114 675 l 229 675 q 226 499 228 614 q 222 294 224 385 q 221 132 221 204 q 268 78 221 78 q 310 86 285 78 l 325 0 q 243 -17 289 -17 m 53 817 q 3 836 22 817 q -15 885 -15 856 q 3 933 -15 914 q 53 953 22 953 q 101 933 82 953 q 121 885 121 914 q 101 836 121 856 q 53 817 82 817 m 292 817 q 243 836 263 817 q 224 885 224 856 q 243 933 224 914 q 292 953 263 953 q 341 933 322 953 q 360 885 360 914 q 341 836 360 856 q 292 817 322 817 z "},"ϋ":{"ha":708,"x_min":83,"x_max":632,"o":"m 346 -17 q 156 51 224 -17 q 89 250 89 118 q 92 370 89 290 q 94 490 94 450 q 83 675 94 594 l 194 675 q 206 518 206 621 q 201 384 206 481 q 197 244 197 288 q 240 119 197 160 q 347 78 282 78 q 470 142 424 78 q 517 333 517 207 q 461 665 517 500 l 572 692 q 632 338 632 513 q 554 76 632 169 q 346 -17 476 -17 m 219 817 q 170 836 189 817 q 151 885 151 856 q 170 933 151 914 q 219 953 189 953 q 268 933 249 953 q 288 885 288 914 q 268 836 288 856 q 219 817 249 817 m 458 817 q 410 836 429 817 q 390 885 390 856 q 410 933 390 914 q 458 953 429 953 q 508 933 489 953 q 526 885 526 914 q 508 836 526 856 q 458 817 489 817 z "},"ό":{"ha":743,"x_min":64,"x_max":679,"o":"m 322 782 l 386 1049 l 510 1049 l 410 782 l 322 782 m 371 -17 q 152 78 240 -17 q 64 336 64 172 q 151 597 64 501 q 371 692 239 692 q 591 597 503 692 q 679 336 679 501 q 591 78 679 172 q 371 -17 503 -17 m 232 148 q 257 113 232 148 q 371 78 282 78 q 510 148 460 78 q 561 336 561 218 q 510 526 561 456 q 371 597 460 597 q 232 526 282 597 q 182 336 182 456 q 232 148 182 218 z "},"ύ":{"ha":708,"x_min":83,"x_max":632,"o":"m 346 -17 q 156 51 224 -17 q 89 250 89 118 q 92 370 89 290 q 94 490 94 450 q 83 675 94 594 l 194 675 q 206 518 206 621 q 201 384 206 481 q 197 244 197 288 q 240 119 197 160 q 347 78 282 78 q 470 142 424 78 q 517 333 517 207 q 461 665 517 500 l 572 692 q 632 338 632 513 q 554 76 632 169 q 346 -17 476 -17 m 288 782 l 351 1049 l 475 1049 l 375 782 l 288 782 z "},"ώ":{"ha":963,"x_min":65,"x_max":897,"o":"m 431 782 l 494 1049 l 618 1049 l 518 782 l 431 782 m 300 -17 q 131 69 196 -17 q 65 318 65 156 q 190 692 65 506 l 294 646 q 204 478 233 557 q 175 297 175 399 q 211 136 175 194 q 306 78 247 78 q 394 119 360 78 q 428 247 428 160 q 417 428 428 332 l 542 428 q 532 247 532 326 q 651 78 532 78 q 745 138 710 78 q 781 315 781 199 q 756 488 781 415 q 672 649 732 560 l 776 692 q 867 517 836 603 q 897 322 897 432 q 835 70 897 157 q 665 -17 774 -17 q 483 106 532 -17 l 478 106 q 300 -17 429 -17 z "},"ϐ":{"ha":788,"x_min":114,"x_max":728,"o":"m 431 83 q 563 134 511 83 q 614 269 614 185 q 565 408 614 353 q 424 464 517 464 q 222 425 360 464 l 222 331 q 288 141 222 199 q 431 83 354 83 m 393 908 q 270 847 314 908 q 225 667 226 785 q 224 583 225 633 q 224 513 224 533 q 462 604 392 544 q 532 757 532 664 q 492 869 532 831 q 393 908 453 908 m 489 535 l 489 529 q 664 447 600 519 q 728 263 728 374 q 644 59 728 135 q 435 -17 561 -17 q 210 64 307 -17 q 114 311 114 144 l 114 688 q 185 917 114 831 q 392 1003 256 1003 q 570 942 496 1003 q 644 765 644 881 q 489 535 644 610 z "},"ϑ":{"ha":725,"x_min":92,"x_max":643,"o":"m 201 751 q 216 666 201 704 q 267 594 231 628 q 368 550 304 560 q 531 550 432 540 q 335 911 519 914 q 239 867 276 911 q 201 751 201 822 m 111 404 l 219 404 q 229 249 229 378 q 364 78 229 78 q 485 165 442 78 q 531 474 528 251 q 319 477 408 457 q 182 544 229 497 q 113 642 135 590 q 92 753 92 694 q 160 935 92 864 q 331 1006 229 1006 q 564 878 485 1006 q 643 503 643 751 q 569 104 643 225 q 360 -17 496 -17 q 184 47 246 -17 q 122 235 122 110 q 111 404 122 356 z "}}}
